<?xml version="1.0" encoding="UTF-8" standalone="no"?>
<!-- Created with Inkscape (http://www.inkscape.org/) -->

<svg
   xmlns:dc="http://purl.org/dc/elements/1.1/"
   xmlns:cc="http://creativecommons.org/ns#"
   xmlns:rdf="http://www.w3.org/1999/02/22-rdf-syntax-ns#"
   xmlns:svg="http://www.w3.org/2000/svg"
   xmlns="http://www.w3.org/2000/svg"
   xmlns:sodipodi="http://sodipodi.sourceforge.net/DTD/sodipodi-0.dtd"
   xmlns:inkscape="http://www.inkscape.org/namespaces/inkscape"
   width="222.99998"
   height="63.98753"
   viewBox="0 0 59.00208 16.930034"
   version="1.1"
   id="svg957"
   inkscape:version="0.92.2 (5c3e80d, 2017-08-06)"
   sodipodi:docname="Logo INSA Lyon (2014).svg">
  <defs
     id="defs951">
    <clipPath
       clipPathUnits="userSpaceOnUse"
       id="clipPath410">
      <path
         d="M 0,0 H 425.197 V 822.047 H 0 Z"
         id="path408"
         inkscape:connector-curvature="0" />
    </clipPath>
    <clipPath
       clipPathUnits="userSpaceOnUse"
       id="clipPath390">
      <path
         d="M 0,0 H 425.197 V 822.047 H 0 Z"
         id="path388"
         inkscape:connector-curvature="0" />
    </clipPath>
    <clipPath
       clipPathUnits="userSpaceOnUse"
       id="clipPath366">
      <path
         d="M 0,0 H 425.197 V 822.047 H 0 Z"
         id="path364"
         inkscape:connector-curvature="0" />
    </clipPath>
    <clipPath
       clipPathUnits="userSpaceOnUse"
       id="clipPath344">
      <path
         d="M 0,0 H 425.197 V 822.047 H 0 Z"
         id="path342"
         inkscape:connector-curvature="0" />
    </clipPath>
    <clipPath
       clipPathUnits="userSpaceOnUse"
       id="clipPath266">
      <path
         d="M 0,0 H 425.197 V 822.047 H 0 Z"
         id="path264"
         inkscape:connector-curvature="0" />
    </clipPath>
    <clipPath
       clipPathUnits="userSpaceOnUse"
       id="clipPath282">
      <path
         d="M 0,0 H 425.197 V 822.047 H 0 Z"
         id="path280"
         inkscape:connector-curvature="0" />
    </clipPath>
    <clipPath
       clipPathUnits="userSpaceOnUse"
       id="clipPath312">
      <path
         d="M 0,0 H 425.197 V 822.047 H 0 Z"
         id="path310"
         inkscape:connector-curvature="0" />
    </clipPath>
    <clipPath
       clipPathUnits="userSpaceOnUse"
       id="clipPath328">
      <path
         d="M 0,0 H 425.197 V 822.047 H 0 Z"
         id="path326"
         inkscape:connector-curvature="0" />
    </clipPath>
    <clipPath
       clipPathUnits="userSpaceOnUse"
       id="clipPath242">
      <path
         d="M 0,0 H 425.197 V 822.047 H 0 Z"
         id="path240"
         inkscape:connector-curvature="0" />
    </clipPath>
    <clipPath
       clipPathUnits="userSpaceOnUse"
       id="clipPath212">
      <path
         d="M 0,0 H 425.197 V 822.047 H 0 Z"
         id="path210"
         inkscape:connector-curvature="0" />
    </clipPath>
    <clipPath
       clipPathUnits="userSpaceOnUse"
       id="clipPath190">
      <path
         d="M 0,0 H 425.197 V 822.047 H 0 Z"
         id="path188"
         inkscape:connector-curvature="0" />
    </clipPath>
    <clipPath
       clipPathUnits="userSpaceOnUse"
       id="clipPath434">
      <path
         d="M 0,0 H 425.197 V 822.047 H 0 Z"
         id="path432"
         inkscape:connector-curvature="0" />
    </clipPath>
  </defs>
  <sodipodi:namedview
     id="base"
     pagecolor="#ffffff"
     bordercolor="#666666"
     borderopacity="1.0"
     inkscape:pageopacity="0.0"
     inkscape:pageshadow="2"
     inkscape:zoom="3.959798"
     inkscape:cx="102.29344"
     inkscape:cy="1.1208752"
     inkscape:document-units="mm"
     inkscape:current-layer="layer1"
     showgrid="false"
     fit-margin-top="10"
     fit-margin-left="10"
     fit-margin-right="10"
     fit-margin-bottom="10"
     units="px"
     inkscape:window-width="1600"
     inkscape:window-height="837"
     inkscape:window-x="-8"
     inkscape:window-y="-8"
     inkscape:window-maximized="1" />
  <metadata
     id="metadata954">
    <rdf:RDF>
      <cc:Work
         rdf:about="">
        <dc:format>image/svg+xml</dc:format>
        <dc:type
           rdf:resource="http://purl.org/dc/dcmitype/StillImage" />
        <dc:title></dc:title>
      </cc:Work>
    </rdf:RDF>
  </metadata>
  <g
     inkscape:label="Calque 1"
     inkscape:groupmode="layer"
     id="layer1"
     transform="translate(-76.29476,-116.71723)">
    <path
       d="m 112.12634,121.56225 h 0.24484 v -1.98336 h -0.24484 z"
       style="fill:#565353;fill-opacity:1;fill-rule:nonzero;stroke:none;stroke-width:0.70556939"
       id="path178"
       inkscape:connector-curvature="0" />
    <g
       id="g180"
       transform="matrix(0.70556941,0,0,-0.70556941,112.69482,119.57931)">
      <path
         d="M 0,0 H 0.449 L 1.378,-2.346 H 1.386 V 0 H 1.732 V -2.811 H 1.256 L 0.354,-0.535 H 0.346 V -2.811 H 0 Z"
         style="fill:#565353;fill-opacity:1;fill-rule:nonzero;stroke:none"
         id="path182"
         inkscape:connector-curvature="0" />
    </g>
    <g
       transform="matrix(0.70556941,0,0,-0.70556941,-151.35443,627.35603)"
       id="g184">
      <g
         id="g186"
         clip-path="url(#clipPath190)">
        <g
           id="g192"
           transform="translate(377.6273,718.9412)">
          <path
             d="m 0,0 c 0,0.295 -0.106,0.5 -0.437,0.5 -0.291,0 -0.465,-0.157 -0.465,-0.457 0,-0.791 1.327,-0.319 1.327,-1.346 0,-0.65 -0.476,-0.835 -0.874,-0.835 -0.657,0 -0.85,0.339 -0.85,0.937 h 0.346 c 0,-0.315 0.02,-0.653 0.528,-0.653 0.275,0 0.488,0.197 0.488,0.496 0,0.795 -1.327,0.334 -1.327,1.366 0,0.26 0.11,0.775 0.823,0.775 0.535,0 0.779,-0.267 0.787,-0.783 z"
             style="fill:#565353;fill-opacity:1;fill-rule:nonzero;stroke:none"
             id="path194"
             inkscape:connector-curvature="0" />
        </g>
      </g>
    </g>
    <g
       id="g196"
       transform="matrix(0.70556941,0,0,-0.70556941,116.24821,121.56253)">
      <path
         d="m 0,0 h -0.346 v 2.504 h -0.705 v 0.307 h 1.76 V 2.504 H 0 Z"
         style="fill:#565353;fill-opacity:1;fill-rule:nonzero;stroke:none"
         id="path198"
         inkscape:connector-curvature="0" />
    </g>
    <path
       d="m 116.95667,121.56225 h 0.24413 v -1.98336 h -0.24413 z"
       style="fill:#565353;fill-opacity:1;fill-rule:nonzero;stroke:none;stroke-width:0.70556939"
       id="path200"
       inkscape:connector-curvature="0" />
    <g
       id="g202"
       transform="matrix(0.70556941,0,0,-0.70556941,118.14803,121.56253)">
      <path
         d="M 0,0 H -0.346 V 2.504 H -1.051 V 2.811 H 0.708 V 2.504 H 0 Z"
         style="fill:#565353;fill-opacity:1;fill-rule:nonzero;stroke:none"
         id="path204"
         inkscape:connector-curvature="0" />
    </g>
    <g
       transform="matrix(0.70556941,0,0,-0.70556941,-151.35443,627.35603)"
       id="g206">
      <g
         id="g208"
         clip-path="url(#clipPath212)">
        <g
           id="g214"
           transform="translate(382.9529,719.6694)">
          <path
             d="m 0,0 h 0.346 v -1.976 c 0,-0.414 0.134,-0.607 0.477,-0.607 0.37,0 0.48,0.213 0.48,0.607 V 0 H 1.65 v -1.976 c 0,-0.54 -0.276,-0.89 -0.827,-0.89 C 0.26,-2.866 0,-2.555 0,-1.976 Z"
             style="fill:#565353;fill-opacity:1;fill-rule:nonzero;stroke:none"
             id="path216"
             inkscape:connector-curvature="0" />
        </g>
      </g>
    </g>
    <g
       id="g218"
       transform="matrix(0.70556941,0,0,-0.70556941,120.94843,121.56253)">
      <path
         d="M 0,0 H -0.346 V 2.504 H -1.051 V 2.811 H 0.708 V 2.504 H 0 Z"
         style="fill:#565353;fill-opacity:1;fill-rule:nonzero;stroke:none"
         id="path220"
         inkscape:connector-curvature="0" />
    </g>
    <g
       id="g222"
       transform="matrix(0.70556941,0,0,-0.70556941,122.2986,119.57931)">
      <path
         d="M 0,0 H 0.449 L 1.378,-2.346 H 1.386 V 0 H 1.732 V -2.811 H 1.256 L 0.354,-0.535 H 0.346 V -2.811 H 0 Z"
         style="fill:#565353;fill-opacity:1;fill-rule:nonzero;stroke:none"
         id="path224"
         inkscape:connector-curvature="0" />
    </g>
    <g
       id="g226"
       transform="matrix(0.70556941,0,0,-0.70556941,124.2814,119.57931)">
      <path
         d="M 0,0 H 0.464 L 1.22,-2.811 H 0.858 L 0.657,-2.039 H -0.24 L -0.449,-2.811 H -0.811 Z M -0.169,-1.756 H 0.587 L 0.228,-0.398 H 0.22 Z"
         style="fill:#565353;fill-opacity:1;fill-rule:nonzero;stroke:none"
         id="path228"
         inkscape:connector-curvature="0" />
    </g>
    <g
       id="g230"
       transform="matrix(0.70556941,0,0,-0.70556941,125.76147,121.56253)">
      <path
         d="m 0,0 h -0.346 v 2.504 h -0.705 v 0.307 h 1.76 V 2.504 H 0 Z"
         style="fill:#565353;fill-opacity:1;fill-rule:nonzero;stroke:none"
         id="path232"
         inkscape:connector-curvature="0" />
    </g>
    <path
       d="m 126.46986,121.56225 h 0.24413 v -1.98336 h -0.24413 z"
       style="fill:#565353;fill-opacity:1;fill-rule:nonzero;stroke:none;stroke-width:0.70556939"
       id="path234"
       inkscape:connector-curvature="0" />
    <g
       transform="matrix(0.70556941,0,0,-0.70556941,-151.35443,627.35603)"
       id="g236">
      <g
         id="g238"
         clip-path="url(#clipPath242)">
        <g
           id="g244"
           transform="translate(396.3253,718.264)">
          <path
             d="m 0,0 c 0,-0.709 -0.13,-1.461 -0.905,-1.461 -0.776,0 -0.906,0.752 -0.906,1.461 0,0.709 0.13,1.461 0.906,1.461 C -0.13,1.461 0,0.709 0,0 m -1.449,0 c 0,-0.65 0.063,-1.177 0.544,-1.177 0.48,0 0.543,0.527 0.543,1.177 0,0.65 -0.063,1.177 -0.543,1.177 C -1.386,1.177 -1.449,0.65 -1.449,0"
             style="fill:#565353;fill-opacity:1;fill-rule:nonzero;stroke:none"
             id="path246"
             inkscape:connector-curvature="0" />
        </g>
      </g>
    </g>
    <g
       id="g248"
       transform="matrix(0.70556941,0,0,-0.70556941,128.57034,119.57931)">
      <path
         d="M 0,0 H 0.449 L 1.378,-2.346 H 1.386 V 0 H 1.732 V -2.811 H 1.256 L 0.354,-0.535 H 0.346 V -2.811 H 0 Z"
         style="fill:#565353;fill-opacity:1;fill-rule:nonzero;stroke:none"
         id="path250"
         inkscape:connector-curvature="0" />
    </g>
    <g
       id="g252"
       transform="matrix(0.70556941,0,0,-0.70556941,130.55314,119.57931)">
      <path
         d="M 0,0 H 0.464 L 1.22,-2.811 H 0.858 L 0.657,-2.039 H -0.24 L -0.449,-2.811 H -0.811 Z M -0.169,-1.756 H 0.587 L 0.228,-0.398 H 0.22 Z"
         style="fill:#565353;fill-opacity:1;fill-rule:nonzero;stroke:none"
         id="path254"
         inkscape:connector-curvature="0" />
    </g>
    <g
       id="g256"
       transform="matrix(0.70556941,0,0,-0.70556941,131.60112,119.57931)">
      <path
         d="M 0,0 H 0.346 V -2.504 H 1.488 V -2.811 H 0 Z"
         style="fill:#565353;fill-opacity:1;fill-rule:nonzero;stroke:none"
         id="path258"
         inkscape:connector-curvature="0" />
    </g>
    <g
       transform="matrix(0.70556941,0,0,-0.70556941,-151.35443,627.35603)"
       id="g260">
      <g
         id="g262"
         clip-path="url(#clipPath266)">
        <g
           id="g268"
           transform="translate(373.4655,715.2944)">
          <path
             d="m 0,0 h 0.752 c 0.874,0 0.984,-0.63 0.984,-1.405 0,-0.709 -0.177,-1.406 -0.949,-1.406 H 0 Z m 0.346,-2.527 h 0.363 c 0.598,0 0.665,0.614 0.665,1.118 0,0.543 -0.035,1.126 -0.665,1.126 H 0.346 Z"
             style="fill:#565353;fill-opacity:1;fill-rule:nonzero;stroke:none"
             id="path270"
             inkscape:connector-curvature="0" />
        </g>
      </g>
    </g>
    <g
       id="g272"
       transform="matrix(0.70556941,0,0,-0.70556941,113.66223,122.66619)">
      <path
         d="M 0,0 H 1.453 V -0.307 H 0.346 V -1.189 H 1.39 V -1.496 H 0.346 V -2.504 H 1.5 V -2.811 H 0 Z"
         style="fill:#565353;fill-opacity:1;fill-rule:nonzero;stroke:none"
         id="path274"
         inkscape:connector-curvature="0" />
    </g>
    <g
       transform="matrix(0.70556941,0,0,-0.70556941,-151.35443,627.35603)"
       id="g276">
      <g
         id="g278"
         clip-path="url(#clipPath282)">
        <g
           id="g284"
           transform="translate(378.6376,714.5662)">
          <path
             d="m 0,0 c 0,0.295 -0.106,0.5 -0.437,0.5 -0.291,0 -0.464,-0.157 -0.464,-0.457 0,-0.791 1.326,-0.319 1.326,-1.346 0,-0.65 -0.476,-0.835 -0.874,-0.835 -0.657,0 -0.85,0.339 -0.85,0.937 h 0.346 c 0,-0.315 0.02,-0.653 0.528,-0.653 0.275,0 0.488,0.197 0.488,0.496 0,0.795 -1.327,0.334 -1.327,1.366 0,0.26 0.111,0.775 0.823,0.775 0.535,0 0.78,-0.267 0.787,-0.783 z"
             style="fill:#565353;fill-opacity:1;fill-rule:nonzero;stroke:none"
             id="path286"
             inkscape:connector-curvature="0" />
        </g>
        <g
           id="g288"
           transform="translate(381.5514,714.5662)">
          <path
             d="m 0,0 c 0,0.295 -0.106,0.5 -0.437,0.5 -0.291,0 -0.465,-0.157 -0.465,-0.457 0,-0.791 1.327,-0.319 1.327,-1.346 0,-0.65 -0.476,-0.835 -0.874,-0.835 -0.657,0 -0.85,0.339 -0.85,0.937 h 0.346 c 0,-0.315 0.02,-0.653 0.528,-0.653 0.275,0 0.488,0.197 0.488,0.496 0,0.795 -1.327,0.334 -1.327,1.366 0,0.26 0.11,0.775 0.823,0.775 0.535,0 0.779,-0.267 0.787,-0.783 z"
             style="fill:#565353;fill-opacity:1;fill-rule:nonzero;stroke:none"
             id="path290"
             inkscape:connector-curvature="0" />
        </g>
        <g
           id="g292"
           transform="translate(384.0441,713.4481)">
          <path
             d="m 0,0 c -0.031,-0.531 -0.24,-1.02 -0.854,-1.02 -0.8,0 -0.906,0.752 -0.906,1.461 0,0.709 0.13,1.46 0.906,1.46 0.574,0 0.815,-0.322 0.83,-0.874 h -0.362 c -0.008,0.319 -0.11,0.591 -0.468,0.591 -0.481,0 -0.544,-0.528 -0.544,-1.177 0,-0.65 0.063,-1.177 0.544,-1.177 0.421,0 0.48,0.394 0.492,0.736 z"
             style="fill:#565353;fill-opacity:1;fill-rule:nonzero;stroke:none"
             id="path294"
             inkscape:connector-curvature="0" />
        </g>
      </g>
    </g>
    <path
       d="m 119.8488,124.64983 h 0.24413 v -1.98408 h -0.24413 z"
       style="fill:#565353;fill-opacity:1;fill-rule:nonzero;stroke:none;stroke-width:0.70556939"
       id="path296"
       inkscape:connector-curvature="0" />
    <g
       id="g298"
       transform="matrix(0.70556941,0,0,-0.70556941,120.41728,122.66619)">
      <path
         d="M 0,0 H 1.453 V -0.307 H 0.346 V -1.189 H 1.39 V -1.496 H 0.346 V -2.504 H 1.5 V -2.811 H 0 Z"
         style="fill:#565353;fill-opacity:1;fill-rule:nonzero;stroke:none"
         id="path300"
         inkscape:connector-curvature="0" />
    </g>
    <g
       id="g302"
       transform="matrix(0.70556941,0,0,-0.70556941,121.70523,122.66619)">
      <path
         d="M 0,0 H 0.449 L 1.378,-2.346 H 1.386 V 0 H 1.732 V -2.811 H 1.256 L 0.354,-0.535 H 0.346 V -2.811 H 0 Z"
         style="fill:#565353;fill-opacity:1;fill-rule:nonzero;stroke:none"
         id="path304"
         inkscape:connector-curvature="0" />
    </g>
    <g
       transform="matrix(0.70556941,0,0,-0.70556941,-151.35443,627.35603)"
       id="g306">
      <g
         id="g308"
         clip-path="url(#clipPath312)">
        <g
           id="g314"
           transform="translate(390.9086,713.4481)">
          <path
             d="m 0,0 c -0.031,-0.531 -0.24,-1.02 -0.854,-1.02 -0.799,0 -0.906,0.752 -0.906,1.461 0,0.709 0.13,1.46 0.906,1.46 0.575,0 0.815,-0.322 0.831,-0.874 h -0.363 c -0.008,0.319 -0.11,0.591 -0.468,0.591 -0.48,0 -0.543,-0.528 -0.543,-1.177 0,-0.65 0.063,-1.177 0.543,-1.177 0.421,0 0.48,0.394 0.492,0.736 z"
             style="fill:#565353;fill-opacity:1;fill-rule:nonzero;stroke:none"
             id="path316"
             inkscape:connector-curvature="0" />
        </g>
      </g>
    </g>
    <g
       id="g318"
       transform="matrix(0.70556941,0,0,-0.70556941,124.69375,122.66619)">
      <path
         d="M 0,0 H 1.453 V -0.307 H 0.346 V -1.189 H 1.39 V -1.496 H 0.346 V -2.504 H 1.5 V -2.811 H 0 Z"
         style="fill:#565353;fill-opacity:1;fill-rule:nonzero;stroke:none"
         id="path320"
         inkscape:connector-curvature="0" />
    </g>
    <g
       transform="matrix(0.70556941,0,0,-0.70556941,-151.35443,627.35603)"
       id="g322">
      <g
         id="g324"
         clip-path="url(#clipPath328)">
        <g
           id="g330"
           transform="translate(394.2726,714.5662)">
          <path
             d="m 0,0 c 0,0.295 -0.106,0.5 -0.437,0.5 -0.291,0 -0.465,-0.157 -0.465,-0.457 0,-0.791 1.327,-0.319 1.327,-1.346 0,-0.65 -0.476,-0.835 -0.874,-0.835 -0.657,0 -0.85,0.339 -0.85,0.937 h 0.346 c 0,-0.315 0.02,-0.653 0.528,-0.653 0.275,0 0.488,0.197 0.488,0.496 0,0.795 -1.327,0.334 -1.327,1.366 0,0.26 0.11,0.775 0.823,0.775 0.535,0 0.78,-0.267 0.787,-0.783 z"
             style="fill:#565353;fill-opacity:1;fill-rule:nonzero;stroke:none"
             id="path332"
             inkscape:connector-curvature="0" />
        </g>
      </g>
    </g>
    <g
       id="g334"
       transform="matrix(0.70556941,0,0,-0.70556941,112.51526,125.75305)">
      <path
         d="M 0,0 H 0.464 L 1.22,-2.811 H 0.858 L 0.657,-2.039 H -0.24 L -0.449,-2.811 H -0.811 Z M -0.169,-1.756 H 0.587 L 0.228,-0.398 H 0.22 Z"
         style="fill:#565353;fill-opacity:1;fill-rule:nonzero;stroke:none"
         id="path336"
         inkscape:connector-curvature="0" />
    </g>
    <g
       transform="matrix(0.70556941,0,0,-0.70556941,-151.35443,627.35603)"
       id="g338">
      <g
         id="g340"
         clip-path="url(#clipPath344)">
        <g
           id="g346"
           transform="translate(375.4666,710.9194)">
          <path
             d="m 0,0 h 0.716 c 0.245,0 0.871,0 0.871,-0.807 0,-0.524 -0.335,-0.815 -0.811,-0.815 H 0.346 V -2.811 H 0 Z M 0.346,-1.338 H 0.76 c 0.252,0 0.464,0.173 0.464,0.547 0,0.307 -0.145,0.508 -0.488,0.508 h -0.39 z"
             style="fill:#565353;fill-opacity:1;fill-rule:nonzero;stroke:none"
             id="path348"
             inkscape:connector-curvature="0" />
        </g>
        <g
           id="g350"
           transform="translate(377.371,710.9194)">
          <path
             d="m 0,0 h 0.717 c 0.244,0 0.87,0 0.87,-0.807 0,-0.524 -0.335,-0.815 -0.811,-0.815 H 0.346 V -2.811 H 0 Z M 0.346,-1.338 H 0.76 c 0.252,0 0.464,0.173 0.464,0.547 0,0.307 -0.145,0.508 -0.488,0.508 h -0.39 z"
             style="fill:#565353;fill-opacity:1;fill-rule:nonzero;stroke:none"
             id="path352"
             inkscape:connector-curvature="0" />
        </g>
      </g>
    </g>
    <g
       id="g354"
       transform="matrix(0.70556941,0,0,-0.70556941,116.25075,125.75305)">
      <path
         d="M 0,0 H 0.346 V -2.504 H 1.488 V -2.811 H 0 Z"
         style="fill:#565353;fill-opacity:1;fill-rule:nonzero;stroke:none"
         id="path356"
         inkscape:connector-curvature="0" />
    </g>
    <path
       d="m 117.50913,127.73669 h 0.24484 v -1.98336 h -0.24484 z"
       style="fill:#565353;fill-opacity:1;fill-rule:nonzero;stroke:none;stroke-width:0.70556939"
       id="path358"
       inkscape:connector-curvature="0" />
    <g
       transform="matrix(0.70556941,0,0,-0.70556941,-151.35443,627.35603)"
       id="g360">
      <g
         id="g362"
         clip-path="url(#clipPath366)">
        <g
           id="g368"
           transform="translate(383.204,708.1953)">
          <path
             d="m 0,0 c -0.122,-0.091 -0.283,-0.142 -0.484,-0.142 -0.776,0 -0.906,0.752 -0.906,1.461 0,0.708 0.13,1.46 0.906,1.46 0.775,0 0.905,-0.752 0.905,-1.46 0,-0.406 -0.043,-0.827 -0.228,-1.11 l 0.283,-0.26 -0.193,-0.205 z m -0.5,0.453 0.193,0.212 0.26,-0.236 c 0.086,0.213 0.106,0.531 0.106,0.89 0,0.649 -0.063,1.177 -0.543,1.177 -0.48,0 -0.543,-0.528 -0.543,-1.177 0,-0.65 0.063,-1.177 0.543,-1.177 0.102,0 0.189,0.023 0.256,0.067 z"
             style="fill:#565353;fill-opacity:1;fill-rule:nonzero;stroke:none"
             id="path370"
             inkscape:connector-curvature="0" />
        </g>
        <g
           id="g372"
           transform="translate(384.0099,710.9194)">
          <path
             d="m 0,0 h 0.346 v -1.976 c 0,-0.414 0.134,-0.607 0.477,-0.607 0.37,0 0.48,0.213 0.48,0.607 V 0 h 0.346 v -1.976 c 0,-0.54 -0.275,-0.89 -0.826,-0.89 C 0.26,-2.866 0,-2.555 0,-1.976 Z"
             style="fill:#565353;fill-opacity:1;fill-rule:nonzero;stroke:none"
             id="path374"
             inkscape:connector-curvature="0" />
        </g>
      </g>
    </g>
    <g
       id="g376"
       transform="matrix(0.70556941,0,0,-0.70556941,121.06916,125.75305)">
      <path
         d="M 0,0 H 1.453 V -0.307 H 0.346 V -1.189 H 1.39 V -1.496 H 0.346 V -2.504 H 1.5 V -2.811 H 0 Z M 0.811,0.713 H 1.197 L 0.772,0.154 H 0.535 Z"
         style="fill:#565353;fill-opacity:1;fill-rule:nonzero;stroke:none"
         id="path378"
         inkscape:connector-curvature="0" />
    </g>
    <g
       id="g380"
       transform="matrix(0.70556941,0,0,-0.70556941,122.35718,125.75305)">
      <path
         d="M 0,0 H 1.453 V -0.307 H 0.346 V -1.189 H 1.39 V -1.496 H 0.346 V -2.504 H 1.5 V -2.811 H 0 Z"
         style="fill:#565353;fill-opacity:1;fill-rule:nonzero;stroke:none"
         id="path382"
         inkscape:connector-curvature="0" />
    </g>
    <g
       transform="matrix(0.70556941,0,0,-0.70556941,-151.35443,627.35603)"
       id="g384">
      <g
         id="g386"
         clip-path="url(#clipPath390)">
        <g
           id="g392"
           transform="translate(390.9608,710.1912)">
          <path
             d="m 0,0 c 0,0.295 -0.106,0.5 -0.437,0.5 -0.291,0 -0.464,-0.157 -0.464,-0.457 0,-0.791 1.326,-0.319 1.326,-1.346 0,-0.65 -0.476,-0.835 -0.874,-0.835 -0.657,0 -0.85,0.339 -0.85,0.937 h 0.346 c 0,-0.315 0.02,-0.653 0.528,-0.653 0.276,0 0.488,0.197 0.488,0.496 0,0.795 -1.327,0.334 -1.327,1.366 0,0.26 0.111,0.775 0.823,0.775 0.535,0 0.78,-0.267 0.787,-0.783 z"
             style="fill:#565353;fill-opacity:1;fill-rule:nonzero;stroke:none"
             id="path394"
             inkscape:connector-curvature="0" />
        </g>
      </g>
    </g>
    <g
       id="g396"
       transform="matrix(0.70556941,0,0,-0.70556941,112.1097,128.83991)">
      <path
         d="M 0,0 H 0.661 V -2.275 H 1.618 V -2.811 H 0 Z"
         style="fill:#565353;fill-opacity:1;fill-rule:nonzero;stroke:none"
         id="path398"
         inkscape:connector-curvature="0" />
    </g>
    <g
       id="g400"
       transform="matrix(0.70556941,0,0,-0.70556941,113.66766,130.04263)">
      <path
         d="M 0,0 -0.713,1.705 H 0.02 L 0.335,0.661 H 0.342 L 0.665,1.705 H 1.374 L 0.661,0 V -1.106 H 0 Z"
         style="fill:#565353;fill-opacity:1;fill-rule:nonzero;stroke:none"
         id="path402"
         inkscape:connector-curvature="0" />
    </g>
    <g
       transform="matrix(0.70556941,0,0,-0.70556941,-151.35443,627.35603)"
       id="g404">
      <g
         id="g406"
         clip-path="url(#clipPath410)">
        <g
           id="g412"
           transform="translate(378.1525,703.6785)">
          <path
             d="m 0,0 c -0.87,0 -0.988,0.567 -0.988,1.461 0,0.893 0.118,1.46 0.988,1.46 0.937,0 0.988,-0.681 0.988,-1.46 C 0.988,0.681 0.937,0 0,0 m -0.004,0.441 c 0.268,0 0.307,0.248 0.307,1.02 0,0.771 -0.039,1.019 -0.307,1.019 -0.26,0 -0.299,-0.248 -0.299,-1.019 0,-0.772 0.039,-1.02 0.299,-1.02"
             style="fill:#565353;fill-opacity:1;fill-rule:nonzero;stroke:none"
             id="path414"
             inkscape:connector-curvature="0" />
        </g>
      </g>
    </g>
    <g
       id="g416"
       transform="matrix(0.70556941,0,0,-0.70556941,116.46884,128.83991)">
      <path
         d="M 0,0 H 0.76 L 1.303,-1.827 H 1.311 V 0 H 1.925 V -2.811 H 1.177 L 0.598,-0.874 H 0.591 V -2.811 H 0 Z"
         style="fill:#565353;fill-opacity:1;fill-rule:nonzero;stroke:none"
         id="path418"
         inkscape:connector-curvature="0" />
    </g>
    <path
       d="m 109.89886,130.82425 h 0.22014 v -11.24606 h -0.22014 z"
       style="fill:#565353;fill-opacity:1;fill-rule:nonzero;stroke:none;stroke-width:0.70556939"
       id="path420"
       inkscape:connector-curvature="0" />
    <path
       d="m 81.882817,130.82779 h -2.942224 v -11.24396 h 2.942224 z"
       style="fill:#ee2922;fill-opacity:1;fill-rule:nonzero;stroke:none;stroke-width:0.70556939"
       id="path422"
       inkscape:connector-curvature="0" />
    <g
       id="g424"
       transform="matrix(0.70556941,0,0,-0.70556941,85.979777,119.58397)">
      <path
         d="M 0,0 2.691,-9.82 H 2.736 V 0 h 3.9 V -15.936 H 2.063 l -2.78,9.842 h -0.045 v -9.842 H -4.663 V 0 Z"
         style="fill:#ee2922;fill-opacity:1;fill-rule:nonzero;stroke:none"
         id="path426"
         inkscape:connector-curvature="0" />
    </g>
    <g
       transform="matrix(0.70556941,0,0,-0.70556941,-151.35443,627.35603)"
       id="g428">
      <g
         id="g430"
         clip-path="url(#clipPath434)">
        <g
           id="g436"
           transform="translate(350.5435,715.4449)">
          <path
             d="m 0,0 c 0,0.476 -0.099,0.882 -0.293,1.216 -0.194,0.336 -0.493,0.502 -0.896,0.502 -0.449,0 -0.778,-0.145 -0.986,-0.435 -0.211,-0.29 -0.314,-0.613 -0.314,-0.971 0,-0.52 0.168,-0.934 0.504,-1.239 0.336,-0.305 0.758,-0.568 1.266,-0.791 0.509,-0.224 1.054,-0.45 1.638,-0.681 0.582,-0.232 1.128,-0.532 1.636,-0.905 0.508,-0.372 0.931,-0.859 1.267,-1.461 0.336,-0.603 0.504,-1.388 0.504,-2.355 0,-1.697 -0.485,-2.928 -1.457,-3.694 -0.972,-0.768 -2.377,-1.15 -4.215,-1.15 -0.867,0 -1.633,0.072 -2.299,0.212 -0.664,0.142 -1.226,0.387 -1.681,0.737 -0.456,0.349 -0.804,0.807 -1.042,1.374 -0.239,0.565 -0.358,1.264 -0.358,2.097 v 0.559 h 4.035 v -0.381 c 0,-0.685 0.127,-1.164 0.38,-1.439 0.255,-0.277 0.583,-0.414 0.987,-0.414 0.434,0 0.765,0.15 0.998,0.447 0.231,0.297 0.348,0.661 0.348,1.094 0,0.519 -0.162,0.933 -0.483,1.237 -0.322,0.306 -0.725,0.567 -1.21,0.783 -0.486,0.214 -1.013,0.435 -1.58,0.658 -0.57,0.223 -1.097,0.513 -1.582,0.87 -0.486,0.358 -0.889,0.826 -1.21,1.408 -0.323,0.578 -0.483,1.338 -0.483,2.275 0,1.622 0.434,2.857 1.301,3.706 0.867,0.847 2.182,1.272 3.946,1.272 1.823,0 3.142,-0.391 3.957,-1.172 C 3.493,2.578 3.9,1.331 3.9,-0.38 H 0 Z"
             style="fill:#ee2922;fill-opacity:1;fill-rule:nonzero;stroke:none"
             id="path438"
             inkscape:connector-curvature="0" />
        </g>
      </g>
    </g>
    <g
       id="g440"
       transform="matrix(0.70556941,0,0,-0.70556941,105.15285,119.58347)">
      <path
         d="m 0,0 3.901,-15.937 h -4.438 l -0.427,2.79 h -3.318 l -0.427,-2.79 H -9.081 L -5.246,0 Z m -2.645,-3.259 -1.144,-6.762 h 2.332 l -1.145,6.762 z"
         style="fill:#ee2922;fill-opacity:1;fill-rule:nonzero;stroke:none"
         id="path442"
         inkscape:connector-curvature="0" />
    </g>
    <g
       id="g444"
       transform="matrix(0.70556941,0,0,-0.70556941,105.91296,119.57855)">
      <path
         d="M 0,0 H 2.825 V -11.967 Z"
         style="fill:#565353;fill-opacity:1;fill-rule:nonzero;stroke:none"
         id="path446"
         inkscape:connector-curvature="0" />
    </g>
  </g>
</svg>
