<?xml version="1.0" encoding="utf-8"?>
<!-- Generator: Adobe Illustrator 22.1.0, SVG Export Plug-In . SVG Version: 6.00 Build 0)  -->
<svg version="1.1" id="Layer_1" xmlns="http://www.w3.org/2000/svg" xmlns:xlink="http://www.w3.org/1999/xlink" x="0px" y="0px"
	 viewBox="0 0 119.8 94.3" style="enable-background:new 0 0 119.8 94.3;" xml:space="preserve">
<style type="text/css">
	.st0{fill:#FFFFFF;stroke:#000000;stroke-miterlimit:10;}
	.st1{fill:#1D1E1C;}
	.st2{clip-path:url(#SVGID_2_);}
	.st3{fill:#000091;}
	.st4{fill:#E1000F;}
	.st5{fill:#9C9C9A;}
</style>
<rect y="0" class="st0" width="119.8" height="94.3"/>
<title>Ministère-Éducation-Nationale-Jeunesse</title>
<polygon class="st1" points="0,18 2.3,18 4.5,21.7 6.7,18 9,18 9,27.1 7.2,27.1 7.2,20.6 5.2,24 3.9,24 1.9,20.6 1.9,27.1 0,27.1 
	"/>
<rect x="11.6" y="18" class="st1" width="1.8" height="9"/>
<polygon class="st1" points="15.9,18 18.3,18 22.3,24.5 22.3,18 24.1,18 24.1,27.1 21.8,27.1 17.8,20.6 17.8,27.1 15.9,27.1 "/>
<rect x="26.7" y="18" class="st1" width="1.8" height="9"/>
<g>
	<defs>
		<rect id="SVGID_1_" x="-48.2" y="-47.9" width="595.3" height="841.9"/>
	</defs>
	<clipPath id="SVGID_2_">
		<use xlink:href="#SVGID_1_"  style="overflow:visible;"/>
	</clipPath>
	<g class="st2">
		<path class="st1" d="M31.6,24.6c0.5,0.7,1.2,1.1,2,1.1c0.5,0.1,1.1-0.3,1.1-0.8c0-0.1,0-0.1,0-0.2c0-1.6-4.1-1.3-4.1-4.3
			c0-1.5,1.3-2.7,2.8-2.6c0,0,0.1,0,0.1,0c1.2,0,2.4,0.6,3.2,1.5l-1.3,1.2c-0.4-0.6-1.1-1.1-1.8-1.1c-0.5,0-1,0.4-1,1
			c0,1.6,4.1,1.2,4.1,4.3c0,1.5-1.3,2.7-2.8,2.7c-0.1,0-0.1,0-0.2,0c-1.3,0.1-2.5-0.5-3.4-1.5L31.6,24.6z"/>
		<polygon class="st1" points="37.5,18 44.9,18 44.9,19.7 42.2,19.7 42.2,27.1 40.3,27.1 40.3,19.7 37.5,19.7 		"/>
		<path class="st1" d="M46.6,18h5.3v1.6h-3.4v2.1h2.9v1.6h-2.9v2.3h3.4v1.6h-5.3V18z M46.7,15.5h1.9l1.5,1.7h-1.7L46.7,15.5z"/>
		<path class="st1" d="M54,18h2.8c2,0,3.2,1,3.2,2.7c0,1-0.5,1.9-1.5,2.3l2.8,4h-2.2l-2.4-3.6h-0.9V27H54V18z M55.8,19.6v2.3h1
			c0.6,0,1.1-0.5,1.1-1.1c0-0.6-0.5-1.1-1.1-1.1l0,0H55.8z"/>
		<polygon class="st1" points="62.5,18 67.8,18 67.8,19.6 64.3,19.6 64.3,21.7 67.2,21.7 67.2,23.2 64.3,23.2 64.3,25.5 67.8,25.5 
			67.8,27.1 62.5,27.1 		"/>
		<path class="st1" d="M0,31.1h3.6c2.5-0.1,4.6,1.8,4.7,4.3C8.4,37.9,6.5,40,4,40.1c-0.1,0-0.3,0-0.4,0H0V31.1z M1.8,32.7v5.7h1.8
			c1.6,0.1,2.9-1.1,3-2.7c0.1-1.6-1.1-2.9-2.7-3c-0.1,0-0.2,0-0.3,0H1.8z"/>
		<polygon class="st1" points="10.2,31.1 15.4,31.1 15.4,32.6 12,32.6 12,34.7 14.9,34.7 14.9,36.3 12,36.3 12,38.5 15.4,38.5 
			15.4,40.1 10.2,40.1 		"/>
		<polygon class="st1" points="20.9,31.1 22.8,31.1 22.8,38.4 26.2,38.4 26.2,40.1 20.9,40.1 		"/>
		<polygon class="st1" points="25.8,34.8 27,31.1 28.8,31.1 27.3,34.8 		"/>
		<path class="st1" d="M30.3,31.1h5.3v1.6h-3.4v2.1H35v1.6h-2.9v2.3h3.4v1.6h-5.3V31.1z M32,30.3l1.5-1.8h1.9l-1.7,1.8H32z"/>
		<path class="st1" d="M37.7,31.1h3.5c2.5-0.1,4.6,1.8,4.7,4.3s-1.8,4.6-4.3,4.7c-0.1,0-0.3,0-0.4,0h-3.5V31.1z M39.5,32.7v5.7h1.8
			c1.6,0.1,2.9-1.1,3-2.7c0.1-1.6-1.1-2.9-2.7-3c-0.1,0-0.2,0-0.3,0H39.5z"/>
		<path class="st1" d="M53.1,31.1H55v5.5c0.1,2-1.4,3.8-3.5,3.9c-2,0.1-3.8-1.4-3.9-3.5c0-0.1,0-0.3,0-0.4v-5.5h1.8v5.7
			c0,1,0.8,1.8,1.8,1.8c1,0,1.8-0.8,1.8-1.8c0,0,0,0,0,0L53.1,31.1z"/>
		<path class="st1" d="M63.8,37.4l1.4,1.1c-0.9,1.2-2.3,1.9-3.8,1.8c-2.6,0-4.8-2.2-4.8-4.8c0-2.6,2.2-4.8,4.8-4.8
			c1.5,0,2.8,0.7,3.7,1.8l-1.5,1.1c-0.5-0.8-1.4-1.2-2.4-1.2c-1.7,0.1-3,1.5-2.9,3.2c0.1,1.6,1.3,2.8,2.9,2.9
			C62.3,38.7,63.2,38.2,63.8,37.4"/>
		<path class="st1" d="M69,31.1h2.4l3.4,9.1h-2L72,37.8h-3.6l-0.9,2.3h-2L69,31.1z M71.4,36.2l-1.2-3.4L69,36.2H71.4z"/>
		<polygon class="st1" points="74.4,31.1 81.8,31.1 81.8,32.7 79,32.7 79,40.1 77.2,40.1 77.2,32.7 74.4,32.7 		"/>
		<rect x="83.4" y="31.1" class="st1" width="1.8" height="9.1"/>
		<path class="st1" d="M96.6,35.6c0,2.7-2.1,4.8-4.8,4.8S87,38.3,87,35.6s2.1-4.8,4.8-4.8c0,0,0,0,0,0c2.6-0.1,4.7,2,4.8,4.6
			C96.6,35.5,96.6,35.5,96.6,35.6 M94.7,35.6c-0.1-1.6-1.4-2.9-3.1-2.8c-1.6,0.1-2.9,1.4-2.8,3.1c0.1,1.6,1.4,2.8,2.9,2.8
			c1.6,0,2.9-1.3,2.9-2.9C94.7,35.7,94.7,35.6,94.7,35.6"/>
		<polygon class="st1" points="98.4,31.1 100.7,31.1 104.8,37.5 104.8,31.1 106.6,31.1 106.6,40.1 104.3,40.1 100.2,33.6 
			100.2,40.1 98.4,40.1 		"/>
		<polygon class="st1" points="0,44.1 2.4,44.1 6.4,50.6 6.4,44.1 8.3,44.1 8.3,53.2 5.9,53.2 1.9,46.7 1.9,53.2 0,53.2 		"/>
		<path class="st1" d="M13.1,44.1h2.4l3.4,9H17l-0.9-2.4h-3.6l-0.9,2.4H9.7L13.1,44.1z M15.5,49.2l-1.2-3.4L13,49.2H15.5z"/>
		<polygon class="st1" points="18.5,44.1 25.9,44.1 25.9,45.8 23.1,45.8 23.1,53.2 21.3,53.2 21.3,45.8 18.5,45.8 		"/>
		<rect x="27.5" y="44.1" class="st1" width="1.8" height="9"/>
		<path class="st1" d="M40.7,48.6c0,2.7-2.1,4.8-4.8,4.8s-4.8-2.1-4.8-4.8c0-2.7,2.1-4.8,4.8-4.8c0,0,0,0,0,0c2.6-0.1,4.7,2,4.8,4.6
			C40.7,48.5,40.7,48.6,40.7,48.6 M38.8,48.6c-0.1-1.6-1.4-2.9-3.1-2.8c-1.6,0.1-2.9,1.4-2.8,3.1c0.1,1.6,1.4,2.8,2.9,2.8
			c1.6,0,2.9-1.3,2.9-2.9C38.8,48.7,38.8,48.7,38.8,48.6"/>
		<polygon class="st1" points="42.5,44.1 44.8,44.1 48.9,50.6 48.9,44.1 50.7,44.1 50.7,53.2 48.3,53.2 44.3,46.7 44.3,53.2 
			42.5,53.2 		"/>
		<path class="st1" d="M55.5,44.1h2.4l3.4,9h-2l-0.9-2.4h-3.6L54,53.2h-1.9L55.5,44.1z M58,49.2l-1.2-3.4l-1.2,3.4H58z"/>
		<polygon class="st1" points="62.7,44.1 64.6,44.1 64.6,51.5 68,51.5 68,53.2 62.7,53.2 		"/>
		<polygon class="st1" points="69.6,44.1 74.9,44.1 74.9,45.7 71.5,45.7 71.5,47.8 74.4,47.8 74.4,49.3 71.5,49.3 71.5,51.6 
			74.9,51.6 74.9,53.2 69.6,53.2 		"/>
		<polygon class="st1" points="0,57.2 5.3,57.2 5.3,58.7 1.9,58.7 1.9,60.8 4.8,60.8 4.8,62.4 1.9,62.4 1.9,64.6 5.3,64.6 5.3,66.2 
			0,66.2 		"/>
		<polygon class="st1" points="6.7,57.2 14.1,57.2 14.1,58.8 11.3,58.8 11.3,66.2 9.5,66.2 9.5,58.8 6.7,58.8 		"/>
		<path class="st1" d="M19.1,57.2h3.6c2.5-0.1,4.6,1.8,4.7,4.3s-1.8,4.6-4.3,4.7c-0.1,0-0.3,0-0.4,0h-3.6V57.2z M20.9,58.8v5.7h1.7
			c1.6,0.1,2.9-1.1,3-2.7c0.1-1.6-1.1-2.9-2.7-3c-0.1,0-0.2,0-0.3,0H20.9z"/>
		<polygon class="st1" points="29.2,57.2 34.5,57.2 34.5,58.7 31.1,58.7 31.1,60.8 34,60.8 34,62.4 31.1,62.4 31.1,64.6 34.5,64.6 
			34.5,66.2 29.2,66.2 		"/>
		<polygon class="st1" points="40,57.2 41.8,57.2 41.8,64.5 45.3,64.5 45.3,66.2 40,66.2 		"/>
		<path class="st1" d="M49.6,57.2H52l3.4,9.1h-2l-0.9-2.3H49l-0.9,2.3h-2L49.6,57.2z M52,62.3l-1.2-3.4l-1.2,3.4H52z"/>
		<path class="st1" d="M59.3,68.4c-0.2,0-0.5,0-0.7,0v-1.7c0.2,0,0.3,0,0.5,0c0.8,0,1.2-0.3,1.2-1.3v-8.3h1.8v8.3
			C62.1,67.5,61.2,68.5,59.3,68.4"/>
		<polygon class="st1" points="64.7,57.2 69.9,57.2 69.9,58.7 66.5,58.7 66.5,60.8 69.4,60.8 69.4,62.4 66.5,62.4 66.5,64.6 
			69.9,64.6 69.9,66.2 64.7,66.2 		"/>
		<path class="st1" d="M77.3,57.2h1.8v5.5c0.1,2-1.4,3.8-3.5,3.9S72,65.1,71.8,63c0-0.1,0-0.3,0-0.4v-5.5h1.8v5.7
			c-0.1,1,0.7,1.9,1.7,2c1,0.1,1.9-0.7,2-1.7c0-0.1,0-0.2,0-0.3L77.3,57.2z"/>
		<polygon class="st1" points="81.4,57.2 83.8,57.2 87.8,63.6 87.8,57.2 89.7,57.2 89.7,66.2 87.3,66.2 83.3,59.7 83.3,66.2 
			81.4,66.2 		"/>
		<polygon class="st1" points="92.2,57.2 97.5,57.2 97.5,58.7 94.1,58.7 94.1,60.8 97,60.8 97,62.4 94.1,62.4 94.1,64.6 97.5,64.6 
			97.5,66.2 92.2,66.2 		"/>
		<path class="st1" d="M100.1,63.7c0.5,0.7,1.2,1.1,2,1.1c0.5,0.1,1.1-0.3,1.1-0.8c0-0.1,0-0.1,0-0.2c0-1.6-4.1-1.3-4.1-4.3
			c0-1.5,1.3-2.7,2.8-2.6c0,0,0.1,0,0.1,0c1.2,0,2.4,0.6,3.2,1.5l-1.3,1.2c-0.4-0.6-1.1-1.1-1.8-1.1c-0.5,0-1,0.4-1,0.9
			c0,1.6,4.1,1.2,4.1,4.3c0,1.5-1.3,2.7-2.8,2.7c-0.1,0-0.1,0-0.2,0c-1.3,0.1-2.6-0.5-3.4-1.5L100.1,63.7z"/>
		<path class="st1" d="M107.5,63.7c0.5,0.7,1.2,1.1,2,1.1c0.5,0.1,1.1-0.3,1.1-0.8c0-0.1,0-0.1,0-0.2c0-1.6-4.1-1.3-4.1-4.3
			c0-1.5,1.3-2.7,2.8-2.6c0,0,0.1,0,0.1,0c1.2,0,2.4,0.6,3.2,1.5l-1.3,1.2c-0.4-0.6-1.1-1.1-1.8-1.1c-0.5,0-1,0.4-1,0.9
			c0,1.6,4.1,1.2,4.1,4.3c0,1.5-1.3,2.7-2.8,2.7c-0.1,0-0.1,0-0.2,0c-1.3,0.1-2.6-0.5-3.4-1.5L107.5,63.7z"/>
		<polygon class="st1" points="114.5,57.2 119.8,57.2 119.8,58.7 116.3,58.7 116.3,60.8 119.2,60.8 119.2,62.4 116.3,62.4 
			116.3,64.6 119.8,64.6 119.8,66.2 114.5,66.2 		"/>
		<path class="st1" d="M29.5,91.2c0.2,0,0.5,0.2,0.4,0.7l-1.1,0.3C28.9,91.6,29.2,91.2,29.5,91.2 M30.1,93.1h-0.2
			c-0.2,0.3-0.5,0.5-0.9,0.6c-0.3,0-0.5-0.2-0.5-0.6c0-0.2,0-0.3,0-0.5l1.8-0.6c0.4-0.8-0.1-1.2-0.6-1.2c-0.8,0-1.8,1.4-1.8,2.7
			c0,0.6,0.3,0.9,0.7,0.9S29.7,93.8,30.1,93.1 M29.8,90.4l1.2-1.2V89h-0.7l-0.8,1.3L29.8,90.4z M25.8,91.2h0.6l-1,2.7
			c-0.1,0.2,0,0.3,0.1,0.4c0,0,0.1,0,0.1,0c0.8-0.1,1.5-0.6,1.8-1.3h-0.2c-0.3,0.3-0.7,0.6-1.1,0.7l0.9-2.4h0.9l0.1-0.4h-0.9
			l0.3-0.9h-0.4l-0.6,0.9L25.8,91L25.8,91.2z M25,91.1c0.1-0.1,0-0.3-0.1-0.4c0,0-0.1,0-0.1,0c-0.7,0.1-1.2,0.5-1.4,1.2h0.2
			c0.2-0.3,0.4-0.5,0.7-0.6l-1,2.6c-0.1,0.1,0,0.3,0.1,0.4c0,0,0.1,0,0.1,0c0.6-0.1,1.1-0.5,1.3-1.2h-0.2c-0.2,0.3-0.4,0.5-0.7,0.6
			L25,91.1z M25.2,89.8c0.2,0,0.4-0.2,0.4-0.4c0-0.2-0.2-0.4-0.4-0.4c-0.2,0-0.4,0.2-0.4,0.4S24.9,89.8,25.2,89.8
			C25.2,89.8,25.2,89.8,25.2,89.8 M19.3,93.8c-0.1,0.3,0,0.5,0.3,0.5c0.2,0,0.3-0.1,0.3-0.2l0.7-1.9c0.3-0.4,0.8-0.7,1.3-0.8
			c0.2,0,0.2,0.2,0,0.4l-1.1,2.1c-0.1,0.1,0,0.3,0.1,0.4c0,0,0.1,0,0.2,0c0.7-0.1,1.2-0.5,1.4-1.2h-0.2c-0.2,0.3-0.4,0.5-0.7,0.6
			l0.9-1.9c0.1-0.2,0.2-0.4,0.2-0.7c0-0.3-0.2-0.5-0.4-0.5c0,0,0,0-0.1,0c-0.5,0-0.9,0.5-1.5,1.2v-0.5c0-0.3-0.1-0.7-0.4-0.7
			s-0.4,0.2-0.6,0.4v0.1c0.4,0,0.5,0.5,0.3,1L19.3,93.8z M19.3,91.5c0.1-0.4,0-0.8-0.3-0.8s-0.5,0.3-0.9,1.2v-0.5
			c0-0.3-0.1-0.7-0.4-0.7s-0.7,0.6-1,1.2h0.2c0.2-0.3,0.3-0.4,0.5-0.4s0.2,0.3,0,0.8l-0.7,1.6c-0.1,0.3,0,0.5,0.3,0.5
			c0.2,0,0.3-0.1,0.3-0.2l0.7-1.9c0.2-0.2,0.4-0.4,0.6-0.7H19.3z M15.3,91.2c0.3,0,0.5,0.2,0.4,0.7l-1.1,0.3
			C14.7,91.6,15,91.2,15.3,91.2 M15.9,93.1h-0.2c-0.2,0.3-0.5,0.5-0.9,0.6c-0.3,0-0.5-0.2-0.5-0.6c0-0.2,0-0.3,0-0.5l1.8-0.6
			c0.4-0.8-0.1-1.2-0.6-1.2c-0.9,0-1.9,1.4-1.9,2.7c0,0.6,0.3,0.9,0.7,0.9S15.4,93.8,15.9,93.1 M11.5,91.2h0.6l-1,2.7
			c-0.1,0.2,0,0.3,0.1,0.4c0,0,0.1,0,0.1,0c0.8-0.1,1.5-0.6,1.8-1.3H13c-0.3,0.3-0.7,0.6-1.1,0.7l0.9-2.5h0.9l0.1-0.4h-0.9l0.3-0.9
			h-0.4l-0.6,0.9L11.5,91V91.2z M8.1,93.3c0-0.8,0.9-1.9,1.4-1.9c0.1,0,0.2,0,0.3,0l-0.5,1.4c-0.3,0.4-0.8,0.8-1,0.8
			S8.1,93.5,8.1,93.3 M10.9,90.5h-0.3l-0.3,0.3h-0.1c-1.5,0.2-2.7,1.4-2.8,2.9c0,0.3,0.2,0.5,0.4,0.5c0,0,0.1,0,0.1,0
			c0.4,0,0.8-0.6,1.2-1.2v0.2c0,0.6,0.1,1,0.4,1s0.7-0.6,1-1.2h-0.2c-0.2,0.3-0.4,0.4-0.5,0.4s-0.2-0.3,0-0.8L10.9,90.5z M7.7,91.5
			c0.1-0.4,0.1-0.8-0.3-0.8S7,91,6.6,91.9v-0.5c0-0.3-0.1-0.7-0.4-0.7s-0.7,0.6-1,1.2h0.2c0.2-0.3,0.3-0.4,0.5-0.4s0.3,0.3,0,0.8
			l-0.7,1.6c-0.1,0.3,0,0.5,0.3,0.5c0.2,0,0.3-0.1,0.3-0.2l0.7-1.9C6.6,92,6.8,91.8,7,91.5L7.7,91.5z M2.6,94.2L2.7,94
			c-0.9-0.2-1-0.2-0.7-1.1l0.4-1h1c0.4,0,0.4,0.2,0.4,0.7H4l0.6-1.6H4.4c-0.2,0.4-0.4,0.7-0.9,0.7h-1L3,90.2
			c0.2-0.4,0.3-0.5,0.8-0.5h0.4c0.6,0,0.7,0.2,0.7,0.8h0.3l0.2-1.1H1.8l-0.1,0.2c0.7,0.1,0.8,0.2,0.4,1.1l-0.8,2.2
			c-0.4,0.9-0.5,1-1.3,1.1L0,94.2L2.6,94.2z"/>
		<path class="st1" d="M20.6,82.9c0.2,0,0.5,0.2,0.3,0.7l-1.1,0.3C20,83.3,20.3,82.9,20.6,82.9 M21.2,84.8H21
			c-0.2,0.3-0.5,0.5-0.9,0.6c-0.3,0-0.5-0.2-0.5-0.6c0-0.2,0-0.3,0-0.5l1.8-0.6c0.4-0.8-0.1-1.2-0.6-1.2c-0.9,0-1.9,1.4-1.9,2.7
			c0,0.6,0.3,0.9,0.7,0.9S20.8,85.5,21.2,84.8 M20.9,82.1l1.3-1.2v-0.1h-0.7l-0.8,1.3H20.9z M16.9,82.9h0.6l-1,2.6
			c-0.1,0.1,0,0.3,0.1,0.4c0,0,0.1,0,0.1,0c0.8-0.1,1.4-0.6,1.8-1.3h-0.2c-0.3,0.3-0.7,0.6-1.1,0.7l0.9-2.5H19l0.1-0.4h-0.9l0.3-1
			h-0.4l-0.6,1l-0.8,0.1L16.9,82.9z M16,82.8c0.1-0.1,0-0.3-0.1-0.4c0,0-0.1,0-0.1,0c-0.7,0.1-1.2,0.5-1.4,1.1h0.2
			c0.2-0.3,0.4-0.5,0.7-0.6l-1,2.6c-0.1,0.1,0,0.3,0.1,0.4c0,0,0.1,0,0.1,0c0.6-0.1,1.2-0.5,1.4-1.2h-0.2c-0.2,0.3-0.4,0.5-0.7,0.6
			L16,82.8z M16.2,81.5c0.2,0,0.4-0.2,0.4-0.4c0-0.2-0.2-0.4-0.4-0.4c-0.2,0-0.4,0.2-0.4,0.4S16,81.5,16.2,81.5L16.2,81.5
			 M12.7,85.5l1.9-4.8l-0.1-0.1l-1.2,0.1v0.1l0.2,0.2c0.2,0.2,0.1,0.3-0.1,0.8l-1.4,3.8C12,85.8,12,86,12.2,86c0,0,0.1,0,0.1,0
			c0.6-0.1,1.2-0.5,1.4-1.2h-0.2C13.3,85.2,13,85.4,12.7,85.5 M9.2,85c0-0.8,0.9-1.9,1.4-1.9c0.1,0,0.2,0,0.3,0l-0.5,1.4
			c-0.3,0.4-0.8,0.8-1,0.8S9.2,85.2,9.2,85 M12,82.3h-0.3l-0.3,0.3h-0.1c-1.5,0.2-2.7,1.4-2.8,2.9c0,0.3,0.2,0.5,0.4,0.6
			c0,0,0.1,0,0.1,0c0.4,0,0.8-0.6,1.2-1.2v0.2c-0.1,0.6,0.1,1,0.4,1s0.7-0.6,1-1.2h-0.2c-0.2,0.3-0.3,0.4-0.5,0.4s-0.2-0.3,0-0.8
			L12,82.3z M5.3,86.7c0-0.3,0.3-0.6,0.8-0.8c0.2,0.1,0.5,0.2,0.7,0.3c0.5,0.2,0.7,0.2,0.7,0.4c0,0.3-0.6,0.6-1.3,0.6
			S5.3,87,5.3,86.7 M6.6,84.5c-0.2,0-0.3-0.2-0.3-0.4c0-0.6,0.3-1.5,0.8-1.5c0.2,0,0.3,0.2,0.3,0.4C7.4,83.7,7.1,84.5,6.6,84.5
			 M8.1,86.3c0-0.4-0.4-0.6-1-0.8s-0.8-0.2-0.8-0.4s0.1-0.3,0.3-0.4c0.8-0.1,1.4-0.7,1.4-1.5c0-0.1,0-0.2-0.1-0.4h0.7l0.1-0.4H7.7
			c-0.1-0.1-0.3-0.1-0.5-0.1c-0.8,0-1.5,0.6-1.5,1.5c0,0.4,0.3,0.8,0.7,0.9C6,85,5.7,85.2,5.7,85.5c0,0.1,0.1,0.3,0.2,0.4
			c-1,0.3-1.4,0.6-1.4,1.1s0.6,0.7,1.3,0.7C7,87.6,8.1,86.9,8.1,86.3 M3.4,83.5c0.4,0,0.5,0.2,0.4,0.7h0.3l0.6-1.6H4.4
			C4.2,83,4,83.2,3.5,83.2h-1L3,81.9c0.2-0.4,0.3-0.5,0.8-0.5h0.4c0.6,0,0.7,0.2,0.7,0.8h0.3l0.2-1.1H1.8l-0.1,0.2
			c0.7,0.1,0.8,0.2,0.4,1.1l-0.8,2.2c-0.4,0.9-0.5,1-1.3,1.1L0,85.9h4.1l0.7-1.2H4.6c-0.5,0.5-1.2,0.8-1.9,0.8c-1.1,0-1,0-0.6-1
			l0.4-1.1L3.4,83.5z M4,80.7l1.3-0.9v-0.1H4.5l-0.7,1L4,80.7z"/>
		<path class="st1" d="M20.2,74.6c0.2,0,0.5,0.2,0.3,0.7l-1.1,0.3C19.6,75,19.9,74.6,20.2,74.6 M20.8,76.5h-0.2
			c-0.2,0.3-0.5,0.5-0.9,0.6c-0.3,0-0.5-0.2-0.5-0.6c0-0.2,0-0.3,0.1-0.5l1.8-0.6c0.4-0.8-0.1-1.2-0.6-1.2c-0.9,0-1.9,1.4-1.9,2.7
			c0,0.6,0.3,0.9,0.7,0.9S20.4,77.3,20.8,76.5 M20.4,73.8l1.3-1.2v-0.1H21l-0.8,1.3H20.4z M16.6,74.6h0.5l-1,2.6
			c-0.1,0.1,0,0.3,0.1,0.4c0,0,0.1,0,0.2,0c0.8-0.1,1.4-0.6,1.8-1.3H18c-0.3,0.3-0.7,0.6-1.1,0.7l0.9-2.5h0.9l0.1-0.4h-0.9l0.3-1
			h-0.4l-0.6,1l-0.6,0.1L16.6,74.6z M16.1,74.9c0.1-0.4,0.1-0.8-0.3-0.8s-0.5,0.3-0.9,1.2v-0.5c0-0.3-0.1-0.7-0.4-0.7
			s-0.7,0.6-1,1.1h0.2c0.2-0.3,0.4-0.4,0.5-0.4s0.3,0.3,0,0.8l-0.7,1.6c-0.1,0.3,0,0.5,0.3,0.5c0.2,0,0.3-0.1,0.3-0.2l0.7-1.9
			c0.2-0.2,0.4-0.5,0.6-0.7L16.1,74.9z M12.1,74.6c0.3,0,0.5,0.2,0.4,0.7l-1.1,0.3C11.5,75,11.8,74.6,12.1,74.6 M12.7,76.5h-0.2
			c-0.2,0.3-0.5,0.5-0.9,0.6c-0.3,0-0.5-0.2-0.5-0.6c0-0.2,0-0.3,0.1-0.5l1.8-0.6c0.4-0.8-0.1-1.2-0.6-1.2c-0.9,0-1.9,1.4-1.9,2.7
			c0,0.6,0.3,0.9,0.7,0.9S12.3,77.3,12.7,76.5 M8.2,77.2c-0.2,0-0.4-0.2-0.4-0.3c0-0.2,0.1-0.3,0.2-0.5l0.3-0.8
			c0.3-0.4,0.8-0.8,1.1-0.8s0.3,0.1,0.3,0.3C9.6,75.9,8.9,77.2,8.2,77.2 M10.3,74.8c0-0.5-0.2-0.7-0.6-0.7s-0.9,0.5-1.3,1.1l1.1-2.9
			l-0.1-0.1l-1.2,0.1v0.1l0.2,0.2c0.2,0.2,0.1,0.3-0.1,0.8l-1.2,3.1c-0.1,0.2-0.1,0.4-0.2,0.6c0,0.3,0.4,0.6,0.8,0.6
			C8.8,77.7,10.3,76.1,10.3,74.8 M6.7,74.5c0.1-0.3-0.1-0.4-0.2-0.4c-0.7,0.1-1.2,0.5-1.4,1.1h0.2C5.4,75,5.7,74.8,6,74.7l-1,2.6
			c-0.1,0.1,0,0.3,0.1,0.4c0,0,0.1,0,0.1,0c0.6-0.1,1.1-0.6,1.3-1.1H6.3c-0.2,0.3-0.4,0.5-0.7,0.6L6.7,74.5z M6.9,73.2
			c0.2,0,0.4-0.2,0.4-0.4c0-0.2-0.2-0.4-0.4-0.4c0,0,0,0,0,0c-0.2,0-0.4,0.2-0.4,0.4C6.4,73,6.6,73.2,6.9,73.2L6.9,73.2 M4.2,72.8
			H1.8L1.7,73c0.7,0.2,0.8,0.2,0.4,1.1l-0.8,2.2c-0.3,0.9-0.5,1-1.3,1.1L0,77.6h3.7l0.8-1.4H4.2c-0.4,0.6-1.1,1-1.8,1.1
			c-0.6,0-0.7-0.1-0.4-1l0.8-2.2c0.3-0.9,0.5-1,1.3-1.1L4.2,72.8z"/>
		<path class="st3" d="M13.7,10.6c0.1-0.1,0.3-0.3,0.4-0.4l0,0c0.2-0.3,0.5-0.5,0.8-0.8c0.1-0.1,0.2-0.1,0.3-0.2c0,0,0-0.1,0-0.1
			s-0.2,0.1-0.3,0.2s-0.1,0,0-0.1L15,9.1l0,0l0,0c-0.3,0-0.5,0.2-0.7,0.3c0,0-0.1,0-0.1,0c-0.3,0.1-0.6,0.4-0.9,0.6V9.9
			C13.1,9.9,13,10,12.8,10c-0.2,0-0.4,0-0.6,0c-0.3,0-0.6,0.1-0.8,0.1l0,0c-0.1,0-0.3,0.1-0.4,0.2l0,0l0,0c0,0.1-0.1,0.1-0.1,0.1
			c-0.1,0.1-0.3,0.2-0.4,0.3l0,0L10,11.2H9.9l0,0l0.1-0.1L10,11c0,0,0.1-0.1,0.1-0.1l0,0l0,0c0.1-0.1,0.2-0.2,0.4-0.3l0,0l0,0
			c0,0,0,0,0-0.1l0,0l-0.1,0.1c-0.1,0-0.1,0.1-0.2,0.1l0,0l0,0l0,0l0,0l0,0v-0.1l0,0v-0.1l0,0c0-0.1,0.1-0.1,0.2-0.1l0,0
			c0.1,0,0.2-0.1,0.3-0.1l0,0c-0.1,0-0.3,0.1-0.4,0.2l0,0c0,0,0,0-0.1,0l0,0c0,0,0.1-0.1,0.1-0.1s0,0,0,0c0.7-0.6,1.7-0.4,2.6-0.7
			l0.2-0.1c0.1-0.1,0.2-0.2,0.3-0.2c0.2-0.1,0.3-0.3,0.4-0.5c0,0,0,0,0-0.1c-0.3,0.3-0.6,0.6-1,0.8c-0.5,0.2-1,0.3-1.5,0.3
			c0,0,0.1,0,0.1,0s0-0.1,0.1-0.1h0.1l0,0c0,0,0.1,0,0.1,0s-0.2,0.1-0.3,0c0,0,0-0.1,0.1-0.1h0.1c0,0,0-0.1,0-0.1
			c0.3-0.2,0.7-0.4,1-0.6c-0.1,0-0.1,0.1-0.2,0s0-0.1,0.1-0.1c0.3-0.1,0.4-0.2,0.7-0.3c-0.1,0-0.2,0.1-0.3,0S13,8.5,13,8.5V8l0,0
			l0,0c0,0,0.1,0,0.1-0.1c0.1-0.1-0.1,0-0.1,0c0.1-0.1,0.2-0.1,0.3-0.1h-0.1c0,0,0,0,0.1,0h-0.1c0,0,0-0.1,0-0.1
			c0.1-0.2,0.2-0.4,0.2-0.6l0,0c-0.3,0.2-0.6,0.4-0.9,0.4h-0.1c-0.1,0.1-0.3,0.1-0.4,0C12,7.5,12,7.5,11.9,7.4
			c-0.2-0.1-0.4-0.2-0.6-0.3c-0.6-0.2-1.1-0.3-1.7-0.3c0.3-0.1,0.5-0.2,0.8-0.2c0.4-0.1,0.8-0.2,1.2-0.2c-0.1,0-0.2,0-0.2,0
			c-0.3,0-0.7,0-1,0.1c-0.2,0-0.4,0.1-0.7,0.2S9.4,6.9,9.3,6.9V6.6C9.5,6.3,9.8,6.1,10.2,6c0.4-0.1,0.8-0.1,1.2,0
			c0.3,0,0.6,0.1,0.9,0.2c0.1,0,0.1,0.2,0.2,0.2s0.3,0,0.4,0.1s0-0.1,0-0.1s0.2,0,0.3,0S13,6,12.9,5.8s0,0,0,0
			c0.2,0.2,0.3,0.3,0.5,0.4c0.1,0.1,0.4,0.1,0.3,0c-0.1-0.2-0.3-0.5-0.5-0.7V5.5c-0.1,0-0.1,0-0.1,0V5.4c-0.1,0-0.1-0.1-0.1-0.2
			s0-0.3-0.1-0.4c0-0.1,0-0.3,0-0.4c-0.1-0.4-0.2-0.7-0.2-1.1c0-0.4,0.2-0.8,0.5-1.2c0.1-0.3,0.4-0.5,0.6-0.7
			c0.1-0.3,0.2-0.5,0.4-0.7c0.2-0.2,0.4-0.4,0.7-0.4c0.2-0.1,0.4-0.2,0.6-0.2H0v12h11c0.5-0.3,1-0.5,1.5-0.8
			C12.9,11.1,13.3,10.8,13.7,10.6 M10.2,9c-0.1,0-0.1,0-0.1,0s0.2-0.1,0.3-0.2s0.1-0.1,0.1,0s0.1,0,0.2,0.1C10.5,9.1,10.3,9,10.2,9
			 M6.7,8.6C6.7,8.6,6.7,8.5,6.7,8.6C7,8.1,7.2,7.7,7.4,7.3c0.3-0.2,0.5-0.4,0.8-0.6c0.4-0.4,0.8-0.7,1.3-1c0.2-0.1,0.4-0.1,0.6,0
			C10,5.7,9.9,5.7,9.8,5.8c0,0,0,0-0.1,0c0,0,0,0,0-0.1C9.5,6,9.2,6.1,9,6.4S8.7,6.9,8.4,7c-0.1,0,0-0.1,0,0
			C7.8,7.4,7.2,7.9,6.7,8.5 M8.6,7C8.6,7,8.5,7,8.6,7C8.5,7.1,8.5,7.2,8.4,7.2H8.4C8.4,7.1,8.5,7,8.6,7L8.6,7 M9.6,10.4
			C9.6,10.4,9.6,10.4,9.6,10.4L9.6,10.4c-0.1,0.1-0.2,0.2-0.2,0.2l0,0l-0.1,0.1c0,0-0.1,0-0.1,0l0.2-0.2l0.1-0.1v-0.1
			C9.4,10.4,9.6,10.4,9.6,10.4 M9.1,10.2L9.1,10.2L9,10.4l-0.3,0.1l0,0c-0.1,0-0.2,0.1-0.2,0.2l0,0l0,0l0,0l0,0H8.4l0,0H8.4l0,0l0,0
			l0,0l0,0L8,10.9c0,0-0.1,0.1-0.1,0.1l0,0l0,0l0,0l0,0l0,0l0,0l0,0l0,0l0-0.1l0,0l0,0l0,0l0,0L8,10.8l0,0c0,0,0,0,0-0.1l0,0l0,0
			c0,0,0,0,0-0.1l0,0l0,0l0,0l0,0c0,0,0.1-0.1,0.1-0.1l0,0L8,10.6c0,0-0.1,0,0,0l0.1-0.1l0,0c0,0,0.1-0.1,0.1-0.1l0.1-0.1l0,0v-0.1
			l0,0c0.2-0.2,0.6-0.2,0.9-0.3c0.1,0,0.3,0,0.4,0c0.1,0,0.1,0,0.2,0c-0.2,0.1-0.4,0.2-0.6,0.4 M9.6,8.8C9.6,8.8,9.6,8.8,9.6,8.8
			L9.6,8.8L9.6,8.8L9.2,8.9C9.1,8.9,8.9,9,8.8,9.1S8.3,9.1,8,9.2l0,0c0,0,0.1-0.1,0.2-0.2s0,0,0,0c0.2-0.2,0.4-0.4,0.7-0.6V8.3
			C8.9,8.2,9,8.2,9,8c0-0.1,0.1-0.2,0.2-0.2c0,0-0.1,0-0.1-0.1s-0.2,0-0.3,0c0,0,0.1-0.1,0.1-0.1l0,0c0,0,0-0.1,0.1-0.1
			c0.1,0,0.2,0,0.3-0.1c-0.2,0-0.3,0-0.5,0C9,7.2,9.2,6.9,9.4,6.8h0.1C9.5,6.9,9.4,7,9.3,7c0.2,0,0.4,0.1,0.5,0.1c0,0-0.1,0-0.1,0
			s0.3,0,0.4,0.1c-0.1,0.1-0.1,0-0.2,0C10.7,7.4,11.4,7.6,12,8c-0.5,0.2-1,0.4-1.6,0.5c-0.1,0-0.1,0-0.2,0v0.1c-0.1,0-0.1,0-0.2,0
			c-0.1,0-0.2,0-0.3,0"/>
		<path class="st4" d="M33,0H20.1c0,0,0,0,0.1,0.1l0.3,0.2c0.2,0.1,0.3,0.2,0.4,0.4c0,0.1,0.1,0.2,0.1,0.3S21,1.2,20.9,1.2
			c-0.2,0.1-0.3,0.1-0.5,0c-0.1,0-0.2,0-0.3,0c0.4,0.1,0.7,0.3,0.9,0.6c0,0,0.1,0.1,0.2,0.1s0,0,0,0.1s-0.1,0.1-0.1,0.1h0.1
			c0.1,0,0.1-0.3,0.3-0.2c0.1,0.1,0.2,0.2,0.1,0.3l-0.3,0.2c0,0.1,0,0.1,0,0.2c0.1,0.1,0.1,0.2,0.1,0.3c0.1,0.2,0.1,0.3,0.2,0.5
			c0.1,0.3,0.2,0.7,0.1,1c0,0.2-0.1,0.3,0,0.5c0.1,0.2,0.1,0.3,0.3,0.5c0.1,0.1,0.2,0.2,0.3,0.4c0.1,0.2,0.4,0.5,0.3,0.7
			S22.2,6.6,22,6.7s0,0.3,0,0.4s-0.1,0.3-0.3,0.4c0,0.1,0.1,0.1,0.2,0.1S22,7.8,22,7.9c-0.1,0.1-0.4,0.2-0.2,0.4
			c0.1,0.2,0.1,0.3,0,0.5c-0.1,0.2-0.2,0.3-0.4,0.3c-0.1,0-0.3,0-0.4,0c0,0-0.1,0-0.1-0.1C20.4,9.1,20,9,19.6,9
			c-0.1,0-0.2,0.1-0.3,0.1c-0.1,0.1-0.2,0.1-0.3,0.2l0,0v0.1l0,0l0,0c-0.1,0.1-0.1,0.2-0.2,0.3l0,0l0,0c-0.1,0.1-0.1,0.3-0.2,0.4
			c-0.2,0.3-0.2,0.7,0,1.1c0,0,0.8,0.3,1.3,0.5l0.5,0.3H33V0z"/>
		<path class="st5" d="M20.9,4.4c0.1,0,0.2,0,0.2,0.1s-0.3,0.2-0.5,0.4h-0.1c-0.1,0,0,0.2-0.1,0.2c-0.1,0-0.1,0-0.2,0
			c0.1,0.1,0.2,0.2,0.3,0.1c0,0,0.1,0,0.1,0.1l0,0h0v0.1c-0.1,0.1-0.2,0-0.3,0.1c0.2,0,0.4,0,0.5,0c0.1,0,0-0.3,0.1-0.4s0-0.1,0-0.1
			s0.1-0.1,0.1-0.1c0.1,0,0.1,0,0.1-0.1c0,0-0.1-0.1-0.1-0.1s0.3-0.2,0.2-0.4s-0.2-0.1-0.3-0.1c-0.1,0-0.3,0-0.4,0
			c-0.1,0-0.2,0-0.3,0.1c-0.2,0.1-0.3,0.1-0.4,0.2c0.2-0.1,0.3-0.1,0.5-0.1C20.6,4.3,20.7,4.3,20.9,4.4"/>
	</g>
</g>
</svg>
