<?xml version="1.0" encoding="utf-8"?>
<!-- Generator: Adobe Illustrator 22.1.0, SVG Export Plug-In . SVG Version: 6.00 Build 0)  -->
<svg version="1.1" id="Layer_1" xmlns="http://www.w3.org/2000/svg" xmlns:xlink="http://www.w3.org/1999/xlink" x="0px" y="0px"
	 viewBox="0 0 699 307.3" style="enable-background:new 0 0 699 307.3;" xml:space="preserve">
<style type="text/css">
	.st0{fill:#FEFEFE;}
	.st1{fill:#049893;}
	.st2{fill:#059893;}
	.st3{fill:#019691;}
	.st4{fill:#029792;}
	.st5{fill:#019792;}
	.st6{fill:#039792;}
	.st7{fill:#069894;}
	.st8{fill:#FDFEFE;}
	.st9{fill:#FCFDFD;}
	.st10{fill:#F7FBFB;}
	.st11{fill:#FAFDFC;}
	.st12{fill:#FBFDFD;}
	.st13{fill:#F8FCFC;}
	.st14{fill:#F1F9F8;}
	.st15{fill:#F6FBFB;}
	.st16{fill:#F8FBFB;}
</style>
<g>
	<g>
		<path class="st0" d="M348.8,1.2c115.3,0,230.6,0,345.9-0.1c3.7,0,4.3,0.9,4.3,4.4c-0.1,99.1-0.1,198.3,0,297.4
			c0,3.5-0.6,4.4-4.3,4.4c-230.4-0.1-460.9-0.1-691.3,0c-3.9,0-4.5-1-4.5-4.6C-1,203.6-1,104.4-1.1,5.3C-1.1,2-0.5,1.2,3,1.2
			C118.2,1.2,233.5,1.2,348.8,1.2z"/>
		<path class="st1" d="M439.9,39.6c75.3,0,150.6,0,225.9,0c3,0,5.4-0.3,5.2,4.2c-0.2,3.6-1.2,4.3-4.6,4.3
			C631.2,48,596.1,48,560.9,48c-116,0-231.9,0-347.9,0c-2.3,0-5.4,1.4-5.5-3.3c-0.1-4.3,1.4-5.1,5.4-5.1
			C288.6,39.7,364.3,39.6,439.9,39.6z"/>
		<path class="st2" d="M486.3,122c-59.5,0-118.9,0-178.4,0c-2.5,0-5.2,0.9-5.2-3.6c0-4.1,1.3-4.9,5.1-4.9
			c42.6,0.1,85.3,0.1,127.9,0.1c76.6,0,153.2,0,229.9,0c2.3,0,5.4-1.4,5.4,3.4c0.1,4.3-1.3,5.1-5.3,5.1
			C605.9,122,546.1,122,486.3,122z"/>
		<path class="st2" d="M534.5,187.3c43.6,0,87.3,0,130.9,0c5.8,0,6.3,0.7,5.6,6.1c-0.2,1.7-0.9,2.3-2.5,2.3c-1,0-2,0-3,0
			c-87.6,0-175.2,0-262.8-0.1c-2.2,0-5.5,1.7-5.7-3.1c-0.2-4,0.8-5.4,5.1-5.4C446.2,187.4,490.3,187.3,534.5,187.3z"/>
		<path class="st3" d="M581.4,269.3c-28.3,0-56.6,0-85,0c-5.6,0-6-0.6-5.4-5.9c0.2-1.7,0.8-2.4,2.4-2.3c1,0,2,0,3,0
			c56.5,0,112.9,0,169.4-0.1c3.4,0,5.3,0.2,5.2,4.6c-0.1,4.1-2.2,3.6-4.7,3.6C638,269.3,609.7,269.3,581.4,269.3z"/>
		<path class="st4" d="M125.1,117.7c0-4.7-0.1-9.3,0.1-14c0.1-1.8-1.2-4.6,1.1-5.3c2.5-0.7,5.9-1.6,8,0.7c1.5,1.7,2.1,0.7,3.2,0.1
			c6.1-3.2,11.8-3.2,16.9,1.9c1.6,1.5,2.3,0.9,3.6-0.2c5.4-4.6,11.5-4.9,17.7-2c5.9,2.8,7.4,8.2,7.5,14.2c0.1,7-0.2,14,0.1,21
			c0.2,4.3-2.6,3.3-4.9,3.3c-2.3,0.1-4.6,0.6-4.4-3.3c0.3-6.5,0.2-13,0.1-19.5c-0.1-5.9-2.5-8.8-7.2-8.8s-7.5,2.7-7.8,8.4
			c-0.3,5.7-0.1,11.3-0.2,17c0,3.1,1.1,6.3-4.6,6.4c-6,0.1-4.8-3.4-4.8-6.7c0-5.7,0.1-11.3,0-17c-0.1-5.5-2.3-8-6.7-8.2
			c-4.7-0.2-7.5,2.2-7.9,7.7c-0.4,5.8-0.2,11.6-0.3,17.5c0,3.3,1.1,6.7-4.8,6.7c-5.7-0.1-4.5-3.3-4.6-6.4
			C125,126.7,125.1,122.2,125.1,117.7z"/>
		<path class="st5" d="M14.1,282.3c0,5-0.3,9,0.1,13c0.3,3.9-1.5,4.3-4.6,4.2c-2.9-0.1-4.9,0.2-4.9-4c0.3-15.3,0.1-30.6,0.1-45.9
			c0-1.5-0.8-3.9,1.8-3.8c2.4,0.1,5.8-1.7,7.1,1.2c1.1,2.5,1.6,1,2.5,0.5c12.6-7.1,26.9,0.7,27.8,15.2c0.8,12.8-5.6,21.8-16.7,23.2
			C22.7,286.5,18.6,284.9,14.1,282.3z"/>
		<path class="st5" d="M96.9,209c0,4.6-0.2,9,0.1,13.5c0.3,3.8-2.1,3.4-4.4,3.3c-2.4,0-4.9,0.7-4.9-3.5c0.2-15.3,0-30.6,0.1-45.9
			c0-1.4-1.1-3.9,1.2-4.2c2.5-0.3,5.7-1.5,7.4,0.8c1.2,1.6,1.3,1.3,2.7,0.6c12.1-6.4,24.6-0.5,27.5,12.8c2.5,11.8-3.9,23-14.5,25.3
			C107.7,212.7,104.9,212.2,96.9,209z"/>
		<path class="st4" d="M165,157.5c-2.5,4.7-4.7,8.8-7.1,13.2c10.8,3.3,14.4,11.2,14.2,21.7c0,2.6-0.9,3.4-3.5,3.4
			c-6.5-0.1-13-0.1-19.5,0c-1.1,0-2.5-0.6-3.1,0.9c-0.5,1.2,0.5,2.2,1.2,3.1c2.7,3.9,9.5,5.6,13.9,2.4c4.3-3.1,6-0.5,8.5,1.9
			c1.4,1.4,1.4,2.4-0.2,3.6c-6.5,4.9-13.7,5.8-21.3,3.3c-7.1-2.4-11-7.8-12.2-15.1c-1.8-11,2.4-19.1,12.4-24
			c2.4-1.2,2.3-2.9,2.6-4.9c1.4-9.8,1.4-9.8,11.2-9.7C162.9,157.4,163.5,157.4,165,157.5z"/>
		<path class="st5" d="M14.2,48.2c2.3,7.5,10,10.5,16.3,5.9c5-3.6,6.4,1.1,7.9,3.1c2.1,2.8-1.7,3.7-3.4,4.7
			c-10,5.9-23.8,2.2-28.7-7.4c-5.7-11-1.1-25.4,9.9-30c2.8-1.2,2.7-3,3-5c2-10.8,2-10.8,13.7-8.8c-1.9,3.4-3.6,6.8-5.5,10.1
			c-1.1,1.9-1.1,2.9,1.3,3.6c8.2,2.3,12.2,11.2,11.7,21.5c-0.1,2.6-1.7,2.4-3.4,2.4C29.5,48.2,21.9,48.2,14.2,48.2z"/>
		<path class="st4" d="M265.9,190.9c1.3,4.4-1.4,5.2-5.7,4.9c-5.6-0.3-11.3-0.1-17-0.1c-1.1,0-2.5-0.5-3.2,0.7
			c-0.7,1.4,0.5,2.5,1.2,3.6c2.9,3.8,9.2,4.7,14.1,2.1c3.2-1.7,7.7-0.2,9,2.9c0.7,1.8-0.9,2.4-1.8,3c-7.3,5.1-15.2,5.7-23.1,1.8
			c-7.8-3.8-10.4-11-10-19.2c0.5-11,6.9-18.7,15.7-19.5C257.7,169.9,265.8,177.4,265.9,190.9z"/>
		<path class="st4" d="M225.5,122.9c0,3.2,0.1,6.3-0.1,9.5c-0.1,1.6,1.1,4.2-1.3,4.7c-2.5,0.5-6.3,1.4-7.5-0.5
			c-1.5-2.5-2.2-1.3-3.5-0.6c-3.1,1.7-6.5,2.5-10.1,2.2c-6.5-0.4-11.1-4.5-11.8-10.6c-0.7-5.9,3-11.3,9.2-13.1
			c3.9-1.1,7.9-0.8,11.9-0.9c1.2,0,2.8,0.7,3.5-1.1c0.5-1.5-0.1-2.9-1-4.2c-2.6-3.4-9-3.8-13-0.1c-4.6,4.3-5.6-0.9-7.5-2.6
			c-2.8-2.2,0.5-3.4,1.7-4.3c6.9-5.1,14.4-5.5,22.1-2c4,1.8,6.6,5.2,6.8,9.7c0.3,4.6,0.1,9.3,0.1,13.9
			C225.2,122.9,225.3,122.9,225.5,122.9z"/>
		<path class="st4" d="M369.8,195.7c-3.5,0-7,0-10.5,0c-2.5,0-2.8,1-1.7,3.1c2.5,4.6,9.8,6.8,14.9,3.2c4.9-3.5,6.4,0.4,8.6,2.8
			c2,2.1-0.7,2.8-1.8,3.6c-6.9,5.1-17.8,5.1-24.8,0.1s-9.7-14.7-6.7-24.3c3.2-10.3,12.4-15.5,22.6-12.7c10,2.8,13.4,12.3,12.6,22.2
			c-0.2,1.9-1.4,2-2.8,2C376.8,195.7,373.3,195.7,369.8,195.7L369.8,195.7z"/>
		<path class="st4" d="M326.5,270.7c0,3,0.1,6-0.1,9c-0.1,1.8,1.1,4.9-1.2,5.2c-2.6,0.3-6.2,2.4-8.2-1.5c-1-1.9-1.9-0.1-2.7,0.2
			c-4.2,2.1-8.4,3.2-13,1.9c-5.7-1.6-8.8-5.4-9-11.1c-0.2-5.7,2.7-9.9,8-11.9c4.3-1.6,8.9-1.3,13.4-1.2c4.4,0.1,3.7-2.2,2.4-4.6
			c-2.3-4.1-8.9-5-13.1-1c-4.8,4.6-5.9-0.7-7.8-2.5c-2.5-2.5,1-3.6,2.3-4.6c6.3-4.5,13.3-5,20.4-2.3c5.5,2.1,8.2,6.6,8.4,12.4
			C326.5,262.7,326.4,266.7,326.5,270.7C326.4,270.7,326.4,270.7,326.5,270.7z"/>
		<path class="st5" d="M262.1,122c2.8,7.8,9.8,10.4,16.5,5.8c4.8-3.2,6.2,1.1,7.7,3c2.3,2.8-1.5,3.7-3.1,4.6
			c-9,5.5-21.6,3.2-27.5-4.8c-6-8.1-4.9-22.2,2.5-29c5.7-5,12.3-5.8,19.2-3.3c7.6,2.8,10.5,9.2,11.1,16.9c0.5,6.8,0.4,6.8-6.4,6.8
			C275.5,122,269,122,262.1,122z"/>
		<path class="st5" d="M433.5,270c0,3.7,0.1,7.3-0.1,11c-0.1,1.5,1,3.9-1.4,4.1c-2.5,0.2-5.9,1.5-7.3-0.9c-1.3-2.3-2-1.3-3.2-0.6
			c-4.1,2.2-8.3,3.3-12.9,2c-5.7-1.5-8.9-5.4-9.2-11c-0.3-5.8,2.8-10.2,8.3-12.2c4.2-1.5,8.5-1,12.8-1.2c1.2,0,2.9,0.8,3.4-1
			c0.4-1.5-0.1-3-1.1-4.2c-2.6-3.4-8.8-4.1-12.5-0.4c-4.5,4.4-6.1,0-7.8-2.2c-2.7-3.2,1.3-4.2,2.9-5.3c5.9-4,12.4-4.3,19.1-2.1
			c5.8,2,8.7,6.4,9,12.5C433.6,262.3,433.4,266.1,433.5,270C433.4,270,433.4,270,433.5,270z"/>
		<path class="st5" d="M180.7,48.2c-3.3,0-6.7,0.1-10,0c-3.6-0.2-3,1.4-1.7,3.5c3,4.7,10.3,6.2,15.5,2.3c4.8-3.6,5.9,1.3,7.5,3.1
			c2.3,2.6-1.2,3.5-2.7,4.4c-8.9,5.7-22.1,3.5-27.9-4.6c-6.1-8.6-4.5-23.1,3.3-29.6c5.7-4.7,14.8-5.3,21-1.4
			c6.1,3.9,9.8,13.5,8.2,20.7c-0.5,2-1.7,1.7-2.9,1.7C187.7,48.2,184.2,48.2,180.7,48.2z"/>
		<path class="st5" d="M85.9,270.1c0,3.3,0.2,6.7-0.1,10c-0.2,1.7,1.5,4.8-1.4,4.8c-2.4,0-5.9,2.5-7.5-1.8c-0.8-2-1.9-0.2-2.6,0.2
			c-3.9,2-8,3.2-12.5,2.3c-6-1.3-9.6-5.3-9.8-10.9c-0.3-6.2,2.7-10.5,8.6-12.5c4.4-1.5,8.9-1.1,13.4-1c3.2,0.1,3.2-1.3,2.3-3.7
			c-1.8-4.5-8.2-6.4-12.6-2.5c-4.2,3.7-6,1.3-8.5-1.4c-1.4-1.5-1.1-2.4,0.1-3.7c4.7-5,14.6-6.9,21.9-4c6.3,2.4,8.8,6.7,8.8,15.1
			C85.9,264.1,85.9,267.1,85.9,270.1z"/>
		<path class="st5" d="M110.2,64.3c-12,0-20.3-8.3-20.3-20.4c0-11.8,8.6-20.7,20.2-20.8c11.4-0.1,20.3,9,20.4,20.7
			C130.5,55.8,122,64.3,110.2,64.3z"/>
		<path class="st5" d="M46.7,118c-0.1-12.1,8.3-20.8,20-20.8c11.9-0.1,20.8,8.9,20.7,20.8c-0.1,11.5-8.8,20.3-20.2,20.4
			C55.5,138.5,46.8,129.9,46.7,118z"/>
		<path class="st5" d="M449.3,299.4c0.4-1.4,0.4-2.3,0.8-2.9c4.9-7.6,3.9-15,0-22.9c-3.8-7.7-6.3-16.1-9.6-24.1
			c-1.4-3.3-0.5-3.8,2.7-4c4.9-0.4,7.4,1,8.8,6c1.9,7,4.8,13.7,7.8,21.8c3.2-8.6,5.9-15.9,8.6-23.2c1.5-4,6.3-6,10.2-4.5
			c1.8,0.7,1,1.8,0.5,2.8c-6.5,16.2-12.8,32.5-19.6,48.5C457.7,301.9,453.1,298.3,449.3,299.4z"/>
		<path class="st4" d="M75.9,191.7c0,4.8,0.1,9.6-0.1,14.5c-0.1,1.7,1.1,4.3-1,4.8c-2.4,0.6-6,1.5-7.5-0.4c-1.4-1.8-1.7-1.4-3.1-0.6
			c-11.4,6-22.3-0.1-23-12.9c-0.4-7.3,0.1-14.6-0.1-21.9c-0.1-4.1,2.7-2.9,4.8-3c2.1-0.1,4.8-0.9,4.7,3c-0.2,6.3-0.1,12.6,0,19
			c0.1,6.2,2.4,9.3,7.1,9.5c4.9,0.3,8.1-2.5,8.7-8.7c0.5-5.6,0.4-11.3,0.4-16.9c0-3.3-0.8-6.2,4.7-6.2c5.8,0,4.4,3.4,4.4,6.4
			C75.9,182.7,75.9,187.2,75.9,191.7z"/>
		<path class="st4" d="M307.9,191.7c0,4.8,0.1,9.7-0.1,14.5c-0.1,1.6,1.2,4.2-1.1,4.7c-2.4,0.5-6.1,1.5-7.5-0.5
			c-1.5-2.2-2-1-3.2-0.4c-11.4,5.8-22.3-0.4-22.9-13.3c-0.3-7.2,0.1-14.3-0.1-21.5c-0.1-4.4,2.9-3,5.1-3.2c2.5-0.2,4.6-0.3,4.4,3.4
			c-0.3,6.3-0.2,12.7,0,19c0.1,5.9,2.6,8.9,7.1,9.2c4.9,0.3,8.2-2.4,8.8-8.1c0.6-5.8,0.4-11.6,0.4-17.5c0-3.3-0.8-6.3,4.7-6.2
			c5.8,0,4.4,3.4,4.4,6.4C308,182.7,307.9,187.2,307.9,191.7z"/>
		<path class="st4" d="M4.7,117.4c0-5-0.1-10,0.1-15c0-1.5-1.1-4,1.3-4.1c2.5-0.2,5.9-1.9,7.6,1.1c0.9,1.6,1,1.3,2.2,0.6
			c12.7-6.5,23.2-0.6,23.8,13.6c0.3,6.8-0.1,13.7,0.1,20.5c0.2,4.4-2.8,3.2-5,3.2c-2.4,0.1-5,0.7-4.8-3.5c0.4-6.3,0.1-12.6,0.1-19
			c-0.1-6-2.3-8.8-7-9.1c-5.1-0.3-8.6,2.8-8.9,8.6c-0.3,6.3-0.4,12.7,0,19c0.2,4-1.7,4.1-4.7,4.1s-5.1,0-4.8-4.1
			C5,128,4.7,122.7,4.7,117.4z"/>
		<path class="st4" d="M162.8,286.1c-4.9-0.2-9.7-1.3-13.7-4.7c-1.2-1-3.4-2.2-1-3.7c1.9-1.2,2.4-6.1,6.4-3
			c3.1,2.5,6.7,3.6,10.7,3.1c2-0.3,4.2-0.9,4.4-3.3c0.3-2.6-2-3.3-3.8-3.9c-3-1-6.1-1.4-9.1-2.4c-6.3-2.1-9.1-6.3-8.7-12.3
			c0.4-5.7,4.3-9.5,10.6-10.7c5.9-1.1,11.2,0.2,16,3.7c1.4,1,3.2,2.3,1,3.7c-1.9,1.2-2,6.4-6.1,3.2c-2.6-2-5.4-3.1-8.8-2.6
			c-1.9,0.3-3.6,1.2-3.7,3.3c-0.2,2.1,1.5,2.8,3.1,3.3c2.4,0.7,4.8,1.1,7.3,1.8c8.2,2.2,12.1,6.7,11.5,13.3
			c-0.6,6.2-5.3,10.2-13.3,11.1C164.6,286,163.8,286,162.8,286.1z"/>
		<path class="st4" d="M270,286.1c-4.9-0.2-9.6-1.1-13.5-4.3c-1.2-1-4.1-2.1-1.6-4c1.8-1.4,2.4-6.4,6.7-3c3.4,2.7,7.3,3.8,11.7,2.7
			c1.6-0.4,2.8-1.2,3-2.9c0.3-2-1.1-3.1-2.7-3.6c-3.2-1-6.4-1.7-9.6-2.7c-6.9-2.3-9.6-6.2-9.1-12.9c0.4-5.5,4.5-9.2,11.1-10.3
			c4.4-0.7,8.6-0.1,12.6,2c5.9,3.1,6,4,1.3,8.6c-1.4,1.4-2.2,1.4-3.6,0.1c-2.6-2.4-5.7-3.3-9.2-2.5c-1.8,0.4-3.1,1.4-3.1,3.3
			c-0.1,1.8,1.2,2.6,2.8,3.1c2.6,0.7,5.2,1.2,7.7,1.9c7.9,2.1,11.6,6.5,11.2,13.1c-0.4,6.1-4.8,10.1-12.5,11.3
			C271.9,286,270.9,286,270,286.1z"/>
		<path class="st4" d="M19.1,171c2.9-0.2,5.9,0.7,8.8,2.1c5.8,3,5.8,3.7,1.4,8.3c-1.6,1.6-2.5,1.5-4,0.2c-2.5-2.2-5.5-3.1-8.8-2.4
			c-1.7,0.4-3.2,1.2-3.4,3.1c-0.2,2.1,1.4,3,3,3.5c3.2,0.9,6.5,1.5,9.7,2.5c6.3,2.1,9.5,6.4,9.3,12.1c-0.3,5.6-3.9,9.7-10.4,11.2
			c-7.2,1.7-13.9,0.5-19.7-4.3c-1.1-0.9-2.8-2.2-0.7-3.5c1.9-1.2,2.4-5.6,5.9-3.2c3.1,2.1,6.3,3.6,10.2,3.5c2.5-0.1,5-0.6,5.4-3.4
			s-2.2-3.4-4.3-4.1c-1.9-0.6-3.9-0.9-5.8-1.4C7,192.9,3.1,188,4.2,180.9C4.9,174.7,10.6,171,19.1,171z"/>
		<path class="st4" d="M69.2,64.3c-9.4,0-16.5-5.1-19.3-13.6C47.1,41.8,50,32.4,57.1,27c6.8-5.1,16.3-5.3,23.3-0.1
			c1.4,1,5,2,2.1,4.6c-1.9,1.7-2.6,7-7.4,2.8c-4.3-3.9-10.3-3-13.8,1.1c-3.9,4.7-3.7,13.2,0.5,17.5c3.7,3.9,10.1,4.6,13.9,0.6
			c4.4-4.6,5.5,0.3,7.5,2c3.2,2.8-0.5,3.9-1.9,5.2C78.1,63.4,74.5,64.3,69.2,64.3z"/>
		<path class="st4" d="M364.9,272.1c0.7,0.5,1.1,0.6,1.3,0.9c6.1,6.2,5.6,8.5-2.7,11.6c-9.5,3.5-19.4,0.5-24.6-7.6
			c-5.2-8.1-4.1-19.5,2.4-26.3c6.2-6.5,17-7.9,24.8-3.1c1.7,1,4.5,2.4,4,4c-0.8,2.3-3.1,4.1-5.1,5.9c-1,0.9-1.6-0.5-2.3-1.1
			c-5.5-4.2-10.6-4.1-14.5,0.4c-4.2,4.9-3.9,13.3,0.7,17.8c4.1,4,10.1,3.8,14.7-0.5C364.2,273.5,364.5,272.7,364.9,272.1z"/>
		<path class="st1" d="M148.9,37.2c0,7.5-0.2,15,0.1,22.4c0.2,3.9-1.5,4.3-4.7,4.2c-2.7-0.2-5.1,0.4-5.1-3.9
			c0.2-15.5,0.2-30.9,0-46.4c-0.1-4.6,2.9-3.4,5.3-3.5c2.8-0.2,4.6,0,4.5,3.8C148.7,21.6,148.9,29.4,148.9,37.2z"/>
		<path class="st6" d="M96.9,265.5c0-5.5,0.1-11-0.1-16.5c-0.1-2.7,0.8-3.5,3.4-3.4c5.2,0.2,10.3,0.2,15.5,0c4-0.2,3.1,2.4,3.1,4.6
			c0,2.1,0.7,4.1-2.9,4.3c-9.5,0.3-9.5,0.5-9.5,10.2c0,5.2-0.2,10.3,0.1,15.5c0.2,3.7-0.5,5.3-4.8,5.2c-3.8-0.1-5.3-0.8-5-4.9
			C97.2,275.5,96.9,270.5,96.9,265.5z"/>
		<path class="st6" d="M319.3,190.9c0-5,0.1-10-0.1-15c-0.1-2.9,0.7-4.2,3.9-4c5,0.3,10,0.3,15,0c3.7-0.2,3.4,2.1,3.4,4.4
			c0,2.5,0.1,4.4-3.5,4.4c-9.1,0.2-9.1,0.4-9.1,9.5c0,6-0.2,12,0.1,18c0.2,3.7-2.3,3.1-4.2,2.8c-2-0.3-5.4,1.8-5.4-2.7
			C319.4,202.6,319.3,196.8,319.3,190.9z"/>
		<path class="st1" d="M181.1,191.6c0-5.5,0.1-11,0-16.5c-0.1-2.4,0.8-3.2,3.2-3.2c5.3,0.1,10.7,0.2,16,0c3.7-0.1,2.9,2.3,2.9,4.3
			s0.9,4.5-2.8,4.5c-3.1,0-7.2-1.5-9.1,0.8c-2.2,2.7-0.7,6.8-0.8,10.3c-0.1,5.3-0.3,10.7,0,16c0.2,4.2-2.5,3.4-4.9,3.4
			c-2.5,0-5,0.6-4.7-3.6C181.3,202.3,181.1,197,181.1,191.6z"/>
		<path class="st4" d="M94.9,117.2c0-5.2,0.1-10.3-0.1-15.5c-0.1-2.7,0.5-3.9,3.5-3.7c5,0.2,10,0.2,15,0c3.5-0.2,3.3,2,3.1,4.2
			c-0.2,2,1.1,4.7-2.9,4.9c-9.1,0.5-9.1,0.7-9.1,10.1c0,5.7-0.2,11.3,0,17c0.2,4.4-3,3-5.1,3.1c-2.2,0.1-4.7,0.8-4.5-3.1
			C95.1,128.5,94.9,122.8,94.9,117.2z"/>
		<path class="st3" d="M380.7,257.9c0-7.6,0.2-15.3-0.1-22.9c-0.1-3.7,1.5-4.1,4.4-3.9c2.4,0.2,5.2-1,5.1,3.6
			c-0.3,15.6-0.3,31.2,0,46.8c0.1,4.6-2.7,3.4-5.1,3.6c-2.9,0.3-4.5-0.2-4.4-3.9C380.9,273.6,380.7,265.7,380.7,257.9z"/>
		<path class="st5" d="M234.9,110.6c0-7.8,0.2-15.7-0.1-23.5c-0.1-3.7,1.9-3.6,4.3-3.5c2.3,0.1,5-0.9,5,3.3c-0.2,15.7-0.2,31.3,0,47
			c0.1,4.3-2.6,3.3-4.9,3.4c-2.3,0.1-4.6,0.6-4.4-3.3C235.1,126.2,234.9,118.4,234.9,110.6z"/>
		<path class="st5" d="M216.4,269.3c-7.3,0-14.6-0.2-21.9,0.1c-3.5,0.1-3.6-1.5-3.6-4.2c0-2.6,0-4.2,3.6-4.2
			c14.8,0.2,29.6,0.2,44.4,0c3.4,0,3.7,1.4,3.7,4.1s-0.2,4.3-3.7,4.2C231.4,269.2,223.9,269.3,216.4,269.3z"/>
		<path class="st7" d="M220.5,191.7c0,5.5-0.1,11,0.1,16.5c0.1,4.1-2.7,3-4.7,2.9c-2,0-4.8,1.2-4.8-2.9c0.2-11.1,0.1-22.3,0-33.4
			c0-3.7,2.5-2.8,4.5-2.7c2,0.1,5.1-1.5,5,2.7C220.4,180.4,220.5,186.1,220.5,191.7z"/>
		<path class="st5" d="M127.9,265.4c0-5.5,0.2-11-0.1-16.4c-0.2-3.8,2.1-3.4,4.4-3.3c2.4,0.1,5-0.8,4.9,3.4c-0.2,11-0.2,21.9,0,32.9
			c0.1,4.4-2.8,3.1-5,3.2c-2.3,0.2-4.6,0.5-4.3-3.3C128.2,276.4,127.9,270.9,127.9,265.4z"/>
		<path class="st1" d="M138.9,233.7c0.1,3.3-2.9,6.4-6.2,6.5c-3.4,0.1-6.4-2.9-6.3-6.3c0.1-3.7,2.3-5.8,5.9-6.1
			C135.7,227.4,138.8,230.3,138.9,233.7z"/>
		<path class="st6" d="M216.9,166.2c-4.7,0.1-7.3-2.4-7.2-6.2c0.1-3.8,2.2-5.8,5.9-5.9c3.7-0.1,6.5,2.6,6.3,6.2
			C221.8,163.9,219.7,165.9,216.9,166.2z"/>
		<path class="st8" d="M13.9,265.5c-0.1-7.1,4.2-12.3,10.3-12.3c6-0.1,10.5,5.1,10.5,12.1s-4.5,12.4-10.3,12.4
			C18.3,277.7,14,272.7,13.9,265.5z"/>
		<path class="st8" d="M117.4,191.6c0.1,7-4.5,12.5-10.3,12.4c-6.1,0-10.3-5.1-10.3-12.3c0-7.3,4.1-12.3,10.2-12.3
			C113,179.3,117.4,184.4,117.4,191.6z"/>
		<path class="st9" d="M154.1,187.4c-1,0-2,0.2-3,0c-1.6-0.3-4.2,1.2-4.7-1c-0.5-2,1-4.1,2.9-5.4c2.5-1.7,5.1-2.2,8-1.1
			c2.7,1.1,4.9,3,4.5,5.9c-0.4,3.3-3.5,1-5.3,1.6C155.8,187.6,154.9,187.4,154.1,187.4z"/>
		<path class="st10" d="M22.6,40c-1.2,0-2.4,0.1-3.5,0c-1.5-0.2-3.8,1-4.4-1c-0.6-2,0.7-3.9,2.3-5.2c2.8-2.4,6.1-2.7,9.3-1.2
			c2.7,1.2,4.5,3.6,3.9,6.3c-0.5,2.4-3.4,0.7-5.1,1.1C24.3,40.2,23.4,40,22.6,40z"/>
		<path class="st11" d="M247.6,187.4c-1,0-2,0.1-3,0c-1.5-0.2-3.8,1-4.4-0.9c-0.7-2,0.8-3.9,2.4-5.1c2.8-2.3,6-2.8,9.3-1.1
			c2.5,1.2,4.3,3.4,3.8,5.9c-0.5,2.6-3.3,0.9-5.1,1.3C249.6,187.5,248.6,187.4,247.6,187.4z"/>
		<path class="st12" d="M209.9,122.1c1.5,0,3,0,4.5,0c1,0,1.5,0.5,1.5,1.5c0,1.4,0.4,3-1.2,4c-3,1.9-6.3,2.9-9.9,2.4
			c-2-0.3-3.9-1.3-3.9-3.8c-0.1-2.7,1.7-3.8,4.1-4.1C206.6,122,208.2,122.1,209.9,122.1L209.9,122.1z"/>
		<path class="st9" d="M364.5,187.4c-0.8,0-1.7,0.1-2.5,0c-1.6-0.4-4.2,1.2-4.7-1.1c-0.5-2,1-4.1,3-5.4c2.5-1.7,5.2-2.2,8-1
			c2.7,1.1,4.8,3.1,4.5,5.9c-0.4,3.3-3.5,1-5.3,1.6C366.6,187.6,365.5,187.4,364.5,187.4z"/>
		<path class="st13" d="M311.4,269.4c1.7,0.9,6-2.2,5.6,3.1c-0.3,4.2-4,4.2-6.9,4.9c-3,0.7-6.1,0.9-7.9-2.3c-1.1-2-0.1-3.8,2-4.8
			C306.4,269.2,308.8,269.3,311.4,269.4z"/>
		<path class="st14" d="M269.7,113.8c-0.8,0-1.7,0.1-2.5,0c-1.6-0.4-4.1,1.2-4.6-1.3c-0.5-2,0.9-3.8,2.5-5.1
			c2.5-1.9,5.2-2.6,8.4-1.4c3,1.2,5.1,3.3,4.6,6.3s-3.6,1-5.4,1.5C271.8,114,270.7,113.8,269.7,113.8z"/>
		<path class="st13" d="M418.6,269.3c1.5,1,4.7-1.8,5.4,2c0.8,3.9-2.2,4.9-4.9,5.7c-3.2,0.9-6.6,1.8-9.4-1.1c-1-1.1-1.3-2.5-0.5-3.7
			C411.4,268.7,415,269.5,418.6,269.3z"/>
		<path class="st15" d="M175.8,40c-1,0-2,0.1-3,0c-1.5-0.2-3.8,1-4.4-0.9s0.7-3.8,2.2-5.2c3.5-3.4,9.7-2.8,12.3,1.1
			c0.9,1.3,1.6,2.7,0.9,4.2c-0.7,1.6-2.3,0.7-3.5,0.8C178.8,40.2,177.3,40,175.8,40z"/>
		<path class="st16" d="M71.1,269.3c1.5,1.1,5-2.1,5.6,2.1c0.6,4.1-2.8,4.9-5.6,5.6c-3,0.8-6.3,1.4-8.8-1.2c-1-1-1.1-2.5-0.4-3.7
			c1.8-3.2,5-2.7,7.9-2.8C70,269.3,70.4,269.3,71.1,269.3z"/>
		<path class="st8" d="M99.5,43.7c0.1-7.1,4.4-11.7,10.8-11.7c6.2,0,10.6,5,10.6,12c0,7.1-4.8,12.3-11.1,12
			C103.6,55.8,99.4,50.7,99.5,43.7z"/>
		<path class="st8" d="M77.7,117.8c0,6.7-4.8,12.1-10.7,12.2c-5.9,0-10.9-5.4-11-12c-0.1-6.9,4.8-12.3,11.1-12.3
			C73.2,105.7,77.8,111,77.7,117.8z"/>
	</g>
</g>
</svg>
