<?xml version="1.0" encoding="utf-8"?>
<!-- Generator: Adobe Illustrator 22.1.0, SVG Export Plug-In . SVG Version: 6.00 Build 0)  -->
<svg version="1.1"
	 id="svg957" inkscape:version="0.92.2 (5c3e80d, 2017-08-06)" sodipodi:docname="Logo INSA Lyon (2014).svg" xmlns:cc="http://creativecommons.org/ns#" xmlns:dc="http://purl.org/dc/elements/1.1/" xmlns:inkscape="http://www.inkscape.org/namespaces/inkscape" xmlns:rdf="http://www.w3.org/1999/02/22-rdf-syntax-ns#" xmlns:sodipodi="http://sodipodi.sourceforge.net/DTD/sodipodi-0.dtd" xmlns:svg="http://www.w3.org/2000/svg"
	 xmlns="http://www.w3.org/2000/svg" xmlns:xlink="http://www.w3.org/1999/xlink" x="0px" y="0px" viewBox="0 0 127 64"
	 style="enable-background:new 0 0 127 64;" xml:space="preserve">
<style type="text/css">
	.st0{fill:#FFFFFF;}
	.st1{fill:#EE2922;}
	.st2{fill:#DD2922;}
	.st3{fill:#565353;}
</style>
<rect class="st0" width="127" height="64"/>
<sodipodi:namedview  bordercolor="#666666" borderopacity="1.0" fit-margin-bottom="10" fit-margin-left="10" fit-margin-right="10" fit-margin-top="10" id="base" inkscape:current-layer="layer1" inkscape:cx="102.29344" inkscape:cy="1.1208752" inkscape:document-units="mm" inkscape:pageopacity="0.0" inkscape:pageshadow="2" inkscape:window-height="837" inkscape:window-maximized="1" inkscape:window-width="1600" inkscape:window-x="-8" inkscape:window-y="-8" inkscape:zoom="3.959798" pagecolor="#ffffff" showgrid="false" units="px">
	</sodipodi:namedview>
<g id="layer1" transform="translate(-76.29476,-116.71723)" inkscape:groupmode="layer" inkscape:label="Calque 1">
	<path id="path422" inkscape:connector-curvature="0" class="st1" d="M97.4,170H86.3v-42.5h11.1V170z"/>
	<g id="g424" transform="matrix(0.70556941,0,0,-0.70556941,85.979777,119.58397)">
		<path id="path426" inkscape:connector-curvature="0" class="st1" d="M38.2-11.3l10.2-37.1h0.2v37.1h14.7v-60.2H46L35.4-34.3h-0.2
			v-37.2H20.5v60.2H38.2z"/>
	</g>
	<g id="g430">
		<g id="g436" transform="translate(350.5435,715.4449)">
			<path id="path438" inkscape:connector-curvature="0" class="st2" d="M-199.9-576.6c0-1.3-0.3-2.4-0.8-3.2
				c-0.5-0.9-1.3-1.3-2.4-1.3c-1.2,0-2.1,0.4-2.6,1.2c-0.6,0.8-0.8,1.6-0.8,2.6c0,1.4,0.4,2.5,1.3,3.3s2,1.5,3.4,2.1
				c1.4,0.6,2.8,1.2,4.4,1.8c1.6,0.6,3,1.4,4.4,2.4c1.4,1,2.5,2.3,3.4,3.9c0.9,1.6,1.3,3.7,1.3,6.3c0,4.5-1.3,7.8-3.9,9.9
				c-2.6,2-6.3,3.1-11.2,3.1c-2.3,0-4.4-0.2-6.1-0.6c-1.8-0.4-3.3-1-4.5-2c-1.2-0.9-2.1-2.2-2.8-3.7c-0.6-1.5-1-3.4-1-5.6v-1.5h10.8
				v1c0,1.8,0.3,3.1,1,3.8c0.7,0.7,1.6,1.1,2.6,1.1c1.2,0,2-0.4,2.7-1.2c0.6-0.8,0.9-1.8,0.9-2.9c0-1.4-0.4-2.5-1.3-3.3
				c-0.9-0.8-1.9-1.5-3.2-2.1c-1.3-0.6-2.7-1.2-4.2-1.8c-1.5-0.6-2.9-1.4-4.2-2.3c-1.3-1-2.4-2.2-3.2-3.8c-0.9-1.5-1.3-3.6-1.3-6.1
				c0-4.3,1.2-7.6,3.5-9.9c2.3-2.3,5.8-3.4,10.5-3.4c4.9,0,8.4,1,10.6,3.1c2.2,2.1,3.3,5.4,3.3,10h-10.4V-576.6z"/>
		</g>
	</g>
	<g id="g440" transform="matrix(0.70556941,0,0,-0.70556941,105.15285,119.58347)">
		<path id="path442" inkscape:connector-curvature="0" class="st1" d="M113.7-11.3l14.7-60.2h-16.8L110-61H97.5l-1.6-10.5H79.4
			l14.5,60.2H113.7z M103.7-23.6l-4.3-25.6h8.8l-4.3,25.6L103.7-23.6z"/>
	</g>
	<g id="g444" transform="matrix(0.70556941,0,0,-0.70556941,105.91296,119.57855)">
		<path id="path446" inkscape:connector-curvature="0" class="st3" d="M116.7-11.3h10.7v-45.2L116.7-11.3z"/>
	</g>
</g>
</svg>
