<?xml version="1.0" encoding="UTF-8" standalone="no"?>
<!-- Created with Inkscape (http://www.inkscape.org/) -->

<svg
   version="1.1"
   id="svg1"
   width="425.33334"
   height="390.66666"
   viewBox="0 0 425.33334 390.66666"
   xmlns="http://www.w3.org/2000/svg"
   xmlns:svg="http://www.w3.org/2000/svg">
  <defs
     id="defs1" />
  <g
     id="g1">
    <path
       id="path1"
       d="m 27.086,-95.289 219.777,62.938"
       style="fill:none;stroke:#000000;stroke-width:3.00943;stroke-linecap:butt;stroke-linejoin:miter;stroke-miterlimit:10;stroke-dasharray:none;stroke-opacity:1"
       transform="scale(1.3333333,-1.3314253)" />
    <path
       id="path2"
       d="m 289.078,-113.866 -42.305,81.515"
       style="fill:none;stroke:#000000;stroke-width:3.00943;stroke-linecap:butt;stroke-linejoin:miter;stroke-miterlimit:10;stroke-dasharray:none;stroke-opacity:1"
       transform="scale(1.3333333,-1.3314253)" />
    <path
       id="path3"
       d="m 289.656,-184.518 v 70.159"
       style="fill:none;stroke:#000000;stroke-width:3.00943;stroke-linecap:butt;stroke-linejoin:miter;stroke-miterlimit:10;stroke-dasharray:none;stroke-opacity:1"
       transform="scale(1.3333333,-1.3314253)" />
    <path
       id="path4"
       d="m 166.27,-148.947 80.484,116.596"
       style="fill:none;stroke:#000000;stroke-width:3.00943;stroke-linecap:butt;stroke-linejoin:miter;stroke-miterlimit:10;stroke-dasharray:none;stroke-opacity:1"
       transform="scale(1.3333333,-1.3314253)" />
    <path
       id="path5"
       d="m 166.27,-149.44 122.785,35.081"
       style="fill:none;stroke:#000000;stroke-width:3.00943;stroke-linecap:butt;stroke-linejoin:miter;stroke-miterlimit:10;stroke-dasharray:none;stroke-opacity:1"
       transform="scale(1.3333333,-1.3314253)" />
    <path
       id="path6"
       d="m 166.27,-148.967 122.785,-35.081"
       style="fill:none;stroke:#000000;stroke-width:3.00943;stroke-linecap:butt;stroke-linejoin:miter;stroke-miterlimit:10;stroke-dasharray:none;stroke-opacity:1"
       transform="scale(1.3333333,-1.3314253)" />
    <path
       id="path7"
       d="M 27.086,-95.551 166.383,-149.21"
       style="fill:none;stroke:#000000;stroke-width:3.00943;stroke-linecap:butt;stroke-linejoin:miter;stroke-miterlimit:10;stroke-dasharray:none;stroke-opacity:1"
       transform="scale(1.3333333,-1.3314253)" />
    <path
       id="path8"
       d="M 27.086,-95.551 130.949,-260.639"
       style="fill:none;stroke:#000000;stroke-width:3.00943;stroke-linecap:butt;stroke-linejoin:miter;stroke-miterlimit:10;stroke-dasharray:none;stroke-opacity:1"
       transform="scale(1.3333333,-1.3314253)" />
    <path
       id="path9"
       d="M 289.117,-184.326 130.91,-260.678"
       style="fill:none;stroke:#000000;stroke-width:3.00943;stroke-linecap:butt;stroke-linejoin:miter;stroke-miterlimit:10;stroke-dasharray:none;stroke-opacity:1"
       transform="scale(1.3333333,-1.3314253)" />
    <path
       id="path10"
       d="M 166.332,-148.967 130.91,-260.408"
       style="fill:none;stroke:#000000;stroke-width:3.00943;stroke-linecap:butt;stroke-linejoin:miter;stroke-miterlimit:10;stroke-dasharray:none;stroke-opacity:1"
       transform="scale(1.3333333,-1.3314253)" />
    <path
       id="path11"
       d="M 0,96.164 C 0,77.902 14.816,63.109 33.105,63.109 c 18.286,0 33.102,14.793 33.102,33.055 0,18.262 -14.816,33.055 -33.102,33.055 C 14.816,129.219 0,114.426 0,96.164 Z"
       style="fill:#99cde4;fill-opacity:1;fill-rule:evenodd;stroke:none"
       transform="scale(1.3333333)" />
    <path
       id="path12"
       d="M 213.668,33.055 C 213.668,14.797 228.484,0 246.773,0 c 18.289,0 33.106,14.797 33.106,33.055 0,18.261 -14.817,33.058 -33.106,33.058 -18.289,0 -33.105,-14.797 -33.105,-33.058 z"
       style="fill:#99cde4;fill-opacity:1;fill-rule:evenodd;stroke:none"
       transform="scale(1.3333333)" />
    <path
       id="path13"
       d="m 133.168,149.504 c 0,-18.262 14.816,-33.055 33.102,-33.055 18.289,0 33.105,14.793 33.105,33.055 0,18.262 -14.816,33.058 -33.105,33.058 -18.286,0 -33.102,-14.796 -33.102,-33.058 z"
       style="fill:#277c9d;fill-opacity:1;fill-rule:evenodd;stroke:none"
       transform="scale(1.3333333)" />
    <path
       id="path14"
       d="m 252.793,116.449 c 0,-18.261 14.816,-33.058 33.102,-33.058 18.289,0 33.105,14.797 33.105,33.058 0,18.262 -14.816,33.055 -33.105,33.055 -18.286,0 -33.102,-14.793 -33.102,-33.055 z"
       style="fill:#277c9d;fill-opacity:1;fill-rule:evenodd;stroke:none"
       transform="scale(1.3333333)" />
    <path
       id="path15"
       d="m 252.793,185.566 c 0,-18.261 14.816,-33.054 33.102,-33.054 18.289,0 33.105,14.793 33.105,33.054 0,18.262 -14.816,33.059 -33.105,33.059 -18.286,0 -33.102,-14.797 -33.102,-33.059 z"
       style="fill:#99cde4;fill-opacity:1;fill-rule:evenodd;stroke:none"
       transform="scale(1.3333333)" />
    <path
       id="path16"
       d="m 103.074,259.945 c 0,-18.261 14.985,-33.058 33.485,-33.058 18.488,0 33.472,14.797 33.472,33.058 0,18.258 -14.984,33.055 -33.472,33.055 -18.5,0 -33.485,-14.797 -33.485,-33.055 z"
       style="fill:#277c9d;fill-opacity:1;fill-rule:evenodd;stroke:none"
       transform="scale(1.3333333)" />
  </g>
</svg>
