<?xml version="1.0" encoding="utf-8"?>
<!-- Generator: Adobe Illustrator 22.1.0, SVG Export Plug-In . SVG Version: 6.00 Build 0)  -->
<svg version="1.1" id="Layer_1" xmlns="http://www.w3.org/2000/svg" xmlns:xlink="http://www.w3.org/1999/xlink" x="0px" y="0px"
	 viewBox="0 0 4273 3350" style="enable-background:new 0 0 4273 3350;" xml:space="preserve">
<style type="text/css">
	.st0{fill:#FDFDFD;}
	.st1{fill:#FFFFFF;}
	.st2{fill:#FFA600;}
	.st3{fill:#FF33B3;}
	.st4{fill:#FFE2AB;}
	.st5{fill:#FFCB69;}
	.st6{fill:#FF60C4;}
	.st7{fill:#FFE9C0;}
	.st8{fill:#FF5FC3;}
	.st9{fill:#FF92D6;}
	.st10{fill:#FFC963;}
	.st11{fill:#FF8CD4;}
	.st12{fill:#FFCFED;}
	.st13{fill:#FF4D00;}
	.st14{fill:#333333;}
	.st15{fill:#F1B498;}
	.st16{fill:#FFA451;}
	.st17{fill:#FFD9BB;}
	.st18{fill:#FFBA73;}
	.st19{fill:#FFC3B8;}
	.st20{fill:#FFA663;}
	.st21{fill:#F4DCD1;}
	.st22{fill:#FFC094;}
	.st23{fill:#FFFFFE;}
	.st24{fill:#FFA45D;}
	.st25{fill:#5A8080;}
	.st26{fill:#EAD7E6;}
	.st27{fill:#E3BAD9;}
	.st28{fill:#FF9F61;}
	.st29{fill:#9D8CA6;}
	.st30{fill:#8C91A0;}
	.st31{fill:#FFCBCD;}
	.st32{fill:#FFC7CE;}
	.st33{fill:#B32300;}
	.st34{fill:#C63A2F;}
	.st35{fill:#CC4340;}
	.st36{fill:#F9ACD2;}
	.st37{fill:#F9BED9;}
	.st38{fill:#D7ACCE;}
	.st39{fill:#D25554;}
	.st40{fill:#FACEE1;}
	.st41{fill:#9C95A9;}
	.st42{fill:#D96769;}
	.st43{fill:#F5CCD4;}
	.st44{fill:#E893A0;}
	.st45{fill:#F7A7CA;}
	.st46{fill:#FF8D00;}
	.st47{fill:#FF3300;}
	.st48{fill:#FEFEFE;}
</style>
<g>
	<g>
		<path class="st0" d="M2,1588C2,1059.4,2,530.8,2,2.1c1541.8,0,3083.7,0,4625.8,0c0,1116.6,0,2233.3,0,3349.9
			c-993.9,0-1987.8,0-2981.8,0c-0.7-1-0.6-1.9,0.2-2.7c14.9-6,30.9-3.8,46.4-5.5c52.1-5.5,103.7-13.1,154.9-24.3
			c79-17.3,155.9-41.5,230.3-73.1c52.8-22.4,104.1-47.9,153.5-77.1c67.6-39.9,131-85.6,191-136.3c25.5-21.5,49.7-44.4,73.2-67.9
			c24-24,47.2-48.8,69.2-74.8c31.7-37.4,61.5-76.2,89.2-116.6c26.2-38.3,49.7-78.1,72-118.8c19.4-35.4,36.4-72,52.2-109
			c14-32.8,26.6-66.2,37.8-100.1c17.7-23.3,37-45.3,54.7-68.6c39.2-51.4,75.3-104.7,107.6-160.7c27.2-47,51.4-95.4,73.5-145
			c1.5-3.3,2.8-6.8,6.7-8.2c1.1,0,2,0.4,2.8,1.2c1.9,2.4,4,4.6,7.3,4.6c29.4,0.4,58.7,0.7,86-13.1c19.7-10,32.7-26,41.6-45.6
			c14.1-31.3,24.7-64,36.6-96.2c27.1-73.1,54-146.2,80.9-219.4c15.2-41.3,30.6-82.5,45.6-123.8c3.5-9.5,2.9-10.3-7.1-10.3
			c-23.7-0.1-47.3,0.2-71-0.2c-8.3-0.1-12.7,2.9-15.1,11c-21,68.5-44.3,136.2-65.6,204.6c-1.4,4.3-2,10.9-6.9,11.2
			c-6,0.3-6.3-6.8-7.8-11.2c-8.9-26.5-18.1-53-26.4-79.7c-0.4-1.3-0.5-2.6-0.5-4c5.9-41.9,8.6-84.1,12.4-126.1c0.3-3,0.2-6,0.2-9
			c0.5-19.6-1.2-39.3,1.8-58.9c1.6-10.3-1.9-20.6-1.7-30.8c0.7-56.4-4.9-112.3-12-168.2c-8.2-63.6-20.9-126.2-37.9-188
			c-21.8-79.5-50.2-156.6-85.2-231.4c-41.4-88.5-91.2-171.8-149.2-250.3c-41.7-56.3-87.6-108.9-136.6-159
			c-73-74.6-153.3-140.2-240.1-197.9c-74.8-49.7-153.9-91.8-236.4-127.4c-99.9-43.2-203.3-74.4-309.9-95.3
			c-48.4-9.5-97.2-16.6-146.3-21c-24.5-2.2-49.1-3.4-73.7-5c-30.3-1.9-60.6-0.9-90.9-1.4c-37.3-0.7-74.4,2.9-111.6,5.5
			c-35.6,2.5-70.9,7-106.1,12.5c-122.8,18.9-241.5,52.9-356,100.9c-112.1,47-216.7,107.3-314.1,179.9
			c-44.1,32.9-85.9,68.4-126.4,105.8c-85.4,78.9-159.4,167.2-224.3,263.5c-7.4,11-13.2,23.2-23.1,32.5
			c-48.1,49-92.9,100.9-133.3,156.5c-41.2,56.7-77.8,116.3-109.5,178.7c-40.6,79.8-72.7,163-96.1,249.5
			c-17.7,65.4-30.1,131.7-38.2,199c-2.7,22.5-3,45.1-6.5,67.5c-1.2,3.6-1.5,7.4-2.1,11.2c-0.3,0.9-0.7,1.8-1.3,2.5
			C3.6,1588.7,2.8,1588.7,2,1588z"/>
		<path class="st1" d="M1492,3352c-496.7,0-993.3,0-1490,0c0-542.7,0-1085.3,0-1628c6.7,1.6,3.5,8,5.7,11.7
			c4.3,43.3,8,86.7,14.8,129.8c10,63.3,24.4,125.5,43.6,186.6c19.6,62.3,43,123.3,72,181.9c42.5,85.9,92.6,167.1,152.3,242.2
			c18.9,23.7,39.3,46.1,58.3,69.7c1.7,1.9,3.4,3.8,5.1,5.7c8.4,12.2,13.1,26.2,19.2,39.5c22.9,49.7,49.6,97.3,78.5,143.7
			c28.6,45.9,60.1,89.7,94.5,131.3c38.4,46.5,79.2,90.8,123.7,131.6c38.1,35,77.5,68.2,119.2,98.7c54.7,40,112.2,75.4,172.3,106.6
			c66.1,34.4,134.6,62.9,205.5,85.3c77,24.3,155.6,41.9,235.9,51.4c27.8,3.3,55.6,5.4,83.4,7.8c2,0.2,4,0.5,5.7,1.7
			C1492.6,3350.1,1492.7,3351,1492,3352z"/>
		<path class="st2" d="M348,2548.1c-37-40.7-71.3-83.5-103-128.5c-65-92.1-117.3-191-157-296.5c-22.4-59.5-40.3-120.4-53.9-182.6
			c-9.8-44.9-17-90.2-22.3-135.8c-2.7-22.8-3.7-45.8-6-68.6c-1.7-13-2-26.2-2.8-39.3c-0.6-6.9,1.2-13.9-1-20.7c0-12.7,0-25.3,0-38
			c1.7-12.9,2-25.9,2-38.9c0-3.6-0.4-7.2,0.7-10.7c0.9-4.1-0.6-8.4,1-12.4c2.8-39.9,6.6-79.7,12.7-119.1
			c5.4-34.8,12.1-69.5,20.1-103.8c21.8-93.4,53.6-183.3,95-269.7c34.2-71.3,74.7-139,121.1-203.1c39.9-55.2,84.1-106.7,131.6-155.4
			c1.1-1.2,2.6-2.1,3.8-3.1c2.8,5.8-1.8,9.5-4.2,13.4c-24.8,41.3-48.3,83.4-69.1,126.8c-16.4,34.1-32.1,68.6-45.2,104.1
			c-0.8,2.2-1.6,4.4-3.1,6.2c-1.6,1.7-3.4,3.3-4.6,5.4c-1.7,3-3.3,6-5.1,8.9c-19.6,32.5-38.6,65.4-55.9,99.3
			c-40.1,78.7-71.1,160.8-94,246c-16.1,60.3-27.4,121.5-34.3,183.5c-6.7,60-9.8,120.2-7.6,180.4c2.4,65.2,8.9,130.1,21.2,194.4
			c19.5,102.3,50.6,200.7,94.3,295.3c31.2,67.7,68.3,131.8,110.8,193c3,4.1,4.5,8.9,5.8,13.7c13.9,48.6,30.2,96.3,49.4,143
			c1.6,3.9,3.9,7.8,2.2,12.4C350,2548.6,349.1,2548.8,348,2548.1z"/>
		<path class="st3" d="M350.3,2548c-6.1-15.8-12.3-31.5-18.3-47.3c-12.7-34.2-24.6-68.6-34.3-103.8c-1.5-5.4-2.6-11-5.6-15.9
			c-13.1-32-18-66.1-24.9-99.6c-8.2-40.1-13.8-80.7-17.4-121.5c-2.3-25.8-4.9-51.7-4.9-77.6c0-13-0.8-26-1-38.9
			c-0.4-25.9,0.5-51.8,2.4-77.6c6-4.6,6.3,1.8,7.3,4.5c5.3,14.3,9.9,28.8,15.6,43c2.4,5.8,5.9,11.2,6,17.8
			c-1,33.3-0.2,66.5,2.6,99.8c2.9,34.9,6.5,69.6,11.9,104.2c11,70.3,27.8,139.1,50,206.7c0.6,2,1.2,4.1,1.9,6.2
			c18.2,54.5,40.2,107.4,65.8,158.8c1.2,3.2,2.5,6.4,4.6,9.2c16.1,31.1,32.7,61.9,51.1,91.7c37.2,60.2,78.5,117.4,125.1,170.7
			c23.3,26.6,46.7,53,72.1,77.5c52.9,50.9,108.9,98.1,169.3,139.9c59.3,41.1,121.6,77.1,186.8,107.8
			c86.9,40.9,177.3,71.5,271.1,92.2c47.6,10.5,95.6,18.3,144,23.2c23.1,2.3,46.4,3.8,69.7,5c27,1.5,53.9,2.1,80.9,1.6
			c91.2-1.5,181.2-11.8,270.3-32c76-17.2,149.7-41.1,221.3-71.7c65.1-27.8,127.3-61,187-99.1c45.3-28.9,88.5-60.6,129.9-94.9
			c45.7-37.9,88.3-79.1,128.4-122.9c41.7-45.5,79.8-93.9,114.7-144.8c25.8-37.7,49.5-76.7,70.9-117.1
			c23.1-43.6,44.4-88.1,62.2-134.1c1.6-4,3.4-8,3.7-12.4c0.5-3.9,3.1-6.5,5.7-9c11.9-11.4,22.5-24.1,33.2-36.6
			c2.1-2.4,3.9-5.5,8-4.4c-7.8,27.2-18.3,53.5-28.8,79.7c-31.5,78.8-70.7,153.6-116.8,224.8c-36.7,56.6-77.5,110-122.3,160.3
			c-54.9,61.6-115.1,117.5-180.4,167.9c-73.1,56.4-151.3,104.4-234.3,144.4c-57.4,27.7-116.6,50.9-177.4,69.7
			c-56.6,17.5-114.2,31.4-172.7,40.9c-40.4,6.6-80.9,12.1-121.9,14.3c-5.6,0.3-11.3,1.2-16.9,1.7c-4,1.6-8.2,0.4-12.3,0.8
			c-6.5,0-13.1,0-19.6,0c-9.4,0.6-18.8-1.3-28.2,1c-13.3,0-26.7,0-40,0c-10.1-2.2-20.3-0.5-30.4-1c-7.9-0.4-15.9,0.8-23.9-0.7
			c-34.6-2.1-69-5.3-103.3-9.8c-52.5-6.8-104.4-17.2-155.6-30.4c-82.8-21.3-162.6-50.7-239.6-87.9
			c-72.1-34.8-140.6-75.9-205.2-123.3c-67.3-49.4-129.5-104.5-186.5-165.6c-62.1-66.5-116.7-138.5-163.9-216.2
			c-28.4-46.7-54.1-94.9-75.9-145c-2.9-6.7-6.4-13.2-9.5-19.8C351.2,2551.1,350.5,2549.6,350.3,2548z"/>
		<path class="st4" d="M4.1,1695.9c1.1,13.4,2.4,26.7,1.7,40.1c-3.4-3.3,0-8.8-3.8-12.1c0-9.3,0-18.7,0-28
			C2.7,1695.1,3.4,1695.1,4.1,1695.9z"/>
		<path class="st5" d="M5.6,1587.8c1.7,16.1-1.3,31.9-2,47.9c0,0.8-1,1.6-1.6,2.4c0-7.3,0-14.7,0-22c2.9-9.2-0.7-18.8,1.9-28l0,0
			C4.4,1587.2,5,1587.1,5.6,1587.8z"/>
		<path class="st6" d="M1515.9,3350.2c7.6,0,15.2-0.1,22.8-0.1c2.6,0,5.4-0.5,7.3,1.9c-10,0-20,0-30,0c-0.6-0.4-0.8-0.8-0.7-1.2
			C1515.5,3350.4,1515.7,3350.2,1515.9,3350.2z"/>
		<path class="st7" d="M3.9,1588c-0.5,9.4,1.7,18.9-1.9,28c0-9.3,0-18.7,0-28C2.6,1588,3.3,1588,3.9,1588z"/>
		<path class="st8" d="M1586,3352c3.3-3.4,7.5-1.7,11.3-1.9c5.6-0.2,11.2,0,16.8,0.1c0.6,0.5,0.7,0.9,0.5,1.3
			c-0.2,0.4-0.4,0.6-0.6,0.6C1604.7,3352,1595.3,3352,1586,3352z"/>
		<path class="st9" d="M1515.9,3350.2c0.1,0.6,0.1,1.2,0.1,1.8c-8,0-16,0-24,0c0-0.6-0.1-1.2-0.2-1.7
			C1499.8,3350.2,1507.8,3350.2,1515.9,3350.2z"/>
		<path class="st10" d="M4.1,1695.9c-0.7,0-1.4,0.1-2.1,0.1c0-6.7,0-13.3,0-20C6,1682.3,3.8,1689.2,4.1,1695.9z"/>
		<path class="st11" d="M1614,3352c0-0.6,0.1-1.2,0.1-1.8c6.7,0.1,13.4,0.1,20.1,0.2c0.5,0.4,0.6,0.8,0.4,1.2
			c-0.2,0.3-0.4,0.5-0.6,0.5C1627.3,3352,1620.7,3352,1614,3352z"/>
		<path class="st12" d="M1634,3352c0-0.6,0.1-1.1,0.2-1.7c4,0,7.9-0.1,11.9-0.2c0,0.6-0.1,1.2-0.1,1.8
			C1642,3352,1638,3352,1634,3352z"/>
		<path class="st13" d="M2817.6,2446.3c-6.4,4.9-10.8,11.6-16,17.5c-9.4,10.7-19.2,21.1-29,31.4c-1.9,5.8-5.5,10.5-9.8,14.8
			c-40.3,40.8-82.5,79.5-126.9,115.9c-95.9,78.6-200,144.1-312,196.9c-83.7,39.5-170.3,71-259.9,94.5
			c-77.5,20.3-156.2,34.7-235.8,42.7c-40,4-80.2,6.4-120.6,7.2c-31.6,0.7-63.2-1.5-94.8-0.5c-14.7,0.4-29.2-1.9-43.8-3
			c-21.5-1.4-43.1-2.3-64.5-4.8c-67.1-7.9-133.6-18.5-199-35.5c-79.6-20.1-157.3-45.7-232.9-77.7C997.5,2814,926,2775.7,857,2732.4
			c-68.7-43.1-133.3-91.9-194-145.6c-45.9-40.5-88.8-84.3-129.5-130.2c-38.7-43.7-74.5-89.7-107.9-137.4
			c-26.6-37.9-50.9-77.3-73.4-117.8c-28-50.4-53.5-102.1-75.3-155.5c-2.2-5.3-3.8-10.6-3.7-16.4c-9.5-21.1-16.5-43.2-24.6-64.8
			c-5.3-3-5.9-8.6-7.5-13.6c-23.5-70.6-41.6-142.6-53.8-216.1c-9.4-56.6-15.3-113.4-18.5-170.7c-2.4-42.7-2.5-85.3-1-127.9
			c1.8-51.2,6.7-102.3,14-153.1c11.5-79.4,29.9-157.1,53.9-233.5c6.6-20.9,13.4-41.9,22.2-62.1c1.9-3.7,3.8-7.3,5.3-11.1
			c1-1.7,1.9-3.4,3.4-4.8c20-52.8,43.7-103.9,69.7-153.9c16.1-30.9,33.9-60.8,51.8-90.7c1-1.7,2.2-3.3,2.2-5.4
			c6.2-7,11.1-14.9,16.2-22.7c46.4-71.8,99.4-138.6,157.6-201.1c46.8-50.3,97.1-97.1,150.5-140.3c47.4-38.4,97-73.8,148.7-106.2
			c73.2-46,149.9-85.3,229.8-118.2c67.2-27.7,136.2-50.1,206.6-67.8c47.5-12,95.5-21.7,143.9-28.7c40.8-6,81.9-10.4,123.2-13.1
			c54.6-3.7,109.2-4.5,163.8-2.5c49,1.8,97.7,6.1,146.3,12.5c56.9,7.4,113.1,18.2,168.6,32.1c88,22,173.4,51.7,256.1,89.2
			c87.3,39.6,170.1,86.9,248.5,142.2c79.5,56.1,152.8,119.3,219.9,189.6c78.3,82,146.3,171.8,204.1,269.5
			c43.2,73,79.6,149.2,109.5,228.5c24.4,64.8,43.9,131.3,58.5,199c9.4,43.6,16.9,87.6,22.2,131.9c6,50.3,9.6,100.8,10.4,151.4
			c0.7,45.3-0.5,90.5-3.9,135.8c-2.2,28.2-5.1,56.4-8.8,84.4c-0.2,1.6-0.9,3.2-1.3,4.7c-2.4-0.8-3.7-2.8-4.4-5
			c-5.1-15.5-11.6-30.7-14.7-46.9c-0.1-3.2-0.1-6.4-0.1-9.6c6.6-59.4,6.3-119,6.2-178.6c-0.1-29.7-3.4-59.1-5.6-88.6
			c-3.8-51.9-12-103.2-22.2-154.2c-8-40.2-18-80-29.6-119.3c-16.6-56.3-36.4-111.6-60.1-165.3c-25-56.7-53.3-111.8-85.4-165
			c-40-66.4-85.2-129-134.8-188.4c-35.3-42.2-73.4-81.9-113.4-119.6c-93.6-88.2-196.9-163.1-310-224.5
			c-104.2-56.5-213.6-99.8-328.2-130.2c-76.8-20.4-154.7-34.7-233.8-42.3c-31.8-3.1-63.6-5.3-95.6-6.2c-20.6-0.6-41.2-1.8-61.9-1.5
			c-39.9,0.5-79.8,2.4-119.6,5.5c-54.2,4.2-107.9,11.8-161.3,21.8c-53.1,10-105.5,23-157.1,38.9c-81.3,25.2-160.2,56.7-236,95.6
			c-102.3,52.6-197.8,115.5-285.6,190.2c-26.1,22.3-51.6,45.3-76.2,69.1c-53.3,51.5-101.6,107.5-146.7,166.2c-2,2.1-3.9,4.4-5.4,6.9
			c-37.7,51.2-72.3,104.5-103.3,160c-11.7,20.9-23,42-33.3,63.7c-0.4,0.9-0.8,1.8-1.2,2.7c-0.8,1.9-1.5,3.9-2.4,5.8
			c-36.4,74.4-65.3,151.6-88.1,231.2c-15.7,54.8-27.8,110.5-36.8,166.7c-6.5,40.7-11.1,81.7-13.3,123c-1.7,31.9-3.9,63.7-3.8,95.7
			c0.2,68.3,4.8,136.3,14.4,203.9c9.6,67.7,24.2,134.3,43.3,200c5.7,22.2,13.4,43.8,21,65.5c12.6,39.4,28.9,77.4,45.6,115.2
			c25.4,57.4,54.8,112.6,87.9,165.9c39.6,63.8,83.9,124.2,132.7,181.3c30.8,36,63.6,70.1,97.5,103c40.4,39.3,83.4,75.6,128.1,109.8
			c85.5,65.5,177.6,120.4,275.1,165.8c77.5,36.1,157.6,65.1,240.3,86.9c44.2,11.6,88.7,21.5,133.7,29.4c43,6.4,86.1,12.6,129.5,15.7
			c26.5,1.9,52.8,5.2,79.5,4.8c14.6-0.2,29.2-0.8,43.7,1.9c5.4,1,11.3,0.8,16.8-0.5c4.6-1.1,9.3-1.1,13.9-1
			c35.7,0.9,71.1-3,106.6-5.6c56.9-4.1,113.2-13.1,169-24.3c96.7-19.4,190.3-49.1,281.3-87.1c85.7-35.8,167-80.1,244.3-131.7
			c60.5-40.4,117.7-85,171.7-133.8c43.6-39.3,84.2-81.4,123-125.4c14.9-15.4,27.9-32.4,41.2-49.2c55-69.4,103.5-142.9,145-221.2
			c25.8-48.7,48.8-98.5,68.8-149.7c1.5-3.7,2.6-7.6,4.9-10.9c2-2.9,4.3-4.6,6.4,0.2c1.7,19.8,1.5,39.6,0.1,59.4
			c-0.6,2.5-2.3,4.2-4.1,5.9c-17.9,38.6-35.6,77.3-55.9,114.8c-34,62.8-72.1,122.8-114.7,180.1c-20.7,27.8-42.4,54.8-64.8,81.1
			C2820.8,2442.1,2819.3,2444.2,2817.6,2446.3z"/>
		<path class="st14" d="M3897.4,1590.2c4.3-1,5.7-3.4,7.7-5.1c29.7-25.1,64.2-34.1,102.4-30.3c13.6,1.3,27,4.4,39.5,10.2
			c37.2,17.3,58.4,47.2,67,86.6c2.8,13,3.9,26.3,3.9,39.7c0,77,0,153.9,0,230.9c0,1.3,0,2.7,0,4c-0.2,7.4-0.2,7.6-7.9,7.6
			c-25.7,0.1-51.3,0-77,0c-9.6,0-9,0.6-9-9.4c0-70.6,0-141.3,0-211.9c0-10-0.7-19.9-3.1-29.7c-9.2-36.2-40.9-46.9-65.8-43.9
			c-33.3,4-53.2,25.7-55,59.3c-0.3,4.7-0.2,9.3-0.2,14c0,70.3,0,140.6,0,210.9c0,11.8,1.2,10.8-10.6,10.8c-25.3,0-50.6,0-76,0
			c-7.2,0-7.2-0.1-7.3-7c-0.1-7.7,0-15.3,0-23c0-111.3,0-222.6,0-333.8c0-13.7-1.4-11.8,11.5-11.8c24-0.1,48-0.1,72,0
			c8.1,0,8.1,0.1,8.2,8.3C3897.4,1574.1,3897.4,1581.7,3897.4,1590.2z"/>
		<path class="st14" d="M3398.5,1745.6c0.8-26,0.9-52.4,7.3-78.2c14.6-59.2,52.4-95.2,111.1-109c34.4-8.1,69.1-6.4,102.3,6.1
			c51.6,19.5,82.9,57.2,92.1,111.4c8.1,48.2,8.7,97-1.2,145.1c-12.6,61.1-51.4,97.9-111.2,112.3c-36.4,8.7-73.1,6.8-107.9-7.8
			c-48.6-20.4-77.2-57.4-86.9-109.1C3399.6,1793.1,3399.2,1769.5,3398.5,1745.6z"/>
		<path class="st14" d="M3143.4,1640.2c4.9,17.5,11,34.6,17.1,51.7c10.5,31.9,21,63.8,31.6,95.6c0.5,0,1,0,1.6,0
			c4.8-14.8,9.6-29.6,14.4-44.3c19-58.9,38.1-117.8,57.1-176.6c2.7-8.2,2.7-8.3,10.7-8.3c29.6,0,59.3,0,89.2,0
			c1.6,3.8-0.7,6.7-1.8,9.5c-40.4,109.9-80.9,219.8-121.5,329.7c-11.9,32.2-23.8,64.3-35.7,96.4c-3.2,8.7-7,17.3-11.4,25.5
			c-16.7,31.1-43.5,46.7-77.7,50.7c-16.6,1.9-33.3,1.1-49.9,1.5c-6.2,0.2-7.2-2.9-7.1-7.7c-1-1.3-0.9-2.7-0.1-4.1
			c0.5-21.2,0.6-42.4-0.1-63.6c-3.2-5.3-2.6-9.6,3.5-12.3c7.5-1.4,15.2-0.6,22.8-0.8c17.3,1.5,29.6-5.6,36.4-21.7
			c6.8-16.3,11.8-33.2,17.8-49.7c1.4-3.9,0.5-7.8-0.9-11.7c-4.3-11.9-8.6-23.7-13.1-35.5c-5.3-14.4-10.1-28.9-16.1-43
			c-25.2-69.4-50.8-138.7-76.4-208c-5.4-14.7-10.8-29.3-16.2-44c-4.2-11.5-2.5-14,9.2-14.1c26.6-0.2,53.2-0.1,79.9-0.1
			c6.2,0,11.1,1.5,13.2,8.2c6.8,22.3,16,43.8,22.2,66.2C3141.8,1633.2,3142.7,1636.7,3143.4,1640.2z"/>
		<path class="st14" d="M4511.4,1521.9c-35.6,30.9-69.4,60.1-103.4,89.6c-2.2-3.6-1.4-6.3-1.4-8.9c-0.1-27.3,0.2-54.6-0.2-81.9
			c-0.1-6.7,2.2-11,7.1-15.3c30.8-26.5,61.5-53.2,92-80c4.1-3.6,8.2-5,13.5-4.9c25.6,0.2,51.3,0.1,76.9,0.1c9,0,9,0.1,9,9.5
			c0,71.3,0,142.6,0,213.9c0,92.3,0,184.5,0,276.8c0,15.6,1.4,12.9-13.5,13c-24.3,0.2-48.6,0.1-73,0c-7,0-7-0.2-7.2-7.2
			c-0.1-2.3,0-4.7,0-7c0-128.2,0-256.5,0-384.7C4511.4,1531.4,4511.4,1527.9,4511.4,1521.9z"/>
		<path class="st7" d="M5.6,1587.8c-0.6,0.1-1.1,0.2-1.7,0.2c0.4-4-1.2-8.3,1.8-12C6.6,1579.9,5.9,1583.8,5.6,1587.8z"/>
		<path class="st15" d="M3059.8,2059.7c0,1.4,0,2.7,0.1,4.1c-0.6,0.1-1.2,0.1-1.9,0.2C3057.7,2062.2,3058.4,2060.8,3059.8,2059.7z"
			/>
		<path class="st16" d="M350.3,2548c1.6,1,1.8,2.7,1.8,4.3c-1.9-0.9-3.5-2.1-4.1-4.3C348.8,2548,349.6,2548,350.3,2548z"/>
		<path class="st1" d="M260.2,986.2c-2.4,7.3-4.6,14.6-7.2,21.8c-22.7,63-40.3,127.4-53.9,192.9c-10,48.2-17.4,96.9-22.2,146
			c-7.6,78-9.2,156.2-4.5,234.4c4.2,70.2,13.5,139.8,28,208.6c11.9,56.6,26.8,112.6,45.9,167.3c0.9,2.5,1.6,5.1,2.4,7.6
			c-2,45.9-2.3,91.9,0,137.8c2.2,44.9,6.8,89.6,13.8,134c7.2,45.7,16.7,90.9,28.4,135.7c0.8,2.9,1.7,5.7,1.5,8.8
			c-17.8-23.4-33-48.4-48.2-73.5c-29.4-48.5-55.1-98.9-77.5-151c-23.4-54.5-43-110.4-58.4-167.7c-15.6-57.9-27.1-116.6-34.4-176.2
			c-8.1-65.6-11.1-131.4-9-197.5c2.1-67,9.6-133.5,22.2-199.3c16.6-86.3,42-169.9,76.1-250.8c26.1-61.8,56.7-121.2,92.7-177.9
			c0.7-1.1,1.5-2.2,2.3-3.2C259.8,983.5,260.8,984,260.2,986.2z"/>
		<path class="st17" d="M260.2,986.2c-0.8-0.8-1.5-1.5-2.3-2.3c0.6-3.1,2.9-5.2,4.3-7.8c0.7-0.8,1.5-0.9,2.2-0.1
			C263.7,979.7,262.6,983.2,260.2,986.2z"/>
		<path class="st18" d="M264.4,976c-0.7,0-1.5,0.1-2.2,0.1c0.6-2.2,1.9-3.8,4.3-4.2C266,973.4,266.1,975.1,264.4,976z"/>
		<path class="st1" d="M1569.3,2961.3c25.9,3,51.9,2.6,77.8,3.2c46.3,1.1,92.5-0.6,138.7-3.8c36.9-2.6,73.6-6.7,110.2-11.9
			c47.8-6.7,95.1-16.1,142-27.7c69.9-17.2,138.2-39.1,205-66.1c55.3-22.3,109.1-47.8,161.4-76.4c56.8-31,111.3-65.6,163.5-103.7
			c47.1-34.4,92.2-71.3,135-111c23.9-22.2,47.2-45.1,69.6-68.8c2.5,2.7,0.2,5.1-0.6,7.4c-13.4,35.5-28.9,70.2-45.7,104.2
			c-15.5,31.4-32.2,62.1-50.2,92.1c-30.8,51.1-64.8,100-102.4,146.5c-50,61.8-105,118.7-165.3,170.6c-37.2,32-76,61.8-116.5,89.3
			c-47.4,32.2-96.8,61.2-148.2,86.8c-75.3,37.5-153.5,67.5-234.6,89.9c-48.5,13.4-97.6,23.9-147.3,31.4
			c-33.5,5.1-67.3,8.7-101.2,11.1c-43.9,3.1-87.8,4.4-131.8,3c-45.3-1.4-90.3-5.1-135.3-11c-71.5-9.4-141.6-24.7-210.3-46
			c-74.3-22.9-145.9-52.4-214.9-88.5c-74-38.7-143.7-84.1-209-136.1c-54.4-43.2-104.9-90.5-151.6-141.9
			c-48.2-53.1-92-109.8-130.6-170.3c-24.4-38.2-47.4-77.2-67.2-118c-0.1-2.2,1.3-2.7,3.1-2.9c5,1,7.8,4.9,11.1,8.1
			c59.3,56.4,123.9,106,192.7,150.4c40.9,26.4,83.4,50.2,126.8,71.9c44.7,22.4,90.8,41.7,137.9,58.5
			c56.9,20.3,114.7,37.1,173.8,49.4c48.9,10.2,98.3,17.3,148.1,22.3c51.5,5.2,102.9,6,154.6,5.7c48.3-0.3,96.3-5.5,144.2-11
			C1524.4,2965.8,1546.6,2960.4,1569.3,2961.3z"/>
		<path class="st1" d="M273.2,2029.5c18.3,47.6,40.2,93.6,63.9,138.7c47.3,90,103.7,173.9,168.4,252.1
			c42.8,51.7,88.9,100.1,138.3,145.6c72.8,67,151.5,126.2,235.9,177.8c62.3,38.1,127.1,71.4,194.3,100
			c66.5,28.3,134.8,51.8,204.7,70.2c8.3,2.2,16.4,5.4,25.1,6.5c-2.2,6.3-7.8,4.4-11.8,4c-24.2-2.1-48.5-1.9-72.7-4.2
			c-45.1-4.3-89.9-10.3-134.4-19c-45.1-8.9-89.7-20.1-133.6-33.7c-75-23.2-147.1-53.6-216.4-90.3c-68.1-36.1-132.3-78.4-192.8-126.3
			c-43.4-34.4-84.3-71.5-122.9-111.1c-24.9-25.5-48.2-52.4-71.2-79.6c-2.6-3.1-4.6-6.5-6.4-10.1c-0.6-2.5-2.5-4.3-3.5-6.5
			c-9.4-23.2-15.2-47.5-22-71.4c-14-49.6-24-100.2-31.4-151.2c-5.3-36.2-8.6-72.6-11.1-109.1c-1.6-24.3-1.3-48.5-2.1-72.8
			C271.4,2035.8,270.6,2032.4,273.2,2029.5z"/>
		<path class="st2" d="M341.7,2448c41.3,51.2,86,99.2,134.6,143.4c52.8,48.1,109.3,91.5,169.4,130.2
			c77.9,50.2,160.3,91.1,247.1,123.2c55.3,20.5,111.9,36.7,169.6,49c41.7,8.9,83.7,15.6,126.1,20.4c34.4,3.8,69,6,103.6,7.3
			c3.9,0.1,8,1,11.7-1.2c24.2,5.4,48.3,11.8,72.7,16.1c23.1,4,46.2,8.8,69.5,11.8c24,3.1,47.8,7.1,71.9,9.4
			c13.8,1.3,27.7,3.4,41.7,2.6c3.2-0.2,6.7-1.1,9.7,1.1c-16.8,2.5-33.5,5.2-50.3,7.4c-29.7,4-59.4,7.3-89.3,9.7
			c-50.9,4.2-101.8,4.5-152.8,2.8c-41.3-1.4-82.4-5.3-123.3-10.6c-49.6-6.4-98.6-15.8-147-27.9c-58.5-14.6-115.7-33.2-171.7-55.7
			c-95.9-38.6-186-87.7-270.3-147.4c-52.3-37-101.8-77.4-148.1-121.8c-1.4-1.4-3-2.6-4.5-3.9c-2.8-1.1-4.2-3.7-6-5.7
			c-9.6-16-16.3-33.5-23.9-50.4c-15.2-33.6-28.8-67.9-40.5-103c-0.7-2.2-1.2-4.5-1.8-6.7C340.4,2447.2,341.1,2447.3,341.7,2448z"/>
		<path class="st19" d="M405.9,2608.2c2.6,1.3,4.8,3.1,6,5.7c-0.7,0.7-1.5,1.3-2.2,2C407.4,2613.9,406.3,2611.2,405.9,2608.2z"/>
		<path class="st20" d="M341.7,2448c-0.7,0-1.4,0-2,0c-1.7-1.1-1.7-2.7-1.6-4.4C339.9,2444.6,341.2,2446,341.7,2448z"/>
		<path class="st1" d="M3063.1,1986c-5,2.1-2.2,6.8-3.4,10.1c-7.9,15-13.1,31.2-19.6,46.8c-21.1,50.3-45.1,99.3-71.8,146.9
			c-32.3,57.6-68.6,112.5-108.2,165.2c-7,9.3-13.9,18.6-22,27c-3.1-3.7-1.3-7.6-0.4-11.4c11.1-44.2,21-88.8,27.7-133.9
			c7-47.4,11.8-95,14.1-142.9c1.4-29.6,1.2-59.2,1.4-88.8c0.1-19.9-1.9-39.8-3.1-59.7c-0.3-4.3-1.1-8.7,2.4-12.2
			c4.9-2.8,10.3-2.2,15.6-2.2c40.9-0.1,81.8,0,122.7-0.1c13.6,0,14.2-0.6,14.2-13.9c0.1-18.6,0.1-37.3,0-55.9
			c0-13.2-0.6-13.8-14.3-13.8c-43.9-0.1-87.8,0-131.7,0c-5.3,0-10.7,0.6-15.7-1.7c-4.1-2.8-4.3-7.4-5-11.5
			c-12.8-83.9-34.2-165.7-62-245.8c-2.2-6.4-2.9-12.9-2.9-19.6c0.1-44.6,0.1-89.3,0-133.9c0-3.5,1.5-7.4-1.8-10.3
			c-13.9-2.6-27.8-0.6-41.7-1.2c-7.6-0.3-15.3,0.6-22.8-0.8c-4-1-5.6-4.4-7.3-7.6c-30.7-55.3-63.7-109.2-101.5-160.1
			c-19.5-26.2-39.6-51.8-60.8-76.6c-1.9-2.3-4-4.5-5.2-7.3c-1.5-3.7-2.5-7.5-4.3-11c-13.6-31.9-27.7-63.5-43.2-94.5
			c-33-66.4-71.8-129.3-115.5-189.1c-30.9-42.2-64.6-82.2-100.1-120.6c-72.7-78.8-154.3-147-243.7-205.8
			c-117.9-77.6-245.3-134.2-381.5-170.8c-63.2-17-127.3-29.1-192.3-36.3c-45.3-5-90.7-8.5-136.4-8c-26.3,0.3-52.7-0.9-78.9,0.6
			c-41.5,2.4-82.9,6.2-124.1,12.2c-88.7,12.8-175.3,34.1-259.5,64.5c-77.3,27.8-151.4,62.6-222.2,104.4
			C601.2,549.9,547,588,495.2,629.5c-3.8,3.1-7.3,7-12.9,6.9c-1.1-0.7-1.2-1.6-0.5-2.6c22.3-29.9,46-58.7,70.6-86.8
			c55.2-63.1,115.7-120.8,180.9-173.4c65.7-53,135.6-100,209.4-141.1c87.6-48.7,179.1-88.3,274.6-118.5
			c61.9-19.6,124.9-35.1,188.9-46.4c37.4-6.7,75-12,112.7-15.8c68.7-6.8,137.5-9.4,206.6-6.7c53.7,2,107.1,6.5,160.2,14
			c120.5,17.1,237.2,48.4,350.1,94c65.9,26.6,129.5,57.8,190.9,93.6c60,34.9,117.2,73.9,171.7,116.9
			c55.6,43.8,107.7,91.4,156.5,142.7c65.6,69,123.9,143.8,174.9,224.3c36.2,57.2,68.2,116.7,96,178.4c30,66.6,54.6,135.1,74.1,205.5
			c13.3,48.2,24,96.9,32,146.2c6.7,41.1,11.3,82.4,14.7,124c4.7,58.6,4.6,117.2,2.7,175.8c-0.8,23.3-3.5,46.5-5.4,69.7
			c-0.9,1.1-1.4,3-3.5,2c-7.4-21.7-14.8-43.4-22.2-65.1c-3-8.7-3-8.7-12.4-8.7c-26.6,0-53.2,0-79.9,0c-2.6,0-5.3,0-8.1,0
			c-0.8,5.1,1.7,8.8,3.2,12.7c29.4,80.2,59,160.3,88.4,240.4c1.3,3.4,2.1,7,3.2,10.5c0.8,12.9-3.3,25-6.7,37.1
			c-11.1,39.8-23,79.3-37.1,118.2C3067.6,1980.4,3066.9,1984.2,3063.1,1986z"/>
		<path class="st1" d="M1414.6,2918.7c-61.1-10.3-121.3-24.7-180.5-42.7c-60.5-18.4-119.7-40.6-177.4-66.6
			c-89.5-40.3-174.3-88.9-254.2-146c-72-51.4-138.8-108.9-200.6-172.3c-73.8-75.7-138.5-158.5-194.2-248.2
			c-45.6-73.4-84.2-150.3-115.6-230.9c-6.8-17.4-13.7-34.7-19-52.5c-3.2-28.1,2-55.7,5-83.4c5.6-51.7,15.4-102.8,27.9-153.2
			c18.6-75.5,43.3-149,76-219.6c1.4-3,2.5-6.3,5.9-7.8c5.4,1.3,4.1,5.9,4.7,9.6c-1.5,38.9-4.9,77.7-4.2,116.7
			c1.1,60.4,7,120.3,17.5,179.7c7.8,44.1,18.4,87.5,31.9,130c28.3,89,66.8,173.4,117.1,252.3c25.5,40,53.3,78.2,83.7,114.5
			c50.8,60.8,107.6,115.4,170.3,164c63.2,49,131.3,90.1,203.8,123.9c69.4,32.3,141.6,56.6,216.4,73.5c42,9.5,84.4,16.3,127.2,20.8
			c25.4,2.7,51,5.3,76.7,4.8c19.3-0.4,38.6,0.2,57.9,0.1c68.9-0.7,136.9-9.1,204.1-23.6c61.4-13.2,121.2-31.7,179.3-55.5
			c78.7-32.3,152.4-73.3,221.5-122.9c47.2-33.9,91.3-71.4,132.4-112.5c67.7-67.8,125.6-143.1,173.4-226.2
			c50.2-87.3,87-179.8,111.4-277.4c12.2-48.6,20.5-97.9,25.8-147.6c2.7-25.7,5.4-51.6,4.7-77.7c-0.5-19.6,0.5-39.1,0.3-58.7
			c-0.7-54.1-6.5-107.7-15.5-160.9c-13.6-80.2-36.6-157.7-68.1-232.7c-20.4-48.6-44.7-95.3-71.9-140.5c-2.7-4.5-6-8.9-7.3-14.1
			c-0.1-1.6,0.5-3,2-3.8c4.5-0.9,7.7,1.9,10.6,4.5c24.6,22.2,50.9,42.5,73.5,66.9c1.8,1.9,3.6,3.9,4.9,6.2c1.5,2.6,2.9,5.3,4.4,7.9
			c31.4,66.4,57,135,76.2,206c18.7,69.3,31.4,139.6,38.6,211.1c5.7,56.8,7.6,113.7,5.2,170.6c-3.2,77.6-12.7,154.5-30,230.4
			c-16.4,72-38.3,142.2-66.8,210.3c-28.9,69-63.5,135-104.1,197.9c-37.1,57.5-78.7,111.6-124.3,162.5
			c-51.5,57.4-108.1,109.5-169.2,156.5c-81.2,62.5-168.6,114.2-262.4,155.7c-82.7,36.5-168.3,63.4-256.7,81.7
			c-47,9.8-94.5,16.5-142.3,20.5C1431.8,2920.6,1423.3,2918.6,1414.6,2918.7z"/>
		<path class="st1" d="M252.7,1896.8c-18.8-60.9-32.1-123-42-185.9c-6.2-39.5-10.3-79.2-13.1-119.2c-4.1-59.3-4.6-118.5-1.4-177.8
			c2.1-38.6,5.9-77,11.1-115.4c7.4-54.9,18.1-109,31.9-162.6c16.2-62.9,36.8-124.4,61.5-184.6c10.1-24.7,21.4-48.8,32.5-73
			c1.4-3,3.2-5.8,4.8-8.7c1.5-0.7,0.9-2.9,2.5-3.6l-0.1,0.2c12.1-21,29.5-37.7,45-55.9c19.5-22.8,41.1-43.7,62.5-64.6
			c47-46,97.6-87.7,151.4-125.5c50.5-35.5,103.3-67.1,158.4-95c76.4-38.7,155.7-69.3,238.2-91.9c61.8-16.9,124.6-28.4,188.2-36.1
			c66.9-8.2,134.2-9.9,201.4-7.3c59.5,2.3,118.7,9.3,177.4,20.5c91.3,17.4,179.9,43.7,265.3,80.5c89.1,38.4,172.7,86.4,251,143.6
			c65.9,48.1,126.3,102.4,181.6,162.1c63.4,68.4,118.5,143.1,165.2,223.9c2.3,4,4.9,8,5.3,12.8c-0.2,1.6-0.9,2.9-2.4,3.5
			c-6.8-0.1-10.5-5.5-14.9-9.2c-25.8-21.7-52.2-42.4-79.6-62c-1.9-1.4-3.7-2.8-5.2-4.7c-2.1-3.3-4.6-6.1-7.4-8.8
			c-26.9-36.1-56.9-69.8-88.5-101.7c-33.2-33.6-68.6-65.1-106.2-94c-66.8-51.5-138.3-95-215.2-129.9
			c-74.1-33.7-150.9-58.7-230.6-74.8c-41.1-8.3-82.7-14-124.6-17.7c-41.6-3.7-83.2-3.9-124.8-3.4c-34.9,0.5-69.7,4.3-104.4,8.6
			c-62.4,7.7-123.5,21.2-183.4,40c-42.6,13.4-84.3,29.3-125,47.8c-69.1,31.5-133.9,70.3-195,115.3c-27.4,20.1-53.3,42.1-78.8,64.6
			c-20.5,18.1-39.8,37.5-58.7,57.2C637.9,915,595,970.6,556.8,1029.8c-19.9,30.9-37.8,62.8-54.3,95.5
			c-31.2,61.7-55.6,126.2-74.3,192.8c-7.1,25-12.6,50.4-18.3,75.8c-1.3,3.5-1.1,7.2-1.9,10.7c-6.8,16.7-15.7,32.4-23.6,48.5
			c-24,49.2-44.8,99.6-62.8,151.3c-26.8,77.1-45.5,156-57.9,236.6c-2.1,13.8-3.6,27.7-5.2,41.6
			C257.8,1887.8,258.1,1893.5,252.7,1896.8z"/>
		<path class="st1" d="M2798.4,2429.9c-16.9,21.1-35.6,40.5-54.3,59.9c-74.7,77.6-157.4,145.7-247.2,205
			c-93.1,61.5-192.1,111.8-296.7,150.9c-66.8,24.9-135,45-204.7,60.3c-53.4,11.7-107.2,20.4-161.6,26.1
			c-46.1,4.9-92.2,8.2-138.6,8.2c-2.7,0-5.3,0.3-8,0.5c-6,0.1-12,0.4-18-0.1c-0.7-0.1-1.2-0.5-1.5-2c2.3-4.2,7.2-4.6,11.4-5.7
			c59.2-16.2,117-36.6,173.4-60.8c68.1-29.3,133.1-64.4,195.3-104.6c42-27.2,82.5-56.5,121-88.4c21.5-17.8,42.9-35.8,62.9-55.5
			c20-19.6,40.1-39,59.4-59.2c58.4-61.3,109.6-127.9,155.1-199.1c26.4-41.3,50.6-83.9,71.9-128c45.9-94.8,80.7-193.6,103.1-296.7
			c11.9-54.8,20-110.1,25.6-165.8c6-60.1,6.6-120.5,3.7-180.7c-5.6-113.5-24.7-225-59-333.6c-1-3.2-2.1-6.3-1.4-9.8
			c0.5-1.6,1.3-2.8,3-3.3c4.4,0.7,6.5,4.3,8.9,7.5c36.8,49.4,70.2,101,100.2,154.8c2.5,4.5,4,9.1,3.3,14.3c-0.6,6-0.5,12-0.5,18
			c0,156.6,0,313.1,0,469.7c0,2.3,0,4.7,0,7c0.3,11,1.2,12,12.1,12.1c40.6,0.1,81.3,0,121.9,0.1c5.3,0,10.7-0.6,15.7,1.8
			c6.4,7.9,5.4,17.8,5.5,26.6c0.2,31.3,3.5,62.5,2.5,93.8c-3.1,95.3-13,189.8-35.7,282.7c-5.9,24.3-13.3,48.1-19.4,72.3
			C2806,2415.9,2802.8,2423.2,2798.4,2429.9z"/>
		<path class="st2" d="M2430.2,1034c-16-30.8-35-59.8-54.5-88.4c-44.1-64.9-93.9-125.3-149.3-180.9c-40.2-40.4-83-78.1-128.4-112.7
			c-58.9-45-121.2-84.6-187-118.9c-65.5-34.1-133.4-62-203.7-84.2c-52.7-16.6-106.5-29.4-161-38.8c-71.7-12.4-144-18.4-216.7-18.6
			c-44.7-0.1-89.3,2.1-133.7,6.9c-96.3,10.4-190.4,31.1-282,63c-103.5,36-200.6,84.5-291.3,145.7
			c-94.7,63.9-179.5,139.2-253.7,226.1c-9.5,11.1-19.1,22.1-28.6,33.2c2.6-10.8,8.5-20.1,13.8-29.6c9.7-17.4,18.1-35.5,28.7-52.5
			c11.9-19.2,22.8-38.9,35-58c18.8-29.4,38.8-57.9,59.3-86.1c2-0.6,2.7-3.3,5-3.4c25.4-19.4,50.1-39.7,76.2-58.3
			c56-39.9,114.6-75.4,175.9-106.4c80.8-40.8,165-72.7,252.4-96c53.1-14.2,106.9-24.9,161.4-32.4c37.3-5.1,74.8-8.7,112.3-10.7
			c37.6-2,75.2-2,112.9-0.8c45,1.4,89.7,5.4,134.3,11.2c49.2,6.4,97.9,15.9,146,27.9c59.8,15,118.3,34.2,175.4,57.4
			c82.3,33.5,160.4,74.9,234.4,124.2c48.3,32.2,94.2,67.5,138,105.6c70.6,61.6,133.9,129.9,190,204.8
			c59.1,78.9,109,163.4,148.8,253.6c6.3,14.3,13.2,28.4,18.1,43.2c1.3,2.1,1,3.6-1.4,4.5c-2.5-0.3-4.4-1.8-5.8-3.6
			c-11.5-14.4-25.9-25.9-37.6-40c-12.8-15.5-28.6-27.8-42.5-42.2c-12.1-12.5-25.9-23-37.5-35.8
			C2431.1,1040.4,2431,1037.1,2430.2,1034z"/>
		<path class="st2" d="M2591.6,1250.3c6.1,21.1,12.5,42.1,18.2,63.3c10.6,39.5,19.2,79.6,26.1,119.9c8.1,48,13.3,96.3,16.4,144.8
			c3,48,2.9,95.9,0.9,143.9c-1.8,42.6-6.3,85-12.5,127.2c-13.1,89.9-35.2,177.6-66.4,262.8c-26.4,72.1-58.8,141.3-97.4,207.8
			c-44.5,76.6-96,148.1-154.6,214.5c-56.9,64.4-119.4,122.7-187.6,174.9c-66.5,51-137.3,95.3-212.3,132.9
			c-78.2,39.2-159.5,70.3-243.9,93.4c-2.6,0.7-5.1,1.4-7.7,2.2c-0.5,0.2-0.9,0.7-1.9,1.5c6.2,2.4,12.5-0.3,18.4,1.2
			c-6.5,2.3-13.3,1.9-19.7,0.9c-18.6-2.9-37.2-1-55.8-1.8c-14.9-0.7-29.8-1.6-44.6-3.4c-10.5-1.3-21.2-1.3-31.8-2.1
			c-22.8-1.7-45.4-5.6-68.1-7.8c-16.8-1.7-33.3-5.6-50.2-6.7c-0.9-0.1-1.8-0.8-2.7-1.2c51.7-2.4,102.8-9.6,153.5-19.2
			c87.6-16.6,172.6-42.4,254.6-77.3c88.3-37.5,171.4-84.5,249-141c79-57.5,150.5-123.2,214.5-197c60.2-69.5,112.3-144.7,156.1-225.6
			c46.2-85.2,82-174.7,107.5-268.3c13.6-49.8,24.1-100.3,31.5-151.4c11.3-78,15.2-156.5,11.9-235.2c-1.6-39.6-5.4-79-10.6-118.4
			c-9.2-69.5-24.5-137.6-45.1-204.5c-16.5-53.5-36.6-105.7-60.5-156.4c-1.3-2.7-2.3-5.5-3.5-8.3c-0.5-1.9,0.6-2.6,2.1-3.1
			c3.4-0.1,5.4,2.1,7.5,4.3c34.7,36.6,69.2,73.4,100,113.4c3.1,4,5.9,8,7.8,12.6C2592.3,1245.6,2590.8,1248,2591.6,1250.3z"/>
		<path class="st3" d="M2589.1,1243.8c-8.2-14.2-19.3-26.3-29.6-38.8c-24.8-30.1-51.6-58.3-78.6-86.4c-1.6-1.7-3.4-3.1-5.2-4.7
			c-1.8-1.4-4.1-2.3-5.2-4.5c-20.1-21.2-42-40.5-64.2-59.3c-7.3-6.2-14.1-13.1-22.1-18.5c-3.2-0.7-5.7-2.8-8.3-4.4
			c-35.8-27.8-72.2-54.9-110.4-79.5c-2.3-1.6-4.8-2.9-7.3-4.3c-52.7-34.5-108.6-63.3-165.7-89.6c-3.2-2.2-6.9-2.8-10.6-3.3
			c-24.7-13.2-51-22.4-77.2-31.8c-25.2-9.2-50.7-17.8-76.7-25c-4.8-1.9-9.6-3.3-14.8-3.5c-454.8-127.8-945.8,3.4-1276.2,346
			c-3.4,2.8-6.9,5.4-9.5,9c-18.2,20.6-37.1,40.5-54.6,61.8c-18.1,22-35.9,44.3-52.5,67.5c-1.2,1.3-2.4,2.6-3.4,4.1
			c-1.3,1.8-2.6,3.6-3.7,5.5c-18.3,25.7-35.6,52-51.8,79c-25.1,40.8-48.2,82.7-67.6,126.5c-1.4,2.6-2.8,5.1-5.5,6.5
			c-21.6,45.5-39.3,92.5-54.8,140.4c-18.9,58.3-33.3,117.8-43.7,178.2c-8,47-13.4,94.2-16.2,141.8c-0.1,1-0.4,2-0.5,2.9
			c-7.9-20.6-14.8-41.4-20.5-62.7c3.8-9.4,3.7-19.6,4.9-29.4c9.3-78.2,26.4-154.7,49.9-229.7c23.4-74.8,53.4-146.9,90-216.2
			c2.9-5.6,5.6-11.3,8.4-17c1.7-2.4,1.5-5.4,2.7-8c23.4-43.4,50-84.7,77.9-125.3c23-31.4,46.7-62.2,71.5-92.2c2.5-2,4.8-4.1,6.5-6.9
			c42.9-49.9,89.2-96.4,139.1-139.2c1.8-1.2,3.6-2.3,5.2-3.8c1.6-1.4,3-2.9,4.6-4.4c1.3-1.2,2.8-2.2,4.2-3.3c1.1-1,2.2-2,3.2-3
			c24.8-21.9,51.1-41.8,78-60.9c57.7-41,118.1-77.4,181.6-108.8c77.9-38.5,158.9-68.9,242.8-91.4c69.6-18.7,140.4-30.9,212.1-38.5
			c63.5-6.8,127.1-7.1,190.6-5c54.8,1.8,109.6,7.5,163.6,18.1c3.5,1.4,7.3,1.4,11,1.4c65.3,12.5,129.9,27.9,192.5,50.4
			c2.4,0.9,4.9,1.6,7.4,2.2c61,21.3,120.1,47.3,177.4,77.1c4.1,2.1,8.4,4,12.2,6.7c2.7,2,5.7,3.4,8.9,4.5
			c36.4,20.5,72.1,42.2,106.8,65.3c5.8,3.9,11.5,7.8,16.5,12.7c3,2.2,5.5,4.8,8.1,7.4c33.7,24,66,49.7,97.4,76.5
			c3.2,0.8,4.4,4.1,6.9,5.7c9.3,8.5,18.6,17.1,27.9,25.6c26.2,24.1,50.9,49.6,75.2,75.5c6.3,6.8,12.4,13.9,18.5,20.8
			c2.5,1.5,4,3.8,5.6,6.1c17,20,33.6,40.4,49.6,61.2c25.4,32.9,48.9,67.2,71.2,102.3c15.3,24.2,29.1,49.2,43.4,74
			c2.3,4,4.8,8,5.9,12.6c-9.1,4.5-18.1,4.4-27.2,0.1c-13-24.7-27.1-48.7-41.9-72.3c-21.6-34.3-44.4-67.7-69.3-99.7
			C2591.8,1247.1,2591,1244.9,2589.1,1243.8z"/>
		<path class="st3" d="M2798.4,2429.9c7.3-25.9,15-51.7,21.8-77.7c10.6-40.6,18.8-81.7,24.9-123.1c4-27.3,7.4-54.7,9.6-82.3
			c3.4-43.5,5.8-87,4.9-130.7c-0.6-27.3-1.3-54.6-3.6-81.8c8-5,16.1-5,24.1,0c3.7,43.1,4.8,86.4,3.6,129.6
			c-1.3,47.9-4.9,95.6-11.1,143.1c-6.9,53.5-17.7,106.2-30.5,158.5c-1.3,5.5-3.7,10.7-4,16.4
			C2825.9,2398.8,2813,2415.1,2798.4,2429.9z"/>
		<path class="st21" d="M3140.3,1632c1.2-0.7,2.3-1.3,3.5-2c0.8,3.4,0,6.8-0.4,10.2C3141.9,1637.6,3140.2,1635.1,3140.3,1632z"/>
		<path class="st22" d="M481.9,636.6c-0.8,2.4-2.7,3.3-5,3.4c1.4-2.3,2.2-5,4.9-6.2C481.9,634.8,481.9,635.7,481.9,636.6z"/>
		<path class="st2" d="M340.3,866.1c0,1.8-1,2.9-2.5,3.6C337.9,868,338.4,866.6,340.3,866.1z"/>
		<path class="st1" d="M3621.9,1746.1c0.3,19,0.8,38-3.6,56.7c-1.4,5.9-3.1,11.6-5.6,17c-10.5,23.4-32.1,35.5-60.4,33.5
			c-28.4-2-47.8-17.9-53.9-46.5c-8.8-40.5-8.6-81.4,0-121.9c4.5-21.1,17.1-36.6,38.5-43.4c15.1-4.8,30.3-4.2,45.1,1.3
			c15.5,5.8,25.9,17.1,32,32.4c5,12.5,7,25.7,7.7,39C3622.3,1724.8,3621.9,1735.4,3621.9,1746.1z"/>
		<path class="st13" d="M3063.1,1986c2.6-7.9,5-15.9,7.8-23.7c15.5-44,28.9-88.5,39.5-134c0.5-2.3,1.4-4.4,2.2-6.6
			c6,13.5,11,27.3,15.3,41.4c0.7,8.6-2.8,16.3-5,24.3c-8.3,29.8-17.1,59.5-28.2,88.4c-1.4,3.7-2.4,7.7-6,10.1
			C3080.1,1986.8,3071.6,1986.6,3063.1,1986z"/>
		<path class="st23" d="M3088.6,1985.9c13.8-38.3,25.8-77.2,36.8-116.3c0.6-2.2,0.6-4.6,2.5-6.4c6.1,12.9,10,26.7,15.3,39.9
			c1.1,2.6,1,5.1,0.1,7.7c-6,16.9-11.6,33.9-17.9,50.6c-4.6,12.1-12.6,21-25.9,23.8C3095.9,1986,3092.3,1986.4,3088.6,1985.9z"/>
		<path class="st14" d="M2880,1934.3c-8-0.7-16.1-0.7-24.1,0c-3.7-0.1-7.3-0.4-11-0.4c-44.7,0-89.3,0-134,0c-8.6,0-8.6-0.1-8.7-8.8
			c0-165.3,0-330.6,0-495.9c0-3.2-1.2-6.8,2.5-9c9.1,0.7,18.1,0.7,27.2-0.1c20.8,1.2,41.6,0.2,62.4,0.6c3.3,0.1,7.7-1.6,8.7,3.8
			c-0.5,50.2-1.9,100.5,0.2,150.6c3.5,83.5-0.2,166.9,1.5,250.3c0.1,4.3-0.8,8.7,2,12.5c3.6,3.9,8.5,2.9,12.9,3
			c8.8,0.2,17.7-0.1,26.5,0.1c8,0.3,16.2-2,23.7,2.4c7.3,0.1,14.6,0.4,21.9,0.4c43.3,0,86.5,0,129.8,0c1.7,0,3.3,0,5,0
			c8.8,0.1,8.8,0.1,8.9,8.5c0.1,7.7,0,15.3,0,23c0,16,0,31.9,0,47.9c0,11.6,1,10.5-10.9,10.5c-44.6,0-89.2,0-133.8,0
			C2887.3,1933.9,2883.7,1934.1,2880,1934.3z"/>
		<path class="st3" d="M2870.1,1843.5c-8,0.7-16.1,0.7-24.1,0c-3.3-2.8-4.1-6.7-4.7-10.7c-8.3-50.9-18.8-101.3-33.1-150.9
			c-1.4-4.8-2.1-9.7-2.4-14.7c0-0.3,0.3-0.6,0.4-0.9c-0.2,0-0.5,0-1.1,0.1c2.1,7.6,2.1,15.3,2.1,23c0,45.6,0.1,91.1-0.1,136.7
			c0,5,1.8,10.8-3.8,14.5c-0.1-2-0.4-3.9-0.4-5.9c0-134.5,0-269,0-403.5c0-2.3-0.6-4.7,0.5-6.8c0.1,46.9,0.3,93.8,0.2,140.7
			c0,8.8,1.2,17,4.2,25.3c20.5,57.3,36.9,115.9,49.2,175.5C2862.1,1791.7,2867.2,1817.4,2870.1,1843.5z"/>
		<path class="st24" d="M2562,1170.1c-2.6-1.4-4.6-3.3-5.6-6.1c1.5-0.9,1.4-2.5,1.7-3.9C2560.5,1163,2561.5,1166.4,2562,1170.1z"/>
		<path class="st25" d="M392,1489c2-4.9,3.7-10,6-14.8c17.8-36.5,37-72.2,57.8-107c1.3-2.3,3.1-4.3,4.6-6.4c3.1,4,1.4,8.3,0.5,12.5
			c-10.2,42.5-16.9,85.7-21.7,129c-5.8,52.7-6.7,105.8-4,158.7c5.1,99,23.7,195.7,56.8,289.3c26.1,73.8,60,143.8,101.9,210
			c32.4,51.1,68.9,99.1,109.6,143.6c27.6,30.2,57,58.8,88.2,85.6c46.2,39.7,95.1,75.3,147.3,106.4c97.9,58.4,202.6,99.5,314.2,122.8
			c45,9.4,90.4,16.3,136.4,18.9c27.9,1.6,55.8,4.1,83.7,3.5c78.7-1.8,156.7-9.9,233.5-28.5c85.3-20.6,167-51,244.4-92.4
			c70.5-37.7,135.8-82.9,196-135.7c53.3-46.8,101.3-98.4,144-154.9c44.7-59.2,82.7-122.5,113.6-190.1c24.8-54.1,44.7-109.9,60-167.3
			c14-52.6,23.5-106,28.8-160.1c3.6-36.5,6.1-73,5.6-109.6c-1.1-78.1-9.6-155.4-27.6-231.6c-19.2-81.1-47.6-158.9-85.6-233.1
			c-32.8-64-72.1-123.8-117.2-179.8c-2.3-2.8-5-5.4-5.7-9.3c0.2-1.7,0.7-3.2,2.8-3c31.5,19.3,61.3,41,90.5,63.6
			c7.1,5.5,14,11.2,21,16.8c2.9,1.7,3.6,4.7,4.6,7.6c27.7,44.8,52.6,91.1,73.8,139.4c27.6,63,49.2,127.9,64.3,195
			c9,39.7,15.7,79.6,20.1,120.1c3.5,32.5,5.5,65,6.3,97.7c0.6,26.3,0.1,52.6-1,78.9c-1.2,28.9-4,57.8-7.9,86.5
			c-5.4,39.9-12.8,79.5-22.6,118.6c-12.1,48.5-27.5,96-46.2,142.3c-32.7,81-74.7,156.9-125.7,227.7c-45,62.4-96,119.4-153.1,170.9
			c-73.4,66.2-154.4,121.4-242.9,165.4c-64,31.8-130.5,57.1-199.5,75.6c-43.1,11.6-86.8,20.4-131,26.5
			c-45.3,6.2-90.7,9.8-136.4,10.1c-36.6,0.2-73.2-0.8-109.7-4c-42.2-3.7-84-9.8-125.4-18.4c-69-14.3-136-35.2-200.7-62.8
			c-75-32-145.7-71.9-211.7-119.9c-86-62.5-161.3-136.1-225.9-220.6c-51.3-67.3-94.1-139.7-128.4-217.1
			c-31.8-71.8-55.5-146.2-70.9-223.2c-8.5-42.4-14.4-85.3-17.8-128.5c-3.2-40.6-4.2-81.2-2.9-121.8c0.7-22,2.4-43.9,3.7-65.8
			C392.4,1500.7,389.3,1494.6,392,1489z"/>
		<path class="st26" d="M392,1489c0,5.8,0.7,11.7-1.7,17.3c-1.2-3.3,1-7.2-2-10.2C388.9,1493.5,389.9,1491,392,1489z"/>
		<path class="st27" d="M2382,1033.8c-2.6-1.9-3.7-4.7-4.6-7.6c2.9,1,5.2,2.8,6.8,5.4C2383.4,1032.4,2382.7,1033.1,2382,1033.8z"/>
		<path class="st28" d="M2470.5,1109.5c2.4,0.7,4.4,2,5.2,4.5c-0.7,0.7-1.4,1.4-2,2.1C2471.5,1114.4,2471,1111.9,2470.5,1109.5z"/>
		<path class="st25" d="M487.9,1273.1c-12.2,18.6-24.2,37.3-36.6,55.7c-13.1,19.6-24.4,40.3-36.3,60.7c-1.7,2.9-3.5,5.7-5.2,8.5
			c-3.7,0-2.7-2.3-2.2-4.4c4.4-23.6,10-46.8,16.3-70c21.7-80.1,52.4-156.6,91.9-229.4c37.6-69.4,82.4-133.8,134.1-193.5
			c50.6-58.4,106.9-110.8,168.5-157.2c53.1-40,109.5-74.7,169.2-104.1c59.9-29.5,121.9-53.4,186.2-71.5
			c45.3-12.7,91.1-22.4,137.6-29.1c29.3-4.3,58.8-7.1,88.4-9c37.6-2.5,75.3-2.6,112.9-1.1c32.6,1.3,65.1,4.3,97.5,8.7
			c38.7,5.2,76.9,12.3,114.7,21.6c50.9,12.4,100.5,28.6,149,48.4c80.3,32.7,155.4,74.6,225.7,125.4c60.7,43.9,116.1,93.7,166.6,149
			c20.4,22.4,40.2,45.4,58,70.1c0.4,1.8-0.2,2.6-2.1,2.1c-38.2-26.7-77.6-51.2-118.3-74c-2-1.1-3.9-2.5-5.8-3.8
			c-2.6-2.1-5.5-3.9-8.4-5.7c-18.3-14.5-34.4-31.4-52.1-46.6c-38.8-33.3-79.9-63.3-123-90.6c-47.7-30.2-97.6-56-149.7-77.7
			c-53.9-22.5-109.3-40.3-166.3-53.4c-41-9.5-82.4-16.2-124.1-20.8c-41.7-4.6-83.7-4.9-125.6-4.8c-73.3,0.3-145.3,9.9-216.7,26.1
			c-87.3,19.8-170.2,51.3-249.3,93c-55.2,29.1-107.1,63.5-156.2,102.2c-39.3,31-76.4,64.4-110.6,100.9
			c-53.9,57.6-101.1,120.2-141.1,188.3c-32.2,54.8-58.7,112.1-80.3,171.7C493,1263.7,489.4,1267.9,487.9,1273.1z"/>
		<path class="st29" d="M2322.2,954c0.7-0.7,1.4-1.4,2.1-2.1c3,1.9,5,4.6,6.1,7.9C2327.2,958.5,2324.4,956.6,2322.2,954z"/>
		<path class="st30" d="M407.6,1393.6c0.5,1.6,0.5,3.4,2.2,4.4c-0.7,2.5-1.8,4.8-3.9,6.4C405.8,1400.7,405.3,1396.9,407.6,1393.6z"
			/>
		<path class="st31" d="M2434.8,1042c-3-1-5.3-3-6.9-5.7c0.8-0.8,1.5-1.5,2.3-2.3C2432.7,1036.1,2433.8,1039,2434.8,1042z"/>
		<path class="st32" d="M2589.1,1243.8c2.6,0.3,3.9,2,4.6,4.3c-0.7,0.7-1.4,1.4-2.1,2.2C2589.5,1248.6,2589.8,1246,2589.1,1243.8z"
			/>
		<path class="st1" d="M634.9,1135.9c3-4.9,7-8.9,11-12.9c75.5-75.9,158.9-141.9,250.6-197.3c69.7-42.2,142.8-77.4,219.1-105.8
			c58.4-21.7,118.2-38.9,179.1-51.9c41.7-8.9,83.7-15.4,126-20.3c66.3-7.6,132.9-9.6,199.5-7c39.6,1.5,79,5.3,118.3,10.5
			c50.2,6.7,99.7,16.7,148.8,28.7c8.7,2.1,17.4,4.4,25.6,8c4.3,1.2,8.3,3.2,12.5,5c48.4,26.6,93.1,58.4,135.6,93.5
			c27.3,22.5,53.5,46.1,77.8,71.8c52.2,55.1,98.3,114.8,136.6,180.5c34.2,58.7,62.3,120,83.3,184.6c21.1,64.8,35.5,131.1,42.1,199.1
			c3.4,34.8,6.1,69.7,5.5,104.6c-2.2,127.9-26.5,251.3-77.4,369.2c-37.3,86.4-86.2,165.4-146.5,237.3
			c-71.1,84.8-154.7,154.9-250.4,210.6c-88.3,51.5-182.5,87.6-282.3,108.9c-43.3,9.3-87.2,14.9-131.5,17.9
			c-37.7,2.6-75.3,2.4-112.9,1.2c-50.6-1.7-100.8-8.7-150.4-19.3c-58.8-12.6-116-30.6-171.4-53.9c-77.8-32.7-149.8-75.4-216.6-127.1
			c-41.8-32.4-80.5-68.1-116.1-106.9c-47.2-51.4-88.2-107.7-123.3-168.2c-44.7-77.3-77.5-159.3-99.5-245.7
			c-11.8-46.6-19.8-94-24.1-141.8c-3-32.8-5.4-65.7-4.4-98.7c2.4-84.8,12.8-168.5,36.3-250.4c16.7-58.2,38.6-114.2,65.5-168.4
			c7.7-15.5,15.7-30.9,25.1-45.5C629.3,1142.9,631.4,1138.9,634.9,1135.9z"/>
		<path class="st33" d="M628.5,1146.6c-17.2,31.2-33.6,62.8-47.7,95.5c-23.4,54.2-41.8,110.1-54.7,167.7
			c-13.5,60.3-21,121.3-23,183.1c-1.4,44.4,0.5,88.6,5.3,132.7c7.6,70.4,23.1,139.1,46.4,206c41.2,118.5,103.5,224.6,186.6,318.6
			c46.3,52.4,97.8,99,154.4,140.1c57.6,41.9,119.2,76.8,184.7,104.7c53.4,22.8,108.4,40.5,165.1,53c46.9,10.3,94.3,17.1,142.2,20.5
			c39,2.7,77.9,3,116.9,1c59.6-3.1,118.5-11.8,176.6-26.2c73.6-18.3,144.2-44.9,211.4-80.1c78.4-41,149.7-92,214-152.9
			c73.2-69.3,133.8-148.2,182-236.7c35-64.2,62.2-131.7,81.3-202.4c12-44.4,20.9-89.4,26.4-135.1c5.3-43.7,7.8-87.6,7-131.6
			c-0.8-45-4.4-89.8-11.6-134.3c-14.1-87.2-39.5-171.1-76.9-251.2c-32.3-69.1-72.3-133.4-120-192.9
			c-54.1-67.5-116.3-126.5-186.3-177.1c-27.3-19.7-55.8-37.5-84.6-54.9c-0.2-3.9,2.1-3.1,4.4-2.4c8.8,1.6,17.3,4.4,25.8,7.2
			c38.2,12.2,75.8,26.2,113,41.3c5.9,2.4,11.5,5.2,16.4,9.2c3.6-0.4,5.4,2.7,8.1,4.1c15.8,10.7,29.3,24.2,43.2,37
			c23.5,21.6,45.8,44.7,66.8,68.8c25.4,29.1,49.6,59.2,71.6,91.1c22.5,32.7,43.3,66.4,61.9,101.5c27.6,52.3,51,106.3,69,162.6
			c19.8,62.1,33.2,125.5,40.9,190.2c4.6,38.1,6.3,76.3,6.5,114.6c0.4,73.5-7.6,146.2-23.5,218c-17.9,80.8-45.4,158.2-82.7,232
			c-35,69.3-77.4,133.8-127.5,193.1c-80.8,95.7-175.9,174.2-285.9,234.4c-103,56.3-212.8,93.2-328.9,111
			c-64.7,10-129.9,13.6-195.2,10.4c-120.2-5.9-236.2-31.9-346.9-79.4c-90.6-38.8-174-89.9-249.5-153.4
			c-71.5-60.2-133.8-129-186.1-206.5c-64.4-95.3-111-198.8-139.6-310.2c-13-50.7-21.5-102.2-26.7-154.4c-3.1-30.9-4.1-61.8-4.3-92.7
			c-0.4-61,5-121.7,16.1-181.8c8.8-47.9,21-95,36.6-141.1c1.4-4.1,2.6-8.3,4.6-12.1c1.5-2.1,2.2-4.5,3.3-6.7
			c2.3-1.4,1.1-4.8,3.5-6.1c8.5-15.6,20.6-28.6,31.4-42.5c23.7-30.5,49-59.7,75.9-87.4C628,1143.8,629,1144.5,628.5,1146.6z"/>
		<path class="st1" d="M514.1,1286.1c-7.4,24.5-15.9,48.7-22.4,73.4c-11.4,43.2-20.1,86.8-26,131.1c-5.7,42.7-8.3,85.6-8.5,128.5
			c-0.1,27.6,0.8,55.3,3.2,82.9c3.7,40.8,9.2,81.4,17.5,121.5c16.6,79.9,42.6,156.7,78.2,230.1c40.1,82.6,90.6,158.3,151.5,227
			c49.3,55.5,104.1,105,164.4,148.5c73.4,52.9,152.6,94.9,237.4,126.2c56.9,21,115.5,36.4,175.4,46.6c70.9,12.1,142.3,16.5,214,13.2
			c65.7-3,130.6-12.3,194.4-28.2c78.5-19.5,153.6-48.2,225.1-86c62.9-33.3,121.6-73,176.1-118.9c39.3-33.2,75.8-69.1,109.6-107.9
			c55.4-63.6,102.1-133.1,139.9-208.6c37.2-74.2,64.6-151.8,82.1-232.9c10.3-47.6,17-95.7,20.4-144.3c2.8-40.6,3-81.3,1-121.8
			c-2.3-45.9-8.1-91.5-16.8-136.7c-16.4-84.8-43.3-166.1-81-243.7c-46.9-96.7-108-183.6-183-260.6c-21.6-22.2-44.2-43.4-67.9-63.5
			c-3-2.6-5.9-5.4-8.8-8c-0.4-1.9,0.2-2.9,2.3-2.3c41.3,17.5,80.9,38.2,119.7,60.8c16,9.3,32.5,18,47.3,29.4c2.3,1.5,3.5,3.8,5,5.9
			c28.9,36.2,56.5,73.4,81,112.8c33.8,54.5,62.6,111.4,85.9,171.2c25,64.1,43.5,130,55.2,197.8c8.3,48,12.9,96.3,14.8,145
			c1.9,48.8-0.2,97.3-5.3,145.7c-8.4,79.4-26,156.9-52.7,232.2c-22,62-49.5,121.5-82.8,178.2c-49.9,85-110.7,161.4-182.2,229.3
			c-65.9,62.5-138.8,115.4-218.5,158.8c-70.8,38.5-145.2,68.2-223,89.1c-48.9,13.1-98.6,22.7-148.9,28.5c-45.1,5.2-90.3,7.8-135.6,7
			c-32.3-0.5-64.6-2.1-96.7-5.7c-56-6.3-111.2-16.6-165.5-31.7c-62.1-17.2-122.1-40.1-179.9-68.5c-59.1-29-114.8-63.6-167.3-103.2
			c-51.2-38.7-98.4-81.8-141.6-129.2c-53.3-58.7-99.5-122.6-138.1-191.8c-40.8-73-72.4-149.8-94.5-230.5
			c-13-47.6-22.3-95.9-28.7-144.8c-7.9-60.3-9.7-120.9-6.9-181.5c2.8-62.6,11.6-124.6,26.2-185.6c0.8-3.2,1.1-6.5,1.6-9.8
			c13.4-23.2,28.1-45.6,43.6-67.5c2.7-3.8,5.5-7.5,8.2-11.2C515.9,1282,515,1284,514.1,1286.1z"/>
		<path class="st1" d="M487.9,1273.1c1-8.7,4.7-16.6,7.7-24.7c22.2-59.4,49.4-116.5,82-170.9c30.1-50.1,64.1-97.3,102-141.8
			c39.5-46.3,82.7-88.8,129.7-127.3c59.4-48.8,123.5-90.6,192.2-125.2c78.7-39.5,160.9-68.7,247-87.1
			c48.6-10.4,97.6-17.1,147.2-20.5c41.3-2.9,82.6-2.8,123.9-1.2c30.6,1.2,61.1,4.5,91.4,8.7c52.2,7.3,103.5,18.5,153.9,33.7
			c60.1,18.1,118,41.5,173.9,70.2c76.8,39.5,147.6,87.9,212.4,145c14,12.3,27.3,25.4,40.9,38.2c0.4,1.7-0.1,2.4-1.9,1.9
			c-33.4-17.1-66.9-34-101.4-48.8c-25.6-11-51.6-21-77.7-30.8c-3.7-1.4-7.4-2.9-11.1-4.3c-2.5-1.5-5.3-2.4-8-3.6
			c-21.6-11.2-41.9-24.7-63.1-36.4c-43-23.8-87.8-43.3-133.8-60.5c-63.3-23.7-128.6-39.8-195.3-49.7c-33.9-5.1-68-8.5-102.3-9.5
			c-17.3-0.5-34.5-2.1-51.9-1.7c-74.1,1.8-147.4,9.4-219.7,26.5c-80.2,18.9-157,47.1-230.1,85c-70,36.4-134.7,80.7-194.4,132.6
			c-67.1,58.3-125.1,124.3-174.7,198c-19.9,29.6-38.6,59.9-54.3,92.1c-1.9,3.9-4.4,7.4-7.1,10.9c-1.9,2.9-3.5,6-6,8.6
			c-13.5,17.2-27.1,34.3-40.5,51.6C508.5,1245.4,498.3,1259.3,487.9,1273.1z"/>
		<path class="st33" d="M563.9,1171.9c19.9-41.2,43.7-80.1,69.6-117.7C685.7,978.6,747.3,911.6,818,853
			c58.2-48.2,121.1-89.3,188.7-123.2c73.3-36.7,149.9-64.1,229.9-81.7c46.2-10.2,92.9-17,140.2-20.6c47-3.6,93.9-4,140.8-1
			c58.3,3.7,115.8,12.4,172.6,26.4c77.9,19.1,152.5,47.1,223.6,84.4c27.4,14.4,54.3,29.7,80.1,46.9c0.6,0.4,0.8,0.9,0.7,1.4
			c-0.1,0.5-0.3,0.8-0.5,0.8c-18.3-4.7-36-11.7-54.1-17c-42.4-12.3-85.3-22.6-128.7-31.1c-3.6-0.7-7.1-1.5-10.7-2.2
			c-3.2-1.7-7.1-0.8-10.2-3c-29.4-8.6-58.1-19.3-87.7-27.2c-45.8-12.3-92.1-21.2-139.1-27c-50.3-6.2-100.9-8-151.5-5.8
			c-54.2,2.4-108.1,9.2-161.2,21c-60,13.3-118.3,31.9-174.7,56.3c-83.4,36.1-159.9,83.5-229.7,141.6c-26.9,22.4-52.8,45.8-76.9,71.2
			c-16.7,17.6-32.5,36.1-48.6,54.3c-0.6,0.7-1.3,1.4-2,2c-0.3,0.3-0.7,0.6-1,1c-0.6,0.7-1.3,1.3-1.9,1.8c-0.6,0.6-1.1,1.3-1.6,2
			c-1.6,1.3-2.8,3.1-4.4,4.4c-2.1,1.4-2.8,4-5,5.3c-20.4,19.1-41.5,37.4-61.4,57.1c-27,26.7-53.2,54.1-77.8,83.1
			C564.1,1174.4,563.1,1174,563.9,1171.9z"/>
		<path class="st1" d="M713.7,1023.6c0.1-0.7,0.4-1.2,1-1.5c0.2-0.8,0.7-1.4,1.4-1.7l0.1-0.2c0.5-0.8,1-1.5,1.7-2.1
			c20.3-25.6,42.5-49.5,65.6-72.5c52.7-52.3,110.8-97.9,174.1-136.6c61.6-37.6,126.6-67.8,195.1-90.7c51.3-17.1,103.6-29.6,157-37.8
			c60.1-9.2,120.6-12.5,181.3-10c101.5,4.3,200,23.8,295.3,59.5c1.9,0.7,3.7,1.6,5.5,2.4c0.3,1.7-0.2,2.7-2.1,2
			c-26.6-4.6-53.3-7.7-80.1-11c-19.2-2.4-38.5-3.5-57.7-5c-48.6-3.8-97.2-3.4-145.8-1.6c-34.2,1.2-68.4,4.5-102.4,8.6
			c-33.4,4.1-66.6,9.3-99.5,15.9c-57.2,11.5-113.3,26.8-168.4,45.8c-82.4,28.4-161.2,64.7-236.5,108.7
			c-63.4,37.1-122.9,79.7-179.7,126.2c-0.4,0.7-1,1.3-1.7,1.6c-1.3,1-2.6,2-3.9,3.1C713.1,1025.7,713,1024.7,713.7,1023.6z"/>
		<path class="st34" d="M1928.3,791.7c-1.7,0.4-3.5,0.5-4.4,2.4c-4.2-1.1-7.6-3.5-10.9-6.2C1918.4,787.7,1923.6,788.8,1928.3,791.7z
			"/>
		<path class="st35" d="M628.5,1146.6c-0.8-0.9-1.6-1.7-2.4-2.6c2.1-3.6,4.6-6.8,8.9-8.1C633.2,1139.7,631.7,1143.7,628.5,1146.6z"
			/>
		<path class="st36" d="M1789.9,734.3c0.7-0.7,1.4-1.3,2.1-2c3.2,0.5,6.2,1.5,8.6,3.7C1797,735.7,1793.1,737.1,1789.9,734.3z"/>
		<path class="st37" d="M2092.2,851.8c-0.8,0.8-1.5,1.5-2.3,2.3c-2.7-0.8-4.2-3.2-6.4-4.7C2087.2,847.1,2089.6,849.8,2092.2,851.8z"
			/>
		<path class="st38" d="M2190.2,872.1c0.6-0.6,1.3-1.3,1.9-1.9c2.8,1.2,4.6,3.4,6.1,6C2195.1,875.6,2192.2,874.6,2190.2,872.1z"/>
		<path class="st39" d="M563.9,1171.9c0.7,0.7,1.3,1.5,2,2.2c-1.4,2.8-3.3,5-6.4,6C560.3,1177.1,561.4,1174.1,563.9,1171.9z"/>
		<path class="st40" d="M514.1,1286.1c-0.4-1.4-0.3-3-1.8-3.9c0.5-2.1,1.7-3.7,3.6-4.7c1,0.8,1.2,1.7,0.5,2.8
			C516.2,1282.5,515.8,1284.6,514.1,1286.1z"/>
		<path class="st41" d="M2264,947.9c-2.7-1.1-3.9-3.5-5-5.9c2.7,0.5,5.1,1.6,6.8,3.9C2265.2,946.5,2264.6,947.2,2264,947.9z"/>
		<path class="st42" d="M1994.1,786.3c-0.1-0.7-0.1-1.4-0.2-2.2c2.6,0.4,4.5,1.9,6.1,3.9C1997.9,788,1995.6,788.5,1994.1,786.3z"/>
		<path class="st43" d="M713.7,1023.6c0.1,1,0.2,2,0.3,3c-0.8,2-2.4,3.1-4.2,4c-0.8-0.9-0.8-1.8,0-2.8
			C710.8,1026.1,711.8,1024.4,713.7,1023.6z"/>
		<path class="st44" d="M709.8,1027.8c0,0.9,0,1.9,0,2.8c-1,2-2.6,3-4.7,3.4C706.2,1031.5,707.4,1029.2,709.8,1027.8z"/>
		<path class="st45" d="M516.3,1280.3c-0.2-0.9-0.3-1.9-0.5-2.8c0-1.9,1.1-3.1,2.9-3.6C518.1,1276.1,518.2,1278.6,516.3,1280.3z"/>
		<path class="st43" d="M718,1023.5c0.6-0.5,1.2-1.1,1.7-1.6C719.5,1022.9,719,1023.4,718,1023.5z"/>
		<path class="st1" d="M2803.1,1840.7c0.2-3.6,0.4-7.3,0.4-10.9c0-51.9,0-103.7,0-155.6c0-4,0-7.9,0-11.9
			c20.2,59.1,32.7,119.9,42.4,181.3c-12.6,0.1-25.2,0.3-37.7,0.4C2805.8,1844,2803.4,1843.9,2803.1,1840.7z"/>
		<path class="st46" d="M1421.6,2537.7c-468.5-1.2-842-379.6-841.9-842.2c0-465.1,377.2-841.8,842.1-841.7
			c462.3,0.1,841.7,373.7,841.4,842.4C2262.8,2161.7,1887.3,2536.5,1421.6,2537.7z"/>
		<path class="st43" d="M716.1,1020.3c0,1-0.5,1.6-1.4,1.7C714.7,1021.1,715.2,1020.5,716.1,1020.3z"/>
		<path class="st43" d="M718,1018c0,1.2-0.6,1.8-1.7,2.1C716.3,1019,716.9,1018.3,718,1018z"/>
		<path class="st1" d="M1421.9,2417.4c-401.5-1.2-721.8-325-722-721.9c-0.1-397.6,322.8-720.9,720.1-721.5
			c400.2-0.6,722.9,324.1,722.9,721.7C2142.9,2089.6,1825.2,2415.8,1421.9,2417.4z"/>
		<path class="st47" d="M1420.4,2361.9c-367.8-0.9-665.5-299.6-665.1-666.6c0.4-368.7,299.3-666.2,666.8-665.8
			c367.2,0.4,666.1,297.3,665.5,667C2087,2066.6,1787.7,2361.8,1420.4,2361.9z"/>
		<path class="st1" d="M1421.2,2337.7c-359.4-1.6-642.1-292.2-641.6-642.9c0.5-354.3,288-641.2,642.2-641.1
			c350.6,0.1,641.4,282.6,641.5,641.7C2063.4,2051.9,1776,2336.7,1421.2,2337.7z"/>
		<path class="st14" d="M1421.4,2275.4c-323.6-0.9-580-262.7-579.5-580.1c0.5-320.6,259.7-579.5,580.1-579.3
			c319.1,0.3,579.4,258.4,579,580.4C2000.6,2015.9,1742.8,2274.6,1421.4,2275.4z"/>
		<path class="st1" d="M1421.1,1161.4c295-0.2,534.6,239,534.7,533.7c0.1,295.4-239.3,535-534.6,534.9
			c-294.8-0.1-533.7-239-534.2-534.3C886.6,1401.1,1126,1161.6,1421.1,1161.4z"/>
		<path class="st14" d="M1501.8,1375.2c-1.3,2.3-2.4,4.4-3.6,6.4c-15,24.8-30,49.6-45,74.3c-4.6,7.6-4.6,7.5-12.6,3.9
			c-38.9-17.6-84.1,2.4-96.7,43.2c-8.5,27.7-2,52.4,18.7,72.3c20.8,19.9,46,25.2,73.1,15.3c27-9.9,42.3-30.1,46.3-58.7
			c1.1-7.7,0.9-7.8,8.9-7.8c66.3,0,132.6-0.2,199,0.3c40.2,0.3,70.4,18.2,88.1,54.8c16.2,33.5,9.6,74.1-15.6,101.5
			c-2.5,2.7-5.5,4.8-7.9,6.9c1.3,4.4,4.5,5.2,6.7,6.8c36.2,27,51,72.1,37.5,114.7c-13.5,42.7-52.4,72.2-97.5,72.6
			c-54.7,0.5-109.3,0-164-0.1c-7.4,0-7.4-0.2-7.4-8.9c0-68.7,0-137.3,0-206c0-3.6,0-7.3,0-10.8c-3.3-1.5-4.5,1.2-6.1,2.5
			c-10.8,8.9-22.4,16.8-35.2,22.7c-4.5,2.1-6.4,4.6-6.3,9.7c0.2,76,0.1,152,0.1,228c0,7.7,0.1,7.8,8.7,7.8c39,0,78,0,117,0
			c2,0,4-0.1,6,0c6.9,0.2,6.9,0.2,7.1,7.5c0,1,0,2,0,3c0,25.3,0,50.7,0,76c0,9.9,0,10-9.6,10c-74,0-148,0-222,0
			c-11.2,0-9.3-1-9.3-9.2c0-33.3,0-66.7,0-100c0-68.7,0-137.3,0-206c0-2.3-0.1-4.7,0-7c0.2-3.1-0.9-4.7-4.2-5.4
			c-12.7-2.7-25-6.6-37-12c-2.8,2.9-1.8,6-1.8,8.8c-0.2,17.3,0.2,34.6-0.8,52c-4.2,72.4-60.8,134.7-132.6,145.9
			c-85.8,13.4-163.9-39.4-182.7-123.7c-2.3-10.4-3.4-21-3.4-31.7c0.1-61,0-122,0-183c0-2,0-4,0.1-6c0.1-2.4,1.3-3.6,3.7-3.6
			c1.7,0,3.3,0,5,0c27.3,0,54.7,0,82,0c9.2,0,9.2,0.1,9.2,9.2c0,60.7-0.1,121.3,0,182c0,26.4,17.2,49.1,42.4,56.7
			c25,7.5,52.1-2.2,66.7-24c6.7-10,10-20.9,9.9-33c-0.1-66,0.2-132-0.3-198c-0.4-41.2,8.8-79.2,33.2-112.9
			c53.4-74.1,150.9-92.4,225.4-51.3C1497.1,1372.1,1499.3,1373.7,1501.8,1375.2z"/>
		<path class="st1" d="M1649.2,1794.9c-5.7,0-10.1,0.1-14.4,0c-7.2-0.1-7.3-0.2-7.4-6.9c-0.2-12.3-0.1-24.6-0.4-36.9
			c-0.1-4.9,1.1-7.3,6.7-7c8.6,0.5,17.3,0.1,25.9,0.4c3.3,0.1,6.6,0.7,9.8,1.6c11.9,3.4,19.2,13.5,18.6,25.2
			c-0.6,11.4-9.3,20.8-21.3,23.1C1660.5,1795.4,1654.1,1794.6,1649.2,1794.9z"/>
		<path class="st48" d="M1628,1629.5c0-7.3,0.1-14.6,0-22c0-3.3,1.1-5,4.6-4.9c9.3,0.3,18.7-0.8,27.9,0.8
			c14.7,2.4,24.2,12.8,24.1,26.1c-0.1,13.2-9.8,24.1-24.4,25.8c-9.2,1.1-18.6,0.3-27.9,0.4c-3.7,0.1-4.3-2.2-4.2-5.2
			C1628.1,1643.5,1628,1636.5,1628,1629.5z"/>
	</g>
</g>
</svg>
